<?xml version="1.0" standalone="no"?>
<!DOCTYPE svg PUBLIC "-//W3C//DTD SVG 1.1//EN" "http://www.w3.org/Graphics/SVG/1.1/DTD/svg11.dtd" >
<svg xmlns="http://www.w3.org/2000/svg" xmlns:xlink="http://www.w3.org/1999/xlink" version="1.1">
<metadata></metadata>
<defs>
<font id="exanregular" horiz-adv-x="1228" >
<font-face units-per-em="2048" ascent="1638" descent="-410" />
<missing-glyph horiz-adv-x="500" />
<glyph horiz-adv-x="0" />
<glyph horiz-adv-x="682" />
<glyph unicode=" " />
<glyph unicode="-" />
<glyph unicode="0" d="M109 371v690q6 111 27.5 177.5t64.5 104.5q41 37 96 56q47 16 137 25.5t180 9.5q92 0 181.5 -9.5t136.5 -25.5q53 -16 96 -53q43 -39 64.5 -104.5t27.5 -176.5v-696q-6 -111 -27.5 -176.5t-64.5 -104.5q-43 -37 -96 -53q-47 -16 -136 -25.5t-182 -9.5q-90 0 -180 9 t-137 26q-55 18 -96 55q-43 39 -64.5 105.5t-27.5 175.5zM238 356q6 -102 32 -153q16 -23 101.5 -49.5t242.5 -26.5q147 0 250 29l-606 1046q-14 -41 -20 -129v-717zM365 1278l606 -1051q18 49 20 125v727q-6 111 -33 152q0 4 -31.5 23.5t-107.5 36t-205 16.5 q-147 0 -249 -29z" />
<glyph unicode="1" d="M168 0v137h432v948q-6 100 -33 152q-6 12 -43 28.5t-110.5 30t-182.5 13.5h-20v125h20q86 0 175.5 -9.5t136.5 -25.5q49 -16 92 -53q43 -39 63.5 -103.5t26.5 -171.5v-934h338v-137h-895z" />
<glyph unicode="2" d="M109 369v39q6 111 27.5 177t64.5 107q41 35 96 56q66 20 166 24q66 8 153 8q127 0 204 16.5t109 35t32 22.5q27 41 32 152v75q-6 106 -32 154q0 2 -30 17.5t-93 33.5q-66 18 -222 19q-160 0 -243.5 -26t-102.5 -48q-27 -45 -32 -158v-51h-129v51q8 104 29.5 168t62.5 102 q41 37 96 56q47 16 137 25.5t182 9.5q84 0 158 -7q90 -10 164 -37.5t92 -41.5q43 -39 64.5 -104.5t27.5 -176.5v-45q-6 -109 -25.5 -173.5t-60.5 -100.5l-18 -17q-41 -31 -84 -45q-49 -16 -140.5 -25.5t-177.5 -9.5q-159 0 -243 -24.5t-103 -46.5q-27 -47 -32 -158v-66 q6 -109 32 -155q6 -12 43 -28.5t111 -30t182 -13.5h516v-129h-506q-92 0 -182 9t-137 26q-53 16 -96 53q-43 41 -64.5 106.5t-27.5 174.5z" />
<glyph unicode="3" d="M106 1038l3 25q6 111 27.5 176.5t64.5 101.5q39 39 96 58q47 16 137 25.5t180 9.5h4q231 -4 316 -35q57 -18 94 -53q45 -39 66.5 -104.5t27.5 -176.5v-39q-6 -113 -27.5 -177.5t-64.5 -105.5q-27 -23 -35 -26l41 -31q39 -39 59.5 -103.5t26.5 -168.5v-45 q-6 -111 -27.5 -177.5t-66.5 -105.5q-31 -29 -94 -53q-47 -16 -141.5 -24.5t-178.5 -8.5q-90 0 -180 9t-137 26q-55 18 -96 55q-41 39 -63.5 102.5t-28.5 165.5v54h127v-56q10 -115 34 -153q14 -25 99.5 -50.5t244.5 -25.5h15q86 0 190.5 18.5t134.5 49.5q18 18 28.5 70 t10.5 118q0 59 -9 113.5t-23 81.5q0 4 -32 23.5t-109 35.5t-206 16h-20v127h20q113 0 188 13.5t112.5 31t43.5 31.5q27 41 35 156v65q-8 111 -35 152q-12 23 -92 48.5t-229 27.5h-43q-104 0 -175 -14.5t-107 -32t-42 -29.5q-27 -41 -34 -154v-37h-130z" />
<glyph unicode="4" d="M123 991v443h125v-457q10 -113 33 -150q16 -23 98 -48t235 -25q86 0 173 -8.5t135 -22.5q35 -14 57 -29v740h125v-1434h-125v424l-2 10q-10 96 -31 127q0 4 -30.5 21.5t-104.5 34t-197 16.5q-78 0 -151 6q-106 10 -156 25q-57 20 -94 55q-43 39 -63.5 102.5t-26.5 169.5z " />
<glyph unicode="5" d="M106 1024v39q6 111 28 176.5t67 103.5q47 39 94 56q49 16 140 25.5t179 9.5h332v-129h-352q-150 -2 -230.5 -27t-95.5 -47q-25 -45 -32 -156v-65q8 -113 32 -154q14 -25 100.5 -50.5t245.5 -25.5q90 0 180.5 -8t137.5 -24q47 -18 84 -46l18 -16q41 -39 61.5 -103.5 t24.5 -168.5v-45q-4 -109 -26.5 -174.5t-65.5 -106.5q-18 -16 -49 -33q-39 -18 -47 -22q-6 0 -12.5 -2t-10.5 -4l-39 -9l-98 -12q-76 -6 -158 -6q-92 0 -181 9t-138 26q-59 20 -94 55l-13 10l80 103q14 -25 100.5 -50.5t245.5 -25.5q78 0 138 8l12 2h12l15 4q2 0 45 6 q63 14 92.5 32t29.5 22q27 45 33 153v74q-6 111 -33 152q0 4 -31.5 22.5t-108.5 34.5t-204 16q-78 0 -155 6q-109 8 -164 27q-55 23 -94 57q-45 39 -66.5 104.5t-28.5 176.5z" />
<glyph unicode="6" d="M106 358v709q6 111 28 177.5t65 105.5q35 31 98 53q90 31 315 31q94 0 184.5 -7.5t137.5 -23.5q102 -31 142 -115t46 -221v-25h-127v39q-6 61 -14 96t-20 56q-16 33 -135 54.5t-195 21.5h-17q-160 0 -244.5 -27t-101.5 -49q-25 -45 -32 -158v-356q45 27 98 38t125 17 q68 8 155 8q88 0 156 -8q98 -8 149.5 -22.5t110.5 -59.5q43 -41 64.5 -106.5t27.5 -173.5v-43q-6 -111 -27.5 -177.5t-64.5 -105.5q-41 -35 -96 -55q-47 -16 -138 -23.5t-180 -7.5h-2q-229 0 -317 35q-6 2 -29 10q-45 20 -69 45q-27 27 -40.5 48.5t-25.5 58.5l-15.5 62 t-11.5 99zM236 356q8 -109 32 -153q14 -25 95 -49.5t233 -26.5h18v-2l2 2h23q150 2 228.5 27.5t93.5 48.5q12 23 20 57.5t14 95.5v68q-6 61 -14 96t-20 58q-14 25 -100.5 50t-246.5 25t-245.5 -25.5t-100.5 -49.5q-24 -41 -32 -156v-66z" />
<glyph unicode="7" d="M154 1305v129h407q94 0 184.5 -9.5t137.5 -25.5q57 -18 96 -56q45 -38 66.5 -105t27.5 -177v-1061h-18h-90h-21v1075q-8 109 -35 154q-14 25 -99 50.5t-249 25.5h-407z" />
<glyph unicode="8" d="M109 369v43q4 106 24.5 169.5t61.5 104.5l18 16l20 15q-18 12 -32 26q-43 41 -64.5 105.5t-27.5 173.5v39q6 111 27.5 176.5t64.5 105.5q41 35 96 56q49 16 140 25.5t177 9.5t177.5 -9.5t140.5 -25.5q55 -20 96 -56q43 -41 64.5 -106.5t27.5 -173.5v-39 q-6 -111 -27.5 -175.5t-64.5 -105.5q-14 -14 -33 -26q8 -4 12.5 -8t8.5 -7l18 -16q41 -39 61.5 -102.5t24.5 -169.5v-45q-4 -109 -26.5 -174.5t-65.5 -106.5q-43 -37 -96 -53q-47 -16 -137 -25.5t-181 -9.5q-90 0 -180 9t-137 26q-53 16 -96 53q-43 41 -65.5 106.5 t-26.5 174.5zM236 352q8 -109 34 -151q0 -4 32 -22.5t107.5 -35t204.5 -16.5t206 16.5t107.5 35t30.5 24.5q25 36 35 151v76q-10 111 -35 150q0 4 -31.5 22.5t-107.5 34.5t-205 16t-204.5 -16t-107.5 -34.5t-32 -22.5q-25 -39 -34 -152v-76zM236 1010q10 -115 34 -154 q14 -25 99.5 -50.5t244.5 -25.5q160 0 245 25.5t99 50.5q27 41 35 156v63q-8 113 -35 156q-14 23 -100 48.5t-244 25.5t-243.5 -26t-100.5 -48q-27 -43 -34 -156v-65z" />
<glyph unicode="9" d="M106 371v41h130v-56q6 -102 32 -153q14 -23 100.5 -48.5t243.5 -25.5h17q51 0 73 2h9q113 6 198 39q39 25 55.5 47.5t20.5 47t6 89.5v363l-59 -29q-55 -20 -164 -29q-76 -6 -154 -6t-155 6q-203 18 -258 84q-45 39 -66.5 104.5t-28.5 176.5v39q6 111 28 176.5t67 103.5 q37 37 96 58q47 16 137 24.5t180 8.5h4q82 0 173.5 -8.5t140.5 -24.5t96 -55q43 -39 65.5 -104.5t26.5 -174.5v-696q-4 -111 -26.5 -176.5t-65.5 -106.5q-43 -37 -96 -53q-47 -16 -147.5 -25.5t-170.5 -9.5h-2q-86 0 -176 9t-139 26q-57 16 -96 53l-6 6l-7 8 q-37 37 -55 99.5t-24 158.5zM236 1012q6 -104 32 -156q14 -25 100.5 -50.5t245.5 -25.5q160 0 245 25.5t99 50.5q27 52 33 156v65q-6 106 -33 154q-14 23 -94 47.5t-229 26.5h-43q-147 -2 -228 -27t-96 -47q-27 -47 -32 -156v-63z" />
<glyph unicode="A" d="M158 0v1061q8 154 51 229.5t139 110.5q96 33 266 33q180 0 271 -33q96 -35 137 -107.5t49 -226.5v-1067h-129v637h-655v-637h-129zM287 774h655v309q-6 111 -33 150q-41 74 -295 74q-250 0 -295 -76q-25 -41 -32 -154v-303z" />
<glyph unicode="B" d="M135 0v1434h524q109 -10 173.5 -47t97.5 -124t33 -247q0 -92 -19 -189l-6 -30l27 -17q57 -35 93 -113.5t36 -248.5q0 -225 -78 -320q-20 -25 -64 -47q-61 -31 -152 -40t-237 -9h-14l-8 -2h-406zM266 133h477l2 2l13 2q100 8 139 31q53 27 66 180q2 27 2 70 q0 139 -21.5 189t-48.5 65q-18 12 -72 22l-88 13h-469v-574zM266 840l545 -9l8 37q12 47 12 148q0 90 -15 153.5t-42 90.5q-18 18 -75.5 31.5t-223.5 13.5q-66 0 -111 -2.5t-57 -2.5l-41 -2v-458z" />
<glyph unicode="C" d="M176 418v596q0 188 43 273t154.5 115t355.5 32h322v-134h-504l-29 -2q-98 -6 -145 -30q-66 -33 -66 -254v-596q0 -139 20.5 -189.5t47.5 -64.5q47 -27 166 -33h510v-131h-510l-95 8l-38 8l-46 17q-92 30 -139 113t-47 272z" />
<glyph unicode="D" d="M133 0v1434h430q225 -2 329.5 -26t154 -111t49.5 -281v-596q0 -188 -47.5 -273.5t-139.5 -113.5l-43 -15l-39 -10l-94 -8h-600zM264 133h469q117 6 164 33q27 16 48.5 65.5t21.5 188.5v596q0 223 -68 254q-39 25 -145 33l-490 2v-1172z" />
<glyph unicode="E" d="M178 420v596q0 186 42 272t153.5 115t355.5 31h322v-131h-504l-27 -3q-100 -8 -147 -30q-66 -37 -66 -254v-230h744v-139h-744v-227q0 -215 70 -254q45 -25 166 -35h508v-131l-510 2l-95 8l-36 8l-50 17q-90 31 -136 113.5t-46 271.5z" />
<glyph unicode="F" d="M178 0v1014q0 197 49 283.5t153.5 110.5t328.5 26h342v-134h-504l-27 -2q-98 -6 -147 -28q-29 -21 -48.5 -74t-19.5 -182v-226h746v-141h-746v-647h-127z" />
<glyph unicode="G" d="M106 371v692q6 111 28 175.5t67 102.5q31 33 94 58q49 16 138 25.5t181 9.5q90 0 180.5 -8.5t137.5 -24.5q57 -23 96 -55q43 -39 65.5 -104.5t26.5 -174.5l2 -29l-131 27v14q-6 102 -33 154q0 4 -31.5 21.5t-108.5 34t-204 16.5q-160 0 -244.5 -25t-101.5 -49 q-25 -45 -32 -156v-717q8 -111 32 -155q16 -25 101.5 -49.5t244.5 -24.5q127 0 204 16.5t108.5 34t31.5 21.5q27 51 33 153v244h-397v141h526v-370q-4 -109 -26.5 -175.5t-65.5 -105.5q-39 -33 -96 -55q-49 -14 -140.5 -23.5t-177.5 -9.5q-88 0 -179 9t-140 26 q-59 22 -94 57q-45 39 -66.5 103.5t-28.5 175.5z" />
<glyph unicode="H" d="M170 0v1434h125v-682h637v682h127v-1434h-125l-2 614h-637v-614h-125z" />
<glyph unicode="I" horiz-adv-x="614" d="M244 0v1434h127v-1434h-127z" />
<glyph unicode="J" d="M111 391l127 -26v-15q8 -106 34 -151q0 -4 32 -22.5t107.5 -35t202.5 -16.5q156 0 240 25.5t100 48.5q27 45 33 155v1080h129v-1065q-6 -106 -27.5 -172t-64.5 -107q-39 -39 -96 -57q-47 -16 -136.5 -24.5t-177.5 -8.5q-90 0 -179 8t-136 25q-51 16 -94 53 q-43 39 -64.5 102.5t-27.5 173.5z" />
<glyph unicode="K" d="M102 0v1434h131v-678h426q111 2 178.5 18.5t96.5 33.5t29 21q23 37 32 152v453h129v-439q-6 -106 -26.5 -170.5t-59.5 -103.5l-18 -16l-23 -15l23 -14l18 -14q39 -39 59.5 -104.5t26.5 -174.5v-383h-129v399q-10 113 -32 154l-17 17q-18 16 -96 34.5t-191 20.5h-426v-625 h-131z" />
<glyph unicode="L" horiz-adv-x="1146" d="M154 371v1063h131v-1078q10 -119 32 -151q14 -25 100.5 -51.5t246.5 -26.5h409v-127h-409q-94 0 -183.5 8t-136.5 25q-55 16 -96 57q-45 41 -66.5 105.5t-27.5 175.5z" />
<glyph unicode="M" d="M123 0v1434h115l47 -68l329 -573l330 573l45 68h115v-1434h-123v1180l-307 -531h-119l-307 531v-1180h-125z" />
<glyph unicode="N" d="M172 0v1434h100l660 -1141v1141h127v-1434h-101l-659 1143v-1143h-127z" />
<glyph unicode="O" d="M109 371v692q6 109 27.5 175.5t64.5 104.5q39 35 98 58q45 16 136 24.5t181 8.5t180.5 -8.5t139.5 -24.5q59 -23 94 -55q45 -39 66.5 -103.5t25.5 -175.5v-698q-4 -111 -25.5 -176.5t-66.5 -104.5q-35 -33 -94 -55q-49 -16 -139 -24.5t-181 -8.5q-90 0 -181 9t-136 26 q-59 18 -98 55q-43 39 -64.5 105.5t-27.5 175.5zM238 356q10 -115 34 -153q6 -12 44 -29.5t113 -32t187 -14.5q129 0 205 16.5t112 37t30 20.5q22 40 32 151v729q-10 113 -34 152q0 4 -32 22.5t-108 35t-205 16.5q-113 0 -187.5 -13.5t-112 -31t-44.5 -31.5 q-27 -43 -34 -156v-719z" />
<glyph unicode="P" d="M133 0v1434h408q246 -2 358.5 -32t153.5 -116t41 -272q0 -187 -46.5 -271t-138.5 -112l-45 -17l-39 -8l-92 -8l-471 -2v-596h-129zM262 729h467q113 2 166 33q68 35 68 252q0 131 -18.5 186t-49.5 68q-61 35 -172 35h-461v-574z" />
<glyph unicode="Q" d="M106 369v692l3 22v9q8 111 41 182q18 43 51 69q35 35 96 58q45 14 121 22q74 10 196 11q119 0 193 -11q66 -4 127 -22q57 -18 94 -53q37 -33 53 -76q31 -63 39 -182q2 -7 2 -14v-9v-698q-6 -82 -18 -142q-10 -43 -25 -69q-14 -37 -51 -72q-8 -8 -41 -27.5t-53 -25.5 l-10 -2q20 -20 51 -28.5t88 -8.5l59 -113q2 -4 -17.5 -8t-47.5 -4q-133 0 -242 90q-16 12 -43 47q-76 -6 -158 -6q-229 0 -317 35q-59 18 -96 55q-53 47 -74 137q-12 41 -21 142zM236 356q4 -45 8 -63q6 -55 26 -90q6 -12 44 -30.5t114 -32t186 -13.5q129 0 205 16.5t112 37 t30 20.5q14 29 26 94q4 36 4 59v727q-2 55 -14 111q-8 23 -19 41q0 2 -19 15.5t-65.5 27.5t-123.5 22q-45 6 -136 7q-104 0 -151 -7q-88 -12 -137.5 -32.5t-55.5 -34.5q-10 -14 -16 -37q-12 -35 -18 -119v-719z" />
<glyph unicode="R" d="M113 0v1434h430q223 0 327.5 -24t153.5 -112t49 -282q0 -190 -45 -272t-137 -113l-45 -17l-12 -4l284 -610h-141l-279 598l-454 -2v-596h-131zM244 727h469q113 6 164 35q27 16 48 65.5t21 188.5q0 219 -67 252q-39 23 -146 32l-489 3v-576z" />
<glyph unicode="S" d="M111 371v41h129v-56q6 -102 32 -153q8 -12 46 -29.5t114 -32t186 -14.5h23h23q41 0 89 6t66 10q66 12 99.5 28.5t42.5 29.5q27 39 36 153v76q-8 106 -36 152q0 4 -32 21.5t-108 33.5t-203 16q-90 0 -153 9q-121 10 -164 24q-53 16 -98 57q-43 39 -64.5 105.5t-27.5 175.5 v39q6 109 27.5 175.5t64.5 104.5q43 35 98 56q47 16 136 25.5t181 9.5q90 0 179.5 -9.5t138.5 -25.5q59 -23 94 -53q45 -39 66.5 -104.5t25.5 -174.5v-27h-125v39q-10 117 -36 152q0 4 -32 22.5t-108 35t-203 16.5q-160 0 -245.5 -26t-100.5 -50q-27 -47 -32 -156v-65 q6 -98 32 -154q14 -23 101.5 -48.5t244.5 -25.5q86 0 176.5 -9t141.5 -23q51 -16 84 -48l16 -16q41 -39 61.5 -102.5t24.5 -169.5v-43q-4 -106 -24.5 -170t-61.5 -105l-4 -6l-8 -6q-6 -8 -35 -27l-53 -22q-45 -10 -66 -15q-61 -10 -96 -12q-45 -4 -69 -4h-7q-29 -2 -80 -2 q-92 0 -181 9t-136 26q-57 16 -98 55t-62.5 102.5t-27.5 165.5z" />
<glyph unicode="T" d="M104 1294v140h1020v-140h-444v-1294h-137v1294h-439z" />
<glyph unicode="U" d="M104 373v1061h129v-1076q8 -111 35 -153q14 -25 100.5 -50.5t245.5 -25.5q129 0 207 16.5t110 35t32 22.5q25 41 32 153v1078h129v-1063q-4 -111 -26.5 -177.5t-67.5 -105.5q-37 -33 -96 -55q-47 -16 -138 -24.5t-182 -8.5q-90 0 -180 9t-139 26q-59 18 -96 55 q-45 39 -66.5 105.5t-28.5 177.5z" />
<glyph unicode="V" d="M109 770v664h129v-637l36 -58l342 -589l377 645v639h129v-650l-112 -209l-342 -575h-115z" />
<glyph unicode="W" d="M123 0v1434h125v-1180l305 532h123l307 -532v1180h123v-1434h-115l-45 68l-332 571l-329 -569l-47 -70h-115z" />
<glyph unicode="X" d="M152 0v383q6 109 26.5 173.5t61.5 102.5l18 17q6 6 18 14h3q-8 4 -12.5 8t-8.5 7l-18 16q-41 39 -61.5 103.5t-26.5 170.5v439h131v-453q6 -109 32 -154q12 -18 87 -42.5t214 -28.5q96 2 163 16t99.5 29.5t39.5 25.5q25 45 32 154v453h129v-437q-4 -106 -24.5 -170.5 t-61.5 -105.5l-20 -16l-19 -15q12 -8 19 -14l20 -17q41 -41 61.5 -105.5t24.5 -168.5v-385h-129v401q-8 106 -32 152q-16 18 -90 43t-214 31q-139 -6 -212.5 -31t-86.5 -43q-27 -45 -32 -154v-399h-131z" />
<glyph unicode="Y" d="M172 1051v383h125v-398q6 -102 33 -149q41 -74 284 -74q246 0 285 72q27 47 33 147v402h125v-387q-8 -150 -48 -220.5t-135 -103.5q-74 -25 -190 -31v-692h-123v690q-131 6 -207 33q-92 33 -133 105.5t-49 222.5z" />
<glyph unicode="Z" d="M106 1040l3 23q6 109 27.5 175.5t64.5 104.5q41 37 96 56q47 16 137 25.5t180 9.5t181.5 -8.5t138.5 -24.5l4 -2q57 -25 80 -45l14 -13l-682 -1181q98 -33 264 -33q182 0 253 26.5t94 49.5q25 39 32 151v58h129v-43q-6 -111 -27.5 -177.5t-64.5 -105.5q-37 -31 -96 -53 q-47 -16 -138 -24.5t-182 -8.5q-90 0 -180 8t-137 25l-27 12l-6 4q-35 16 -63 41l-13 12l-8 11l2 12l2 4v2l666 1153q-96 23 -236 23q-158 0 -242.5 -27t-101.5 -49q-27 -45 -32 -156v-35h-132z" />
<glyph unicode="a" d="M158 0v1061q8 154 51 229.5t139 108.5q92 35 266 35q172 0 269 -33q96 -35 138 -107.5t50 -226.5v-1067h-96l-682 1141l-6 -66v-1075h-129zM367 1272l575 -998v807q-10 115 -33 152q-41 74 -295 74q-168 0 -247 -35z" />
<glyph unicode="b" d="M135 0v1434h524q109 -10 173.5 -47t97.5 -124t33 -247q0 -92 -19 -189l-6 -30l27 -17q57 -35 93 -113.5t36 -248.5q0 -225 -78 -320q-20 -25 -64 -47q-61 -31 -152 -40t-237 -9h-14l-8 -2h-406zM266 133h477l2 2l13 2q100 8 139 31q53 27 66 180q2 27 2 70 q0 139 -21.5 189t-48.5 65q-18 12 -72 22l-88 13h-469v-574zM266 840l545 -9l8 37q12 47 12 148q0 90 -15 153.5t-42 90.5q-18 18 -75.5 31.5t-223.5 13.5q-66 0 -111 -2.5t-57 -2.5l-41 -2v-458z" />
<glyph unicode="c" d="M176 418v596q0 188 43 273t154.5 115t355.5 32h322v-134h-504l-29 -2q-98 -6 -145 -30q-66 -33 -66 -254v-596q0 -139 20.5 -189.5t47.5 -64.5q47 -27 166 -33h510v-131h-510l-95 8l-38 8l-46 17q-92 30 -139 113t-47 272z" />
<glyph unicode="d" d="M133 0v1434h430q225 -2 329.5 -26t154 -111t49.5 -281v-596q0 -188 -47.5 -273.5t-139.5 -113.5l-43 -15l-39 -10l-94 -8h-600zM264 133h469q117 6 164 33q27 16 48.5 65.5t21.5 188.5v596q0 223 -68 254q-39 25 -145 33l-490 2v-1172z" />
<glyph unicode="e" d="M178 420v596q0 186 42 272t153.5 115t355.5 31h322v-131h-504l-27 -3q-100 -8 -147 -30q-66 -37 -66 -254v-230h744v-139h-744v-227q0 -215 70 -254q45 -25 166 -35h508v-131l-510 2l-95 8l-36 8l-50 17q-90 31 -136 113.5t-46 271.5z" />
<glyph unicode="f" d="M178 0v1014q0 197 49 283.5t153.5 110.5t328.5 26h342v-134h-504l-27 -2q-98 -6 -147 -28q-29 -21 -48.5 -74t-19.5 -182v-226h746v-141h-746v-647h-127z" />
<glyph unicode="g" d="M106 371v692q6 111 28 175.5t67 102.5q31 33 94 58q49 16 138 25.5t181 9.5q90 0 180.5 -8.5t137.5 -24.5q57 -23 96 -55q43 -39 65.5 -104.5t26.5 -174.5l2 -29l-131 27v14q-6 102 -33 154q0 4 -31.5 21.5t-108.5 34t-204 16.5q-160 0 -244.5 -25t-101.5 -49 q-25 -45 -32 -156v-717q8 -111 32 -155q16 -25 101.5 -49.5t244.5 -24.5q127 0 204 16.5t108.5 34t31.5 21.5q27 51 33 153v244h-397v141h526v-370q-4 -109 -26.5 -175.5t-65.5 -105.5q-39 -33 -96 -55q-49 -14 -140.5 -23.5t-177.5 -9.5q-88 0 -179 9t-140 26 q-59 22 -94 57q-45 39 -66.5 103.5t-28.5 175.5z" />
<glyph unicode="h" d="M170 0v1434h125v-682h637v682h127v-1434h-125l-2 614h-637v-614h-125z" />
<glyph unicode="i" horiz-adv-x="614" d="M244 0v1434h127v-1434h-127z" />
<glyph unicode="j" d="M111 391l2 -29q6 -111 27.5 -174t64.5 -102q43 -37 94 -53q47 -16 136 -24.5t179 -8.5q88 0 177.5 8t136.5 25q57 18 96 57q43 41 64.5 106.5t27.5 172.5v1065h-612v-129h483v-951q-6 -111 -33 -155q-16 -23 -100 -48.5t-240 -25.5q-127 0 -202.5 16.5t-107.5 35 t-32 22.5q-27 45 -34 151v15z" />
<glyph unicode="k" d="M94 0v1434h127v-1170l678 1170h145l-370 -646l459 -788h-150l-383 659l-389 -659h-117z" />
<glyph unicode="l" d="M154 371v1063h131v-1078q10 -119 32 -151q14 -25 100.5 -51.5t246.5 -26.5h409v-127h-409q-94 0 -183.5 8t-136.5 25q-55 16 -96 57q-45 41 -66.5 105.5t-27.5 175.5z" />
<glyph unicode="m" d="M123 0v1434h115l47 -68l329 -573l330 573l45 68h115v-1434h-123v1180l-307 -531h-119l-307 531v-1180h-125z" />
<glyph unicode="n" d="M172 0v1434h100l660 -1141v1141h127v-1434h-101l-659 1143v-1143h-127z" />
<glyph unicode="o" d="M109 371v690q6 111 27.5 177.5t64.5 104.5q41 37 96 56q47 16 137 25.5t180 9.5q92 0 181.5 -9.5t136.5 -25.5q53 -16 96 -53q43 -39 64.5 -104.5t27.5 -176.5v-696q-6 -111 -27.5 -176.5t-64.5 -104.5q-43 -37 -96 -53q-47 -16 -136 -25.5t-182 -9.5q-90 0 -180 9 t-137 26q-55 18 -96 55q-43 39 -64.5 105.5t-27.5 175.5zM238 356q6 -102 32 -153q16 -23 101.5 -49.5t242.5 -26.5q147 0 250 29l-606 1046q-14 -41 -20 -129v-717zM365 1278l606 -1051q18 49 20 125v727q-6 111 -33 152q0 4 -31.5 23.5t-107.5 36t-205 16.5 q-147 0 -249 -29z" />
<glyph unicode="p" d="M133 0v1434h408q246 -2 358.5 -32t153.5 -116t41 -272q0 -187 -46.5 -271t-138.5 -112l-45 -17l-39 -8l-92 -8l-471 -2v-596h-129zM262 729h467q113 2 166 33q68 35 68 252q0 131 -18.5 186t-49.5 68q-61 35 -172 35h-461v-574z" />
<glyph unicode="q" d="M106 369v692l3 22v9q8 111 41 182q18 43 51 69q35 35 96 58q45 14 121 22q74 10 196 11q119 0 193 -11q66 -4 127 -22q57 -18 94 -53q37 -33 53 -76q31 -63 39 -182q2 -7 2 -14v-9v-698q-6 -82 -18 -142q-10 -43 -25 -69q-14 -37 -51 -72q-8 -8 -41 -27.5t-53 -25.5 l-10 -2q20 -20 51 -28.5t88 -8.5l59 -113q2 -4 -17.5 -8t-47.5 -4q-133 0 -242 90q-16 12 -43 47q-76 -6 -158 -6q-229 0 -317 35q-59 18 -96 55q-53 47 -74 137q-12 41 -21 142zM236 356q4 -45 8 -63q6 -55 26 -90q6 -12 44 -30.5t114 -32t186 -13.5q129 0 205 16.5t112 37 t30 20.5q14 29 26 94q4 36 4 59v727q-2 55 -14 111q-8 23 -19 41q0 2 -19 15.5t-65.5 27.5t-123.5 22q-45 6 -136 7q-104 0 -151 -7q-88 -12 -137.5 -32.5t-55.5 -34.5q-10 -14 -16 -37q-12 -35 -18 -119v-719z" />
<glyph unicode="r" d="M113 0v1434h430q223 0 327.5 -24t153.5 -112t49 -282q0 -190 -45 -272t-137 -113l-45 -17l-12 -4l284 -610h-141l-279 598l-454 -2v-596h-131zM244 727h469q113 6 164 35q27 16 48 65.5t21 188.5q0 219 -67 252q-39 23 -146 32l-489 3v-576z" />
<glyph unicode="s" d="M111 371v41h129v-56q6 -102 32 -153q8 -12 46 -29.5t114 -32t186 -14.5h23h23q41 0 89 6t66 10q66 12 99.5 28.5t42.5 29.5q27 39 36 153v76q-8 106 -36 152q0 4 -32 21.5t-108 33.5t-203 16q-90 0 -153 9q-121 10 -164 24q-53 16 -98 57q-43 39 -64.5 105.5t-27.5 175.5 v39q6 109 27.5 175.5t64.5 104.5q43 35 98 56q47 16 136 25.5t181 9.5q90 0 179.5 -9.5t138.5 -25.5q59 -23 94 -53q45 -39 66.5 -104.5t25.5 -174.5v-27h-125v39q-10 117 -36 152q0 4 -32 22.5t-108 35t-203 16.5q-160 0 -245.5 -26t-100.5 -50q-27 -47 -32 -156v-65 q6 -98 32 -154q14 -23 101.5 -48.5t244.5 -25.5q86 0 176.5 -9t141.5 -23q51 -16 84 -48l16 -16q41 -39 61.5 -102.5t24.5 -169.5v-43q-4 -106 -24.5 -170t-61.5 -105l-4 -6l-8 -6q-6 -8 -35 -27l-53 -22q-45 -10 -66 -15q-61 -10 -96 -12q-45 -4 -69 -4h-7q-29 -2 -80 -2 q-92 0 -181 9t-136 26q-57 16 -98 55t-62.5 102.5t-27.5 165.5z" />
<glyph unicode="t" d="M104 1294v140h1020v-140h-444v-1294h-137v1294h-439z" />
<glyph unicode="u" d="M104 373v1061h129v-1076q8 -111 35 -153q14 -25 100.5 -50.5t245.5 -25.5q129 0 207 16.5t110 35t32 22.5q25 41 32 153v1078h129v-1063q-4 -111 -26.5 -177.5t-67.5 -105.5q-37 -33 -96 -55q-47 -16 -138 -24.5t-182 -8.5q-90 0 -180 9t-139 26q-59 18 -96 55 q-45 39 -66.5 105.5t-28.5 177.5z" />
<glyph unicode="v" d="M109 770v664h129v-637l36 -58l342 -589l377 645v639h129v-650l-112 -209l-342 -575h-115z" />
<glyph unicode="w" d="M123 0v1434h125v-1180l305 532h123l307 -532v1180h123v-1434h-115l-45 68l-332 571l-329 -569l-47 -70h-115z" />
<glyph unicode="x" d="M152 0v383q6 109 26.5 173.5t61.5 102.5l18 17q6 6 18 14h3q-8 4 -12.5 8t-8.5 7l-18 16q-41 39 -61.5 103.5t-26.5 170.5v439h131v-453q6 -109 32 -154q12 -18 87 -42.5t214 -28.5q96 2 163 16t99.5 29.5t39.5 25.5q25 45 32 154v453h129v-437q-4 -106 -24.5 -170.5 t-61.5 -105.5l-20 -16l-19 -15q12 -8 19 -14l20 -17q41 -41 61.5 -105.5t24.5 -168.5v-385h-129v401q-8 106 -32 152q-16 18 -90 43t-214 31q-139 -6 -212.5 -31t-86.5 -43q-27 -45 -32 -154v-399h-131z" />
<glyph unicode="y" d="M172 1051v383h125v-398q6 -102 33 -149q41 -74 284 -74q246 0 285 72q27 47 33 147v402h125v-387q-8 -150 -48 -220.5t-135 -103.5q-74 -25 -190 -31v-692h-123v690q-131 6 -207 33q-92 33 -133 105.5t-49 222.5z" />
<glyph unicode="z" d="M106 1040l3 23q6 109 27.5 175.5t64.5 104.5q41 37 96 56q47 16 137 25.5t180 9.5t181.5 -8.5t138.5 -24.5l4 -2q57 -25 80 -45l14 -13l-682 -1181q98 -33 264 -33q182 0 253 26.5t94 49.5q25 39 32 151v58h129v-43q-6 -111 -27.5 -177.5t-64.5 -105.5q-37 -31 -96 -53 q-47 -16 -138 -24.5t-182 -8.5q-90 0 -180 8t-137 25l-27 12l-6 4q-35 16 -63 41l-13 12l-8 11l2 12l2 4v2l666 1153q-96 23 -236 23q-158 0 -242.5 -27t-101.5 -49q-27 -45 -32 -156v-35h-132z" />
<glyph unicode="&#xa0;" />
<glyph unicode="&#xad;" />
<glyph unicode="&#x2000;" horiz-adv-x="717" />
<glyph unicode="&#x2001;" horiz-adv-x="1434" />
<glyph unicode="&#x2002;" horiz-adv-x="717" />
<glyph unicode="&#x2003;" horiz-adv-x="1434" />
<glyph unicode="&#x2004;" horiz-adv-x="478" />
<glyph unicode="&#x2005;" horiz-adv-x="358" />
<glyph unicode="&#x2006;" horiz-adv-x="239" />
<glyph unicode="&#x2007;" horiz-adv-x="239" />
<glyph unicode="&#x2008;" horiz-adv-x="179" />
<glyph unicode="&#x2009;" horiz-adv-x="286" />
<glyph unicode="&#x200a;" horiz-adv-x="79" />
<glyph unicode="&#x2010;" />
<glyph unicode="&#x2011;" />
<glyph unicode="&#x2012;" />
<glyph unicode="&#x2013;" />
<glyph unicode="&#x2014;" d="M106 649h1016v135h-1016v-135z" />
<glyph unicode="&#x202f;" horiz-adv-x="286" />
<glyph unicode="&#x205f;" horiz-adv-x="358" />
<glyph unicode="&#x25fc;" horiz-adv-x="1433" d="M0 0v1434h1434v-1434h-1434z" />
</font>
</defs>
</svg>
