<?xml version="1.0" standalone="no"?>
<!DOCTYPE svg PUBLIC "-//W3C//DTD SVG 1.1//EN" "http://www.w3.org/Graphics/SVG/1.1/DTD/svg11.dtd" >
<svg xmlns="http://www.w3.org/2000/svg" xmlns:xlink="http://www.w3.org/1999/xlink" version="1.1">
<metadata></metadata>
<defs>
<font id="katarina_fontregular" horiz-adv-x="1024" >
<font-face units-per-em="2048" ascent="1536" descent="-512" />
<missing-glyph horiz-adv-x="500" />
<glyph horiz-adv-x="0" />
<glyph unicode="&#xd;" />
<glyph horiz-adv-x="0" />
<glyph horiz-adv-x="0" />
<glyph unicode=" " />
<glyph unicode="!" horiz-adv-x="409" d="M0 57v105q0 6 8 6q6 0 6 -6v-105q0 -8 -6 -8q-8 0 -8 8zM0 412v934q0 8 8 8q6 0 6 -8v-934q0 -9 -6 -9q-8 0 -8 9zM2 51q-4 8 2 10q2 6 8 0l64 -63q4 -6 0 -10q-2 -2 -6 -2t-4 2zM2 166l64 65q4 4 10 0q4 -6 0 -10l-64 -63q0 -4 -4 -4l-4 2q-6 6 -2 10zM2 406q-4 8 2 10 q2 6 8 0l64 -64q4 -6 0 -10q-2 -2 -6 -2t-4 2zM2 1352l64 63q4 4 10 0q4 -4 0 -10l-64 -64q0 -2 -4 -2t-4 2q-6 2 -2 11zM66 -2l61 63q4 4 10 0q4 -4 0 -10l-61 -63q-2 -2 -6 -2t-4 2q-6 4 0 10zM66 221q-10 4 0 10q4 4 10 0l61 -65q4 -4 0 -10q-2 0 -3 -1t-3 -1q-4 0 -4 4z M66 342q-6 4 0 10l61 64q4 4 10 0q4 -4 0 -10l-61 -64q-2 -2 -6 -2t-4 2zM66 1405q-6 6 0 10q4 4 10 0l61 -63q4 -6 0 -11q-2 -2 -6 -2t-4 2zM125 57v105q0 6 6 6q8 0 8 -6v-105q0 -8 -8 -8q-6 0 -6 8zM125 412v934q0 8 6 8q8 0 8 -8v-934q0 -9 -8 -9q-6 0 -6 9z" />
<glyph unicode="&#x22;" horiz-adv-x="1705" />
<glyph unicode="(" horiz-adv-x="491" d="M0 367v667q0 8 8 8q6 0 6 -8v-667q0 -7 -6 -7q-8 0 -8 7zM2 362q-4 8 2 11q8 4 10 -2l252 -375q4 -8 -2 -10q-2 -2 -4 -2t-6 4zM2 1038l252 375q4 8 10 2q6 -2 2 -10l-252 -375q-2 -2 -6 -2h-4q-6 2 -2 10zM94 227v947q0 6 8 6q6 0 7 -6v-947q-1 -6 -7 -6q-8 0 -8 6z" />
<glyph unicode=")" horiz-adv-x="450" d="M-2 -8l252 375q4 8 10 2q6 -2 2 -11l-252 -374q-4 -4 -6 -4t-4 2q-6 2 -2 10zM-2 1401q-4 8 2 10q8 4 10 -2l252 -375q4 -8 -2 -10q-2 -2 -4 -2t-6 4zM156 223v946q0 6 8 7q6 0 6 -7v-946q0 -6 -6 -6q-8 0 -8 6zM250 362v668q0 6 6 6q8 0 8 -6v-668q0 -6 -8 -6q-6 0 -6 6 z" />
<glyph unicode="," horiz-adv-x="491" d="M0 72v104q0 6 8 6q6 0 6 -6v-104q0 -9 -6 -9q-8 0 -8 9zM2 66q-4 8 2 10q2 6 8 0l64 -64q4 -6 0 -10q-2 -2 -6 -2t-4 2zM2 180l64 66q4 4 10 0q4 -6 0 -10l-64 -64q0 -4 -4 -4l-4 2q-6 6 -2 10zM63 6q0 8 7 8q8 0 8 -8v-174q0 -6 -8 -6q-6 0 -7 6v174zM66 -162l61 64 q4 6 10 0q4 -4 0 -11l-61 -63q-2 -2 -6 -2t-4 2q-6 4 0 10zM66 236q-10 4 0 10q4 4 10 0l61 -66q4 -4 0 -10q-2 0 -3 -1t-3 -1q-4 0 -4 4zM125 -102v278q0 6 6 6q8 0 8 -6v-278q0 -9 -8 -9q-6 0 -6 9z" />
<glyph unicode="." horiz-adv-x="450" d="M0 63v105q0 6 8 6q6 0 6 -6v-105q0 -8 -6 -8q-8 0 -8 8zM2 57q-4 8 2 11q2 6 8 0l64 -64q4 -6 0 -10q-2 -2 -6 -2t-4 2zM2 172l64 66q4 4 10 0q4 -6 0 -11l-64 -63q0 -4 -4 -4l-4 2q-6 6 -2 10zM66 4l61 64q4 4 10 0q4 -4 0 -11l-61 -63q-2 -2 -6 -2t-4 2q-6 4 0 10z M66 227q-10 4 0 11q4 4 10 0l61 -66q4 -4 0 -10q-2 0 -3 -1t-3 -1q-4 0 -4 4zM125 63v105q0 6 6 6q8 0 8 -6v-105q0 -8 -8 -8q-6 0 -6 8z" />
<glyph unicode="0" horiz-adv-x="854" d="M2 92v1215q0 8 8 8t8 -8v-1215q0 -8 -8 -8t-8 8zM4 96q6 10 10 2q68 -47 146 -70.5t157.5 -23.5t156.5 23.5t144 70.5q8 4 13 -2q4 -8 -2 -12q-140 -96 -312 -96q-86 0 -163.5 25.5t-147.5 72.5q-6 2 -2 10zM4 1300q-4 8 2 13q70 47 147.5 72.5t163.5 25.5t164 -25.5 t148 -72.5q6 -2 2 -10q-4 -6 -13 -3q-68 47 -144.5 70t-156 23t-157.5 -23.5t-146 -71.5h-4q-4 0 -6 2zM96 39v1319q0 8 8 8t9 -8v-1319q-1 -8 -9 -8t-8 8zM522 39v1319q0 8 8 8t9 -8v-1319q-1 -8 -9 -8t-8 8zM614 92v1215q0 8 9 8q8 0 8 -8v-1215q0 -8 -8 -8t-9 8z" />
<glyph unicode="1" horiz-adv-x="696" d="M-14 967q-6 4 0 10l487 442q6 6 12 0q2 -6 0 -12l-487 -442q-2 0 -3 -1t-3 -1t-6 4zM330 131v1155q0 8 8 8t8 -8v-1155q0 -8 -8 -8t-8 8zM332 125q-6 4 0 10t12 2l141 -129q4 -4 0 -12q-2 -2 -6 -2t-6 2zM471 2v1411q0 8 8 8t8 -8v-1411q0 -8 -8 -8t-8 8z" />
<glyph unicode="2" horiz-adv-x="942" d="M-10 0q0 8 8 8h872q8 0 9 -8q-1 -8 -9 -8h-872q-8 0 -8 8zM-8 4l102 148q4 6 12 2q6 -4 3 -13l-105 -147q0 -2 -6 -2h-4q-6 6 -2 12zM49 1042q0 45 8 80q18 76 63.5 137.5t108 101.5t136 54.5t151.5 -4.5q76 -16 137.5 -60t102.5 -110q86 -133 51 -289q-4 -6 -8 -6h-2 q-4 0 -6.5 3t0.5 7q16 72 3.5 142.5t-51.5 134.5q-41 61 -99 103t-130 59q-74 16 -145.5 2.5t-132 -51t-103.5 -96t-59 -132.5q-4 -18 -6 -37.5t-2 -38.5q0 -8 -9 -8q-8 0 -8 8zM92 147q0 8 8 9h682q8 0 9 -9q-1 -8 -9 -8h-682q-8 0 -8 8zM94 152q29 41 60.5 80.5t66.5 78.5 q41 45 87 85t100 83l16 13q55 47 111.5 95t107.5 101q23 25 41 47.5t35 44.5q23 35 39 70t24 70q4 10 5 18t4 16q0 8 8 9q8 -2 8 -11q-2 -10 -3 -18t-5 -19q-18 -72 -66 -143q-35 -47 -78 -96q-51 -53 -107 -101.5t-114 -95.5l-16 -12q-53 -43 -98.5 -83t-86.5 -85 q-35 -37 -65.5 -77t-58.5 -81q-3 -2 -9 -2h-4q-6 6 -2 13zM774 143q-6 6 4 11q8 4 10 -2l89 -148q4 -6 -3 -12h-4q-6 0 -8 4z" />
<glyph unicode="3" horiz-adv-x="942" d="M39 221v4q-4 8 2 11q8 4 12 -3v-4q49 -90 153.5 -149.5t233.5 -71.5q86 -8 161 10.5t128 61.5q70 55 109 149q16 43 23 91.5t5 107.5q-2 31 -7 73t-17.5 85t-35 83t-56.5 68q-35 27 -80 41.5t-92 26.5q-6 2 -7 10q2 6 11 6q47 -12 94 -27.5t84 -43.5q37 -29 60.5 -71 t36.5 -87t18.5 -88t7.5 -76q2 -117 -31 -205q-18 -47 -48 -88t-65 -69q-98 -76 -250 -76h-24t-27 2q-61 6 -120.5 24.5t-112.5 46.5q-113 61 -166 158zM82 1405q0 8 8 8h705q8 0 8 -8t-8 -8h-705q-8 0 -8 8zM84 1401q-6 4 0 10t12 0l103 -111q4 -8 -2 -12q0 -2 -4 -2t-7 2z M184 1294q0 8 9 9h516q8 0 8 -9q0 -8 -8 -8h-516q-8 0 -9 8zM326 813q0 8 8 8h246q8 0 8 -8t-8 -8h-246q-8 0 -8 8zM328 817l460 594q6 6 13 0q4 -6 0 -10l-461 -592q0 -4 -6 -4q-2 0 -4 2q-8 4 -2 10z" />
<glyph unicode="4" d="M152 623q0 8 8 8h489q8 0 8 -8q0 -9 -8 -9h-489q-8 0 -8 9zM154 627l489 790q4 8 10 4q10 -4 2 -12l-487 -791q-4 -4 -8 -4q-2 0 -4 2q-6 2 -2 11zM641 2v1411q0 8 8 8t8 -8v-1411q0 -8 -8 -8t-8 8zM643 -4q-4 8 0 12l141 129q6 4 13 -2q4 -6 0 -10l-142 -129 q-2 -2 -6 -2t-6 2zM643 1407q-4 6 0 12q6 6 12 0l142 -127q2 -6 0 -12q-2 -2 -6 -2t-7 2zM782 131v1155q0 8 9 8q8 0 8 -8v-1155q0 -8 -8 -8t-9 8z" />
<glyph unicode="5" horiz-adv-x="942" d="M10 197q-4 6 2 12t11 -2q35 -43 72.5 -84t84.5 -70q57 -33 123 -41t121 -10q211 -2 305 74q35 27 59.5 63.5t47.5 75.5q6 6 12 2t2 -12q-23 -39 -49.5 -76t-61.5 -66q-96 -77 -297 -77h-18q-57 2 -125 10t-127 43q-47 29 -86 71t-76 87zM57 895v510q0 8 9 8q8 0 8 -8 v-510q0 -8 -8 -8t-9 8zM57 895q0 8 9 8h475q8 0 8 -8t-8 -8h-475q-8 0 -9 8zM57 1405q0 8 9 8h632q8 0 9 -8q-1 -8 -9 -8h-632q-8 0 -9 8zM532 895q0 8 9 8q33 0 73 -10q10 0 7 -10q-1 -6 -9 -6h-2q-16 6 -34.5 8t-34.5 2q-8 0 -9 8zM604 887q4 10 10 6q25 -6 50.5 -15.5 t48.5 -19.5q6 -6 2 -12q0 -4 -6 -4q-2 0 -4 2q-23 10 -47.5 18t-47.5 15q-6 2 -6 10zM699.5 849q-1.5 3 2.5 5q6 10 11 2q41 -31 78.5 -71t58.5 -121q4 -6 -4 -11h-2q-8 0 -8 6q-20 78 -55.5 116t-75.5 69q-4 2 -5.5 5zM700 51v799q0 8 9 8q8 0 8 -8v-799q0 -8 -8 -8t-9 8z M836 211v451q0 8 8 8t8 -8v-451q0 -8 -8 -8t-8 8z" />
<glyph unicode="6" horiz-adv-x="1105" d="M2 430v590q0 8 8 8t8 -8v-590q0 -8 -8 -8t-8 8zM2 1020q2 119 67.5 217t176.5 145q76 33 155.5 32t150.5 -29.5t128 -83t90 -130.5q4 -10 -4 -10q-6 -4 -10 4q-31 74 -86.5 126t-124 80t-144 28t-149.5 -31q-104 -47 -168 -140t-66 -208q0 -8 -8 -8t-8 8zM6 487 q10 90 54 166t116 129q72 55 156 78t172 12q90 -12 165.5 -55t129.5 -115q8 -8 0 -12q-6 -4 -13 2q-53 70 -127.5 111t-156.5 52t-165 -10.5t-153 -74.5t-110.5 -128t-52 -157t10 -164.5t74.5 -152.5q55 -70 130 -111t156 -52t164 10.5t153 74.5q43 35 77 78q6 6 13 2 q8 -4 0 -12q-16 -23 -37 -43.5t-43 -36.5q-120 -92 -270 -92h-29.5t-30.5 2q-88 12 -165 55t-130 115t-76.5 155.5t-11.5 173.5zM682 68v725q0 8 8 8t8 -8v-725q0 -9 -8 -9t-8 9zM784 164v532q0 8 9 9q8 0 8 -9v-532q0 -8 -8 -8t-9 8z" />
<glyph unicode="7" horiz-adv-x="819" d="M4 1399q0 8 8 8h791q8 0 8 -8t-8 -8h-791q-8 0 -8 8zM29 840q0 8 8 8h377q8 0 8 -8q0 -9 -8 -9h-377q-8 0 -8 9zM141 240q0 8 9 8q8 4 8 -6l30 -252q4 -10 -6 -10h-2q-4 0 -8 8zM143 244l510 1159q4 8 11 4q8 -4 4 -10l-510 -1159q-4 -7 -8 -7l-3 2q-8 4 -4 11zM174 -8 l623 1411q0 8 10 4q8 -4 4 -10l-623 -1413q-4 -4 -8 -4h-2q-8 4 -4 12z" />
<glyph unicode="8" horiz-adv-x="983" d="M5 381q-9 86 15 172q25 86 80.5 152.5t132.5 107.5q78 43 163 52t171 -17q86 -25 153.5 -79t108.5 -132q4 -8 -4 -12q-6 -4 -10 4q-41 74 -105.5 127t-146.5 78q-82 23 -165 14.5t-156 -49.5q-76 -41 -128.5 -105.5t-76.5 -146.5q-25 -80 -16.5 -163t49.5 -159 q41 -78 107.5 -129t144 -74.5t160.5 -16.5t161 50q113 59 172 170q4 8 10 4q8 -4 4 -12q-63 -117 -178 -176q-49 -29 -102.5 -41t-106.5 -12q-63 0 -125 18q-86 25 -153.5 79t-108.5 132t-50 164zM184 1014v243q0 8 9 9q8 0 8 -9v-243q0 -8 -8 -8t-9 8zM186 1010q-4 8 4 12 q6 4 11 -4q25 -49 65.5 -84t90 -52.5t102.5 -14.5t102 28q47 23 83 62.5t52 91.5q18 51 14.5 104t-26.5 100q-25 49 -63.5 85t-92.5 53q-104 35 -204 -13q-80 -41 -123 -125q-2 -6 -11 -2q-8 4 -4 11q20 43 54 75.5t77 55.5q51 25 107.5 28.5t110.5 -16.5q113 -39 163 -143 q51 -106 15 -220q-37 -111 -146 -163q-62 -29 -125 -29q-78 0 -148.5 42t-107.5 118zM293 897v477q0 8 8 8t8 -8v-477q0 -8 -8 -8t-8 8zM684 76v702q0 8 8 8t8 -8v-702q0 -8 -8 -8t-8 8zM813 221v412q0 8 8 8t8 -8v-412q0 -8 -8 -8t-8 8z" />
<glyph unicode="9" horiz-adv-x="827" d="M2 279q0 8 8 8q8 -4 8 -11q-2 -55 21.5 -105t66.5 -85q8 -4 3 -10q-5 -4 -9 -4q-2 0 -4 2q-47 39 -71.5 92t-22.5 113zM27.5 1109.5q-2.5 57.5 15.5 112t55 98.5t92 71q53 27 111.5 30.5t114.5 -16.5q57 -18 100 -57t70 -93q4 -6 -4 -10q-6 -4 -11 4q-25 51 -65.5 87 t-93.5 55q-106 37 -213 -15q-51 -25 -87 -66.5t-53.5 -93t-14.5 -106.5t28 -106q25 -49 65.5 -86t93.5 -56q53 -16 107.5 -13t105.5 28q86 41 127 127q4 8 11 4q8 -4 4 -11q-43 -92 -135 -135q-61 -31 -129 -31q-47 0 -97 17q-55 18 -99 57t-69 92q-27 55 -29.5 112.5z M96 74q-6 6 0 12q4 4 10 0q41 -39 91.5 -58.5t102.5 -18.5t102.5 20.5t91.5 60.5q76 80 75 191q0 8 9 8q8 0 8 -8q0 -119 -82 -201q-41 -45 -95.5 -66.5t-111.5 -21.5q-53 0 -106.5 20.5t-94.5 61.5zM467 885v483q0 8 8 8t8 -8v-483q0 -8 -8 -8t-8 8zM569 281v720q0 8 9 9 q8 0 8 -9v-720q0 -9 -8 -9t-9 9zM569 1001v252q0 8 9 9q8 0 8 -9v-252q0 -8 -8 -8t-9 8z" />
<glyph unicode=":" horiz-adv-x="450" d="M-2 57v105q0 6 8 6q6 0 6 -6v-105q0 -8 -6 -8q-8 0 -8 8zM-2 524v105q0 8 8 8q6 0 6 -8v-105q0 -6 -6 -6q-8 0 -8 6zM0 51q-4 8 2 10q2 6 8 0l64 -63q4 -6 0 -10q-2 -2 -6 -2t-5 2zM0 166l63 65q4 4 11 0q4 -6 0 -10l-64 -63q0 -4 -4 -4l-4 2q-6 6 -2 10zM0 520 q-4 4 2 10q4 4 8 -2l64 -63q4 -6 0 -10q-2 -2 -6 -2t-5 2zM0 635l63 63q4 6 11 0q4 -4 0 -10l-64 -63q0 -2 -4 -2t-4 2q-6 2 -2 10zM63 -2l62 63q4 4 10 0q4 -4 0 -10l-61 -63q-2 -2 -6 -2t-5 2q-6 4 0 10zM63 221q-10 4 0 10q4 4 11 0l61 -65q4 -4 0 -10q-2 0 -3 -1t-3 -1 q-4 0 -4 4zM63 455q-10 4 0 10l62 63q2 6 10 2q4 -6 0 -10l-61 -65q-2 -2 -6 -2t-5 2zM63 688q-6 6 0 10q4 6 11 0l61 -63q4 -6 0 -10q-2 -2 -6 -2t-4 2zM123 57v105q0 6 6 6q8 0 8 -6v-105q0 -8 -8 -8q-6 0 -6 8zM123 524v105q0 8 6 8q8 0 8 -8v-105q0 -6 -8 -6q-6 0 -6 6z " />
<glyph unicode=";" horiz-adv-x="573" d="M0 59v105q0 6 8 6q6 0 6 -6v-105q0 -8 -6 -8q-8 0 -8 8zM0 526v105q0 8 8 8q6 0 6 -8v-105q0 -6 -6 -6q-8 0 -8 6zM2 53q-4 8 2 10q2 6 8 0l64 -63q4 -6 0 -10q-2 -2 -6 -2t-4 2zM2 168l64 65q4 4 10 0q4 -6 0 -10l-64 -63q0 -4 -4 -4l-4 2q-6 6 -2 10zM2 522q-4 4 2 10 q4 4 8 -2l64 -63q4 -6 0 -10q-2 -2 -6 -2t-4 2zM2 637l64 63q4 6 10 0q4 -4 0 -10l-64 -63q0 -2 -4 -2t-4 2q-6 2 -2 10zM63 -6q0 8 7 8q8 0 8 -8v-174q0 -6 -8 -6q-6 0 -7 6v174zM66 -174l61 63q4 6 10 0q4 -4 0 -10l-61 -63q-2 -2 -6 -2t-4 2q-6 4 0 10zM66 223 q-10 4 0 10q4 4 10 0l61 -65q4 -4 0 -10q-2 0 -3 -1t-3 -1q-4 0 -4 4zM66 457q-10 4 0 10l61 63q2 6 10 2q4 -6 0 -10l-61 -65q-2 -2 -6 -2t-4 2zM66 690q-6 6 0 10q4 6 10 0l61 -63q4 -6 0 -10q-2 -2 -6 -2t-4 2zM125 -115v279q0 6 6 6q8 0 8 -6v-279q0 -8 -8 -8q-6 0 -6 8 zM125 526v105q0 8 6 8q8 0 8 -8v-105q0 -6 -8 -6q-6 0 -6 6z" />
<glyph unicode="?" horiz-adv-x="860" d="M-2 186q0 8 8 9q143 14 269 84.5t214 187.5q4 4 11 0q4 -4 0 -10q-88 -117 -217.5 -190t-276.5 -87q-6 0 -8 6zM-2 1405q2 6 8 6q147 -14 276.5 -87t217.5 -189q4 -6 0 -11q-2 -2 -6 -2t-5 2q-88 117 -213.5 187.5t-269.5 85.5q-8 0 -8 8zM188 51v105q0 6 9 6q6 0 6 -6 v-105q0 -8 -6 -8q-8 0 -9 8zM190 45q-4 6 0 10t11 0l61 -63q6 -6 0 -10q0 -2 -4 -2t-6 2zM190 150q-4 6 0 10l62 65q6 4 10 0q10 -6 0 -10l-61 -63q0 -5 -4 -5q-2 0 -3 1.5t-4 1.5zM252 -8l63 63q6 6 9 0q6 -2 2 -10l-64 -63q0 -2 -4 -2t-6 2q-4 4 0 10zM252 215q-6 4 0 10 q6 4 10 0l64 -65q4 -4 -2 -10q-3 -3 -5 -3q-4 0 -4 5zM313 51v105q0 6 6 6q8 0 9 -6v-105q-1 -8 -9 -8q-6 0 -6 8zM393 360v871q0 6 8 6q6 0 7 -6v-871q-1 -8 -7 -8q-8 0 -8 8zM487 463v665q0 8 7 9q8 0 8 -9v-665q0 -8 -8 -8q-6 0 -7 8z" />
<glyph unicode="A" horiz-adv-x="1105" d="M-129 0l498 1413q4 8 10 4q10 -4 6 -10l-498 -1411q-4 -6 -8 -6h-2q-6 2 -6 10zM127 725q0 8 8 8h488q8 0 8 -8t-8 -8h-488q-8 0 -8 8zM369 1407q0 6 6 10t10 -4l508 -1413q4 -6 -4 -10h-4q-6 0 -8 6zM369 1413q4 8 10 4l168 -59q8 -4 4 -12q-4 -5 -8 -5h-2l-166 62 q-6 0 -6 10zM535 1346q0 8 6 12q6 0 10 -6l422 -1198q4 -6 -4 -11h-4q-6 0 -9 7zM879 2l79 154q4 8 11 4q8 -4 4 -13l-80 -153q-4 -4 -8 -4h-4q-6 6 -2 12z" />
<glyph unicode="B" d="M-2 129v1155q0 8 8 8t8 -8v-1155q0 -8 -8 -8t-8 8zM0 123q-6 4 0 10t12 2l142 -129q4 -4 0 -12q-3 -2 -7 -2t-6 2zM0 1278q-4 6 0 12l141 127q6 6 13 0q2 -6 0 -12l-142 -127q-2 -2 -6 -2t-6 2zM139 0v1411q0 8 8 8t9 -8v-1411q-1 -8 -9 -8t-8 8zM139 0q0 8 8 8h289 q8 0 8 -8t-8 -8h-289q-8 0 -8 8zM139 791q0 8 8 8h289q8 0 8 -8q0 -9 -8 -9h-289q-8 0 -8 9zM139 1411q0 8 8 8h142q8 0 8 -8t-8 -8h-142q-8 0 -8 8zM281 791q0 8 8 8q63 0 118.5 23.5t96.5 64.5t64.5 96t23.5 119q0 61 -23.5 116.5t-64.5 96.5t-96.5 64.5t-118.5 23.5 q-8 0 -8 8t8 8q66 0 124 -25.5t101 -68.5t68.5 -100.5t25.5 -122.5q0 -66 -25.5 -124t-68.5 -101t-101 -69t-124 -26q-8 0 -8 9zM428 0q0 8 8 8q80 0 150.5 31t123 83t83 122.5t30.5 150.5t-30.5 150.5t-83 123t-123 83t-150.5 30.5q-8 0 -8 9q0 8 8 8q84 0 158 -32t128 -87 t86 -129t32 -156q0 -84 -32 -157.5t-86 -128t-128 -86t-158 -31.5q-8 0 -8 8z" />
<glyph unicode="C" horiz-adv-x="1187" d="M2 256v891q0 8 8 8t8 -8v-891q0 -8 -8 -8t-8 8zM4 250q-6 4 0 10t12 2l142 -131q8 -4 2 -10q-4 -4 -6 -4t-3 1t-4 1zM4 1141q-4 6 0 12l143 129q6 2 13 0q4 -8 -2 -12l-142 -129q-2 -2 -6 -2t-6 2zM129 1253q-6 6 0 13q35 35 76 60.5t86 45.5q101 43 209 44h6 q105 0 205 -40q102 -41 179 -115.5t120 -177.5q4 -6 -4 -10q-2 0 -2.5 -1t-2.5 -1q-6 0 -8 6q-43 100 -118.5 173t-171 111t-201.5 39h-4q-103 0 -201 -42q-88 -41 -158 -105q-6 -10 -10 0zM145 125v1151q0 8 9 8q8 0 8 -8v-1151q0 -8 -8 -8t-9 8zM147 119q-6 6 0 12 q4 10 11 0q82 -71 183 -103q83 -26 166 -26q19 0 37 1q102 7 197 52t166 129q55 63 86 140q2 6 13 6q8 -4 4 -13q-35 -78 -90 -143q-72 -84 -168.5 -131t-206.5 -55q-10 -2 -19.5 -2h-19.5q-98 0 -190.5 33.5t-168.5 99.5z" />
<glyph unicode="D" horiz-adv-x="1146" d="M0 119v1155q0 8 8 8t8 -8v-1155q0 -8 -8 -8t-8 8zM2 113q-6 4 0 10t12 2l142 -129q4 -4 0 -12q-2 -2 -6 -2t-7 2zM2 1268q-4 6 0 12l141 127q6 6 13 0q2 -6 0 -12l-142 -127q-2 -2 -6 -2t-6 2zM141 -10v1411q0 8 9 8q8 0 8 -8v-1411q0 -8 -8 -8t-9 8zM141 -10q0 8 9 8 h141q8 0 8 -8t-8 -8h-141q-8 0 -9 8zM141 1401q0 8 9 8h141q8 0 8 -8t-8 -8h-141q-8 0 -9 8zM283 -10q0 8 8 8q143 0 271 55.5t222.5 149.5t149.5 221t55 272q0 143 -55 270.5t-149.5 222.5t-222.5 149.5t-271 54.5q-8 0 -8 8t8 8q145 0 278 -55q131 -57 228 -154 q100 -100 151 -227q57 -137 58 -277q0 -141 -58 -278q-51 -127 -151 -228q-96 -96 -228 -153q-133 -55 -278 -55q-8 0 -8 8z" />
<glyph unicode="E" horiz-adv-x="983" d="M-2 127v1155q0 8 8 8t8 -8v-1155q0 -8 -8 -8t-8 8zM0 121q-6 4 0 10t12 2l142 -129q4 -4 0 -12q-3 -2 -7 -2t-6 2zM0 1276q-4 6 0 12l141 127q6 6 13 0q2 -6 0 -12l-142 -127q-2 -2 -6 -2t-6 2zM139 -2v1411q0 8 8 8t9 -8v-1411q-1 -8 -9 -8t-8 8zM139 -2q0 8 8 8h607 q8 0 8 -8t-8 -8h-607q-8 0 -8 8zM139 842q0 8 8 8h474q8 0 8 -8t-8 -8h-474q-8 0 -8 8zM139 1409q0 8 8 8h607q8 0 8 -8t-8 -8h-607q-8 0 -8 8z" />
<glyph unicode="F" horiz-adv-x="860" d="M2 123v1155q0 8 8 8t8 -8v-1155q0 -8 -8 -8t-8 8zM4 117q-6 4 0 10t12 2l142 -129q4 -4 0 -12q-2 -2 -6 -2t-7 2zM4 1272q-4 6 0 12l141 127q6 6 13 0q2 -6 0 -12l-142 -127q-2 -2 -6 -2t-6 2zM143 -6v1411q0 8 9 8q8 0 8 -8v-1411q0 -8 -8 -8t-9 8zM143 846q0 8 9 8h452 q8 0 8 -8t-8 -8h-452q-8 0 -9 8zM143 1405q0 8 9 8h598q8 0 8 -8t-8 -8h-598q-8 0 -9 8z" />
<glyph unicode="G" horiz-adv-x="1310" d="M0 256v891q0 8 8 8t8 -8v-891q0 -8 -8 -8t-8 8zM2 250q-10 4 0 10q4 8 10 2l144 -131q10 -6 0 -10q-4 -4 -6 -4q-4 2 -5 2zM2 1141q-6 6 0 12l143 129q4 4 11 0q8 -8 0 -12l-144 -129q0 -2 -4 -2t-6 2zM125 1253q-4 6 2 13q70 66 162 106q100 43 207 44h6q104 0 205 -40 q104 -41 180 -115.5t119 -177.5q4 -6 -5 -10l-2 -2q-6 0 -8 6q-41 98 -115.5 171t-175.5 114q-96 38 -197 38h-5q-105 -1 -203 -42q-86 -39 -158 -105q-6 -6 -12 0zM141 125v1151q0 8 9 8q8 0 8 -8v-1151q0 -8 -8 -8t-9 8zM143 131q6 6 13 0q82 -72 183 -103q83 -26 166 -26 q18 0 37 1q101 7 195 52t166 129q51 61 88 140q2 6 10 6q8 -4 5 -13q-31 -76 -88 -143q-72 -84 -168.5 -131t-206.5 -55q-10 -2 -20.5 -2h-20.5q-98 0 -189.5 33.5t-167.5 99.5q-6 6 -2 12zM496 666q0 8 8 8h495q8 0 9 -8q-1 -9 -9 -9h-495q-8 0 -8 9zM991 -4v670q0 8 8 8 t9 -8v-670q-1 -8 -9 -8t-8 8zM993 0l140 174q6 6 12 2q6 -6 2 -12l-141 -174q-3 -2 -7 -2h-6q-6 6 0 12zM993 659q-10 4 0 11q4 8 11 2l141 -123q6 -6 2 -12q-2 -2 -6 -2t-6 2zM1133 170v373q0 8 8 8t8 -8v-373q0 -8 -8 -8t-8 8z" />
<glyph unicode="H" horiz-adv-x="1146" d="M0 129v1155q0 8 8 8t8 -8v-1155q0 -8 -8 -8t-8 8zM2 123q-6 4 0 10t12 2l142 -129q4 -4 0 -12q-2 -2 -6 -2t-7 2zM2 1278q-4 6 0 12l141 127q6 6 13 0q2 -6 0 -12l-142 -127q-2 -2 -6 -2t-6 2zM141 0v1411q0 8 9 8q8 0 8 -8v-1411q0 -8 -8 -8t-9 8zM141 807q0 8 9 8h608 q8 0 8 -8t-8 -8h-608q-8 0 -9 8zM750 0v1411q0 8 8 8t8 -8v-1411q0 -8 -8 -8t-8 8zM752 -6q-4 8 0 12l141 129q6 4 12 -2q4 -6 0 -10l-141 -129q-2 -2 -6 -2t-6 2zM752 1405q-4 6 0 12q6 6 12 0l141 -127q2 -6 0 -12q-2 -2 -6 -2t-6 2zM891 129v1155q0 8 8 8t8 -8v-1155 q0 -8 -8 -8t-8 8z" />
<glyph unicode="I" horiz-adv-x="450" d="M0 70v1267q0 8 8 9q8 0 8 -9v-1267q0 -9 -8 -9t-8 9zM2 63q-4 6 0 13q8 4 12 0l78 -72q6 -4 2 -12q-2 -2 -6 -2t-6 2zM2 1333q-6 4 0 10l80 72q6 6 12 0q4 -6 -2 -12l-78 -72q-2 0 -3 -1t-3 -1t-6 4zM82 4l80 72q4 6 10 0t0 -13l-80 -71q0 -2 -4 -2t-6 2q-8 8 0 12z M82 1403q-6 6 0 12q4 10 10 0l80 -72q10 -6 0 -10q0 -4 -6 -4q-2 0 -2 1t-2 1zM158 70v1267q0 8 8 9q8 0 8 -9v-1267q0 -9 -8 -9t-8 9z" />
<glyph unicode="J" horiz-adv-x="901" d="M2 432q0 8 8 8t8 -8q0 -123 63.5 -227.5t174.5 -161.5q8 -4 4 -12q-4 -4 -8 -4q-2 0 -4 2q-55 29 -100.5 71.5t-79.5 96.5q-66 109 -66 235zM244 39q4 8 12 4q41 -23 86 -29q17 -2 35 -2q27 0 54 6q44 9 83 32.5t70 60.5q4 8 10 2t2 -13q-63 -80 -162 -98q-28 -6 -57 -6 q-70 0 -129 33q-8 4 -4 10zM584 98q-4 8 0 13l153 192q8 4 13 0q10 -6 0 -10l-154 -193q-4 -4 -6 -4t-3 1t-3 1zM586 111v1286q0 8 8 8t8 -8v-1286q0 -9 -8 -9t-8 9zM588 1393q-10 4 0 10q4 4 12 0l150 -182q6 -6 0 -13h-7q-4 0 -6 2zM735 297v920q0 8 8 8t9 -8v-920 q-1 -8 -9 -8t-8 8z" />
<glyph unicode="K" horiz-adv-x="1064" d="M41 123v1155q0 8 8 8t8 -8v-1155q0 -8 -8 -8t-8 8zM43 117q-6 4 0 10t12 2l142 -129q4 -4 0 -12q-3 -2 -7 -2t-6 2zM43 1272q-4 6 0 12l141 127q6 6 13 0q2 -6 0 -12l-142 -127q-2 -2 -6 -2t-6 2zM182 -6v1411q0 8 8 8t9 -8v-1411q-1 -8 -9 -8t-8 8zM182 625q0 8 8 8h168 q8 0 9 -8q-1 -9 -9 -9h-168q-8 0 -8 9zM352 618q-4 6 0 13q8 4 13 -2l555 -629q4 -8 -2 -12q-1 -2 -5 -2h-4q-2 0 -2 2zM352 629l494 780q6 6 12 4q6 -4 2 -12l-495 -780q-1 -5 -7 -5h-4q-6 6 -2 13z" />
<glyph unicode="L" horiz-adv-x="937" d="M2 133v1155q0 8 8 8t8 -8v-1155q0 -8 -8 -8t-8 8zM4 127q-6 4 0 10t12 2l142 -129q4 -4 0 -12q-2 -2 -6 -2t-7 2zM4 1282q-4 6 0 12l141 127q6 6 13 0q2 -6 0 -12l-142 -127q-2 -2 -6 -2t-6 2zM143 4v1411q0 8 9 8q8 0 8 -8v-1411q0 -8 -8 -8t-9 8zM143 4q0 8 9 8h571 q8 0 8 -8t-8 -8h-571q-8 0 -9 8z" />
<glyph unicode="M" horiz-adv-x="1556" d="M0 127v1155q0 8 8 8t8 -8v-1155q0 -8 -8 -8t-8 8zM2 121q-6 4 0 10t12 2l142 -129q4 -4 0 -12q-2 -2 -6 -2t-7 2zM2 1276q-4 6 0 12l141 127q6 6 13 0q2 -6 0 -12l-142 -127q-2 -2 -6 -2t-6 2zM141 -2v1411q0 8 9 8q8 0 8 -8v-1411q0 -8 -8 -8t-9 8zM141 1407q-2 6 6 10 q6 4 11 -4l501 -1413q4 -6 -6 -10h-2q-6 0 -8 6zM643 0l504 1413q0 8 10 4q8 -4 4 -10l-502 -1411q-4 -6 -8 -6h-2q-6 2 -6 10zM1145 -2v1411q0 8 8 8t8 -8v-1411q0 -8 -8 -8t-8 8zM1147 -8q-4 8 2 12l139 129q8 4 12 -2q6 -4 0 -10l-141 -129q-2 -2 -6 -2t-6 2zM1147 1415 q6 6 12 0l141 -127q4 -8 0 -12q-2 -2 -6 -2t-6 2l-139 127q-6 6 -2 12zM1286 127v1155q0 8 8 8t9 -8v-1155q-1 -8 -9 -8t-8 8z" />
<glyph unicode="N" horiz-adv-x="1269" d="M2 117v1155q0 8 8 8t8 -8v-1155q0 -8 -8 -8t-8 8zM4 111q-6 4 0 10t12 2l142 -129q4 -4 0 -12q-2 -2 -6 -2t-7 2zM4 1266q-4 6 0 12l141 127q6 6 13 0q2 -6 0 -12l-142 -127q-2 -2 -6 -2t-6 2zM143 -12v1411q0 8 9 8q8 0 8 -8v-1411q0 -8 -8 -8t-9 8zM145 938q-4 4 0 12 q8 4 13 -2l764 -954q6 -6 0 -12q-3 -2 -7 -2q-2 0 -6 4zM907 -12v1411q0 8 8 8t9 -8v-1411q-1 -8 -9 -8t-8 8zM909 -18q-4 8 2 12l140 129q8 4 12 -2q6 -4 0 -10l-141 -129q-3 -2 -7 -2t-6 2zM909 1405q6 6 13 0l141 -127q4 -8 0 -12q-2 -2 -6 -2t-6 2l-140 127q-6 6 -2 12z M1049 117v1155q0 8 8 8t8 -8v-1155q0 -8 -8 -8t-8 8z" />
<glyph unicode="O" horiz-adv-x="1228" d="M2 258v891q0 8 8 8t8 -8v-891q0 -8 -8 -8t-8 8zM4 252q-6 4 0 10t12 2l142 -131q8 -4 2 -10q-4 -4 -6 -4t-3 1t-4 1zM4 1143q-4 6 0 12l143 129q6 2 13 0q4 -8 -2 -12l-142 -129q-2 -2 -6 -2t-6 2zM129 1255q-6 6 0 13q74 72 167 109.5t198 39.5h22q92 -1 176 -31 q94 -34 172 -102q6 -4 2 -12q-8 -4 -12 0q-78 68 -171 100q-85 30 -172 30h-17q-96 -3 -187.5 -40t-167.5 -107q0 -2 -4 -2t-6 2zM145 127v1151q0 8 9 8q8 0 8 -8v-1151q0 -8 -8 -8t-9 8zM147 121q-6 6 0 12q4 10 11 0q74 -66 164 -97.5t184 -31.5t184 32t164 97q6 6 12 0 q4 -6 -2 -12q-74 -66 -167 -99.5t-191 -33.5t-190.5 33.5t-168.5 99.5zM852 127v1151q0 8 8 8t8 -8v-1151q0 -8 -8 -8t-8 8zM854 123q-10 4 0 10l141 131q8 4 13 -2q6 -4 0 -10l-144 -131q-2 0 -2 -1t-2 -1q-6 0 -6 4zM854 1272q-8 4 0 12q4 4 10 0l144 -129q4 -8 0 -12 q-3 -2 -7 -2t-6 2zM993 258v891q0 8 8 8t9 -8v-891q-1 -8 -9 -8t-8 8z" />
<glyph unicode="P" horiz-adv-x="901" d="M2 121v1155q0 8 8 8t8 -8v-1155q0 -8 -8 -8t-8 8zM4 115q-6 4 0 10t12 2l142 -129q4 -4 0 -12q-2 -2 -6 -2t-7 2zM4 1270q-4 6 0 12l141 127q6 6 13 0q2 -6 0 -12l-142 -127q-2 -2 -6 -2t-6 2zM143 -8v1411q0 8 9 8q8 0 8 -8v-1411q0 -8 -8 -8t-9 8zM143 748q0 8 9 8h305 q8 0 8 -8q0 -9 -8 -9h-305q-8 0 -9 9zM143 1403q0 8 9 8h305q8 0 8 -8t-8 -8h-305q-8 0 -9 8zM449 748q0 8 8 8q66 0 124 25.5t101 68.5t68.5 101.5t25.5 123.5q0 66 -25.5 124t-68.5 101t-101.5 69t-123.5 26q-8 0 -8 8t8 8q70 0 130 -26.5t106 -71.5t73 -106.5t27 -131.5 t-27 -130t-73 -106t-106 -73t-130 -27q-8 0 -8 9z" />
<glyph unicode="Q" horiz-adv-x="1228" d="M2 260v885q0 8 8 8t8 -8v-885q0 -8 -8 -8t-8 8zM4 254q-6 4 0 10q4 6 12 2l142 -129q2 -6 0 -12q-2 -2 -6 -2t-7 2zM4 1139q-4 6 0 12l141 127q8 8 13 0q2 -6 0 -12l-142 -127q-2 -2 -6 -2t-6 2zM127 1251q-6 4 0 11q74 72 167 109.5t195 39.5h21q91 0 176 -31 q94 -34 172 -102q10 -6 0 -10q-4 -8 -10 -2q-78 68 -170 100q-84 30 -171 30h-17q-95 -3 -186 -40t-165 -107q-2 0 -3 -1t-3 -1t-6 4zM143 131v1141q0 8 9 8q8 0 8 -8v-1141q0 -8 -8 -8t-9 8zM145 125q-4 4 0 12q4 4 13 0q74 -63 163 -95t182 -32t182 32t163 95q4 4 10 0 q8 -8 0 -12q-74 -66 -166 -99.5t-190 -33.5t-189.5 33.5t-167.5 99.5zM559 215q-4 4 0 12q6 4 12 -2l332 -385q4 -6 -2 -12q-2 -2 -4 -2t-6 4zM844 131v1141q0 8 8 8t8 -8v-1141q0 -8 -8 -8t-8 8zM846 125q-4 6 2 12l141 129q6 6 10 -2q10 -6 0 -10l-141 -129q-2 -2 -6 -2 t-6 2zM846 1278q6 6 12 0l141 -127q6 -6 0 -12q0 -2 -6 -2q-2 0 -4 2l-141 127q-6 6 -2 12zM985 260v885q0 8 8 8t8 -8v-885q0 -8 -8 -8t-8 8z" />
<glyph unicode="R" horiz-adv-x="983" d="M0 119v1155q0 8 8 8t8 -8v-1155q0 -8 -8 -8t-8 8zM2 123q4 6 12 2l158 -129q8 -4 2 -10q-4 -4 -6 -4q-4 0 -6 2l-158 127q-6 6 -2 12zM2 1268q-4 8 2 12l158 127q8 8 12 0q4 -6 -2 -12l-158 -127q-2 -2 -6 -2t-6 2zM160 -10v1411q0 8 8 8t8 -8v-1411q0 -8 -8 -8t-8 8z M160 745q0 8 8 9h305q8 0 8 -9q0 -8 -8 -8h-305q-8 0 -8 8zM160 1401q0 8 8 8h305q8 0 8 -8t-8 -8h-305q-8 0 -8 8zM416 743q-4 6 4 11q6 4 10 -4l395 -756q2 -6 -4 -12h-4q-2 0 -6 4zM465 745q0 8 8 9q66 0 124 25.5t101 68.5t69 101.5t26 123.5q0 66 -26 124t-69 101 t-101 69t-124 26q-8 0 -8 8t8 8q70 0 130.5 -26.5t106.5 -71.5t72.5 -106.5t26.5 -131.5t-26.5 -130t-72.5 -106t-106.5 -73t-130.5 -27q-8 0 -8 8z" />
<glyph unicode="S" horiz-adv-x="983" d="M6 166q-6 4 0 10t12 2q78 -72 172 -112q93 -40 191 -52q34 -4 68 -5q63 1 129 15q100 22 190 74q8 4 12 -2q4 -8 -4 -12q-151 -90 -327 -90q-18 0 -36 1t-34 3q-104 10 -199.5 53t-173.5 115zM125 911v269q0 8 8 8t8 -8v-269q0 -8 -8 -8t-8 8zM127 915q6 6 12 3l117 -105 q2 -6 0 -12q-2 -2 -6 -2t-6 2l-115 104q-8 4 -2 10zM127 1174q-4 6 0 12l117 104q6 6 12 0q2 -6 0 -12l-117 -104q-2 -3 -6 -3t-6 3zM242 807v477q0 8 8 8t8 -8v-477q0 -8 -8 -8t-8 8zM244 801q-4 6 0 12q6 2 12 0q43 -49 100 -78q8 -4 4 -12q-4 -4 -6 -4q-4 0 -4 2 q-59 31 -106 80zM244 1278q-4 6 0 12q98 104 239 121q22 3 44 3q47 0 93 -12q66 -18 123 -59q6 -4 2 -12q-4 -6 -12 -2q-55 39 -119 55q-47 12 -95 13q-17 0 -33 -2q-64 -6 -124.5 -36t-105.5 -79q-4 -4 -6 -4t-3 1t-3 1zM346 731q4 10 10 4q51 -27 101 -28q8 0 8 -9 q0 -8 -8 -8q-57 4 -107 31q-8 4 -4 10zM449 698q0 8 8 9l96 -9q8 0 8 -8t-8 -8l-96 8q-8 0 -8 8zM545 692q0 6 8 6q20 0 43 -6q8 -4 6 -10q0 -6 -8 -6h-2q-18 6 -39 6q-8 0 -8 10zM586 686q2 6 10 6q98 -23 180 -74q8 -4 4 -10q-4 -4 -8 -4h-4q-82 51 -176 72q-6 2 -6 10z M764 92v520q0 8 8 9q8 0 8 -9v-520q0 -8 -8 -8t-8 8zM766 86q-4 6 2 12l111 101q4 4 12 0q4 -8 -2 -13l-111 -100q-2 -2 -6 -2t-6 2zM766 616q4 6 12 2l111 -73q6 -6 2 -13q-4 -4 -6 -4q-4 0 -6 2l-111 76q-6 2 -2 10zM877 193v344q0 8 8 8t8 -8v-344q0 -9 -8 -9t-8 9z" />
<glyph unicode="T" horiz-adv-x="1310" d="M-6 1397q0 8 8 8h1262q8 0 8 -8t-8 -8h-1262q-8 0 -8 8zM498 115v1155q0 8 8 8t8 -8v-1155q0 -9 -8 -9t-8 9zM500 109q-6 6 0 10q4 6 12 2l139 -129q6 -4 2 -12q-2 -3 -6 -3t-6 3zM500 1264q-4 4 0 12l141 127q6 6 12 0q4 -6 -2 -12l-139 -127q-2 -2 -6 -2t-6 2zM639 -14 v1411q0 8 8 8t8 -8v-1411q0 -9 -8 -9t-8 9z" />
<glyph unicode="U" horiz-adv-x="1187" d="M0 393v1012q0 8 8 8t8 -8v-1012q0 -8 -8 -8t-8 8zM0 393q0 8 8 8t8 -8q0 -61 20.5 -120.5t61.5 -106.5q6 -4 0 -10q-2 -2 -6 -2t-6 2q-86 104 -86 237zM86 156q-4 6 2 12t10 -2q59 -72 140 -112q82 -40 168 -48q21 -2 41 -2q66 0 131 20q86 26 157 85q100 82 142 206 q2 6 10 7q6 -4 6 -11q-45 -133 -148 -215q-63 -53 -139 -80.5t-160 -27.5h-21t-22 2q-94 8 -176 51t-141 115zM877 -6v1411q0 8 8 8t8 -8v-1411q0 -8 -8 -8t-8 8zM879 0l141 129q6 4 12 -2t-2 -10l-139 -129q-2 -2 -6 -2t-6 2q-6 6 0 12zM879 1399q-4 8 0 12q4 8 12 0 l139 -127q6 -6 2 -12q-2 -2 -6 -2t-6 2zM1018 123v1155q0 8 8 8t8 -8v-1155q0 -8 -8 -8t-8 8z" />
<glyph unicode="V" horiz-adv-x="1146" d="M119 1403q0 6 6 10q6 0 10 -6l483 -1411q4 -6 -4 -10h-2q-8 0 -8 4zM121 1409q2 6 10 2l195 -104q8 -4 4 -11q-2 -4 -8 -4h-3l-196 105q-6 4 -2 12zM315 1296q-6 10 4 11q6 4 11 -4l370 -1080q4 -10 -4 -10q-2 -2 -4 -2q-6 0 -8 6zM604 -4l506 1411q0 6 10 6q8 -4 4 -10 l-506 -1413q0 -4 -6 -4h-4q-8 4 -4 10z" />
<glyph unicode="W" horiz-adv-x="1812" d="M37 1231q0 6 6 10t10 -4l404 -1163q4 -10 -4 -11l-2 -2q-8 0 -9 7zM39 1237l82 174q0 8 10 4q8 -4 4 -10l-82 -174q-4 -6 -8 -6q-2 0 -4 2q-6 2 -2 10zM119 1405q0 6 6 10t10 -4l506 -1413q0 -8 -6 -10h-2q-6 0 -8 6zM442 74q4 8 11 4l182 -74q6 -4 6 -10q-4 -6 -8 -6h-4 l-183 75q-10 0 -4 11zM610 1405q-4 6 4 10q10 4 11 -4l485 -1413q2 -6 -6 -10h-2q-6 0 -8 6zM625 -2l485 1413q0 8 10 4q8 -4 4 -10l-483 -1411q-4 -6 -8 -6h-2q-10 4 -6 10zM1094 -2l505 1413q4 8 11 4q8 -4 4 -10l-504 -1411q-4 -6 -8 -6h-2q-8 4 -6 10zM1094 -6 q-4 6 6 10l182 74q6 4 10 -4q4 -10 -4 -11l-182 -75h-4q-6 0 -8 6zM1276 74l405 1163q4 8 11 4q8 -4 4 -10l-404 -1163q-4 -7 -8 -7q-2 0 -2 2q-6 0 -6 11zM1599 1405q-4 6 5 10q6 4 10 -4l82 -174q4 -6 -4 -10l-2 -2q-6 0 -9 6z" />
<glyph unicode="X" horiz-adv-x="1146" d="M158 -2l782 1411q4 10 10 4q8 -4 4 -12l-782 -1411q-4 -4 -8 -4q-2 0 -4 2q-6 2 -2 10zM162 1401q-4 8 4 12q6 4 10 -4l799 -1411q4 -8 -2 -10l-4 -2q-4 0 -8 4zM162 1409q4 8 10 4l174 -70q6 -4 4 -12q0 -4 -8 -4h-2l-174 72q-10 0 -4 10zM336 1331q-4 6 4 10q4 8 10 -2 l654 -1153q4 -8 -5 -12h-4q-4 0 -6 4zM961 -4l26 186q4 8 10 8q8 -4 7 -10l-27 -188q-4 -6 -8 -6h-2q-10 0 -6 10z" />
<glyph unicode="Y" d="M2 1401q-4 6 2 12q6 2 10 -2l484 -704q4 -6 -2 -13h-7q-4 0 -6 2zM414 106q-2 6 2 11q8 4 12 -2l70 -117q2 -6 -2 -10q-3 -2 -7 -2q-2 0 -6 4zM414 111v692q0 8 8 8t8 -8v-692q0 -9 -8 -9t-8 9zM483 -2l70 117q4 8 10 2q8 -4 4 -11l-69 -116q-5 -4 -9 -4q-2 0 -4 2 q-4 4 -2 10zM483 707l482 704q8 4 12 2q6 -6 2 -12l-481 -705q-3 -2 -9 -2h-4q-6 6 -2 13zM551 111v692q0 8 8 8t8 -8v-692q0 -9 -8 -9t-8 9z" />
<glyph unicode="Z" horiz-adv-x="1064" d="M8 2q0 8 8 8h942q8 0 9 -8q-1 -8 -9 -8h-942q-8 0 -8 8zM8 2l21 270q0 6 8 7q8 0 8 -9l-20 -268q-1 -8 -9 -8t-8 8zM8 1413q0 8 8 8h942q8 0 9 -8q-1 -8 -9 -8h-942q-8 0 -8 8zM10 6l942 1413q6 6 13 2q6 -6 2 -12l-944 -1411q-1 -4 -7 -4q-2 0 -4 2q-6 2 -2 10zM28 269 q-1 3 3 5l762 1145q8 4 12 2q6 -6 2 -12l-764 -1143q-4 -4 -6 -4q-4 0 -4 2q-4 2 -5 5z" />
<glyph unicode="[" horiz-adv-x="1705" d="M0 76v1257q0 6 6 6q8 0 8 -6v-1257q0 -6 -8 -6q-6 0 -6 6zM0 80q6 6 10 2l94 -82q4 -6 0 -10q-2 -2 -4 -2t-3 1t-3 1l-92 82q-6 4 -2 8zM0 1327q-4 8 2 10l92 82q8 4 10 -2q6 -2 0 -8l-94 -82q-2 -2 -4 -2t-3 1t-3 1zM92 -4v1417q0 8 8 8q6 0 6 -8v-1417q0 -8 -6 -8 q-8 0 -8 8zM92 -4q0 6 8 6h160q8 0 8 -6q0 -8 -8 -8h-160q-8 0 -8 8zM92 1413q0 8 8 8h160q8 0 8 -8q0 -6 -8 -6h-160q-8 0 -8 6z" />
<glyph unicode="]" horiz-adv-x="1705" d="M-2 -4q0 6 8 6h162q6 0 6 -6q0 -8 -6 -8h-162q-8 0 -8 8zM-2 1413q0 8 8 8h162q6 0 6 -8q0 -6 -6 -6h-162q-8 0 -8 6zM160 -4v1417q0 8 8 8q6 0 6 -8v-1417q0 -8 -6 -8q-8 0 -8 8zM162 0l94 82q6 6 10 -2q4 -4 0 -8l-94 -82l-4 -2q-2 0 -3 1t-3 1q-4 6 0 10zM162 1409 q-4 4 0 8q2 6 10 2l94 -82q4 -4 0 -10q-2 0 -3 -1t-3 -1t-2 1t-2 1zM254 76v1257q0 6 6 6q8 0 8 -6v-1257q0 -6 -8 -6q-6 0 -6 6z" />
<glyph unicode="v" horiz-adv-x="1705" />
<glyph unicode="&#xa0;" />
<glyph unicode="&#x2000;" horiz-adv-x="712" />
<glyph unicode="&#x2001;" horiz-adv-x="1424" />
<glyph unicode="&#x2002;" horiz-adv-x="712" />
<glyph unicode="&#x2003;" horiz-adv-x="1424" />
<glyph unicode="&#x2004;" horiz-adv-x="474" />
<glyph unicode="&#x2005;" horiz-adv-x="356" />
<glyph unicode="&#x2006;" horiz-adv-x="237" />
<glyph unicode="&#x2007;" horiz-adv-x="237" />
<glyph unicode="&#x2008;" horiz-adv-x="178" />
<glyph unicode="&#x2009;" horiz-adv-x="284" />
<glyph unicode="&#x200a;" horiz-adv-x="79" />
<glyph unicode="&#x201c;" horiz-adv-x="1705" d="M0 1239v104q0 8 8 9q6 0 6 -9v-104q0 -8 -6 -8q-8 0 -8 8zM2 1233q-4 8 2 10q4 8 8 0l64 -63q4 -6 0 -11q-2 -2 -6 -2t-4 2zM2 1350l64 63q4 4 10 0q4 -4 0 -10l-64 -64q0 -2 -4 -2t-4 2q-6 2 -2 11zM63 1001v173q0 8 7 8q8 0 8 -8v-173q0 -8 -8 -8q-6 0 -7 8zM66 995 q-10 4 0 11l61 63q4 6 10 0q4 -4 0 -8l-61 -66q-2 -2 -6 -2t-4 2zM66 1403q-6 6 0 10q4 4 10 0l61 -63q4 -6 0 -11q-2 -2 -6 -2t-4 2zM125 1065v278q0 8 6 9q8 0 8 -9v-278q0 -8 -8 -8q-6 0 -6 8zM250 1239v104q0 8 8 9q6 0 6 -9v-104q0 -8 -6 -8q-8 0 -8 8zM252 1233 q-4 8 2 10q4 6 10 0l62 -63q4 -6 0 -11q-3 -2 -7 -2t-4 2zM252 1350l63 63q4 4 11 0q4 -4 0 -10l-62 -64q-2 -2 -6 -2t-4 2q-6 2 -2 11zM313 1001v173q0 8 6 8q8 0 9 -8v-173q-1 -8 -9 -8q-6 0 -6 8zM315 995q-10 4 0 11l62 63q4 6 10 0q4 -4 0 -8l-61 -66q-3 -2 -7 -2t-4 2 zM315 1403q-6 6 0 10q4 4 11 0l61 -63q4 -6 0 -11q-2 -2 -6 -2t-4 2zM375 1065v278q0 8 6 9q8 0 8 -9v-278q0 -8 -8 -8q-6 0 -6 8z" />
<glyph unicode="&#x201d;" horiz-adv-x="1705" d="M0 1237v104q0 8 8 9q6 0 6 -9v-104q0 -8 -6 -8q-8 0 -8 8zM2 1231q-4 8 2 10q4 8 8 0l64 -63q4 -6 0 -11q-2 -2 -6 -2t-4 2zM2 1348l64 63q4 4 10 0q4 -4 0 -10l-64 -64q0 -2 -4 -2t-4 2q-6 2 -2 11zM63 999v172q0 8 7 9q8 0 8 -9v-172q0 -8 -8 -8q-6 0 -7 8zM66 993 q-10 4 0 11l61 63q4 6 10 0q4 -4 0 -8l-61 -66q-2 -2 -6 -2t-4 2zM66 1401q-6 6 0 10q4 4 10 0l61 -63q4 -6 0 -11q-2 -2 -6 -2t-4 2zM125 1063v278q0 8 6 9q8 0 8 -9v-278q0 -8 -8 -8q-6 0 -6 8zM250 1237v104q0 8 8 9q6 0 6 -9v-104q0 -8 -6 -8q-8 0 -8 8zM252 1231 q-4 8 2 10q4 6 10 0l62 -63q4 -6 0 -11q-3 -2 -7 -2t-4 2zM252 1348l63 63q4 4 11 0q4 -4 0 -10l-62 -64q-2 -2 -6 -2t-4 2q-6 2 -2 11zM313 999v172q0 8 6 9q8 0 9 -9v-172q-1 -8 -9 -8q-6 0 -6 8zM315 993q-10 4 0 11l62 63q4 6 10 0q4 -4 0 -8l-61 -66q-3 -2 -7 -2t-4 2z M315 1401q-6 6 0 10q4 4 11 0l61 -63q4 -6 0 -11q-2 -2 -6 -2t-4 2zM375 1063v278q0 8 6 9q8 0 8 -9v-278q0 -8 -8 -8q-6 0 -6 8z" />
<glyph unicode="&#x202f;" horiz-adv-x="284" />
<glyph unicode="&#x205f;" horiz-adv-x="356" />
<glyph unicode="&#x25fc;" d="M0 0z" />
</font>
</defs>
</svg>
