<?xml version="1.0" standalone="no"?>
<!DOCTYPE svg PUBLIC "-//W3C//DTD SVG 1.1//EN" "http://www.w3.org/Graphics/SVG/1.1/DTD/svg11.dtd" >
<svg xmlns="http://www.w3.org/2000/svg" xmlns:xlink="http://www.w3.org/1999/xlink" version="1.1">
<metadata></metadata>
<defs>
<font id="mylodonlight" horiz-adv-x="1710" >
<font-face units-per-em="2048" ascent="1638" descent="-410" />
<missing-glyph horiz-adv-x="1228" />
<glyph horiz-adv-x="0" />
<glyph horiz-adv-x="682" />
<glyph unicode=" "  horiz-adv-x="1228" />
<glyph unicode="&#x09;" horiz-adv-x="1228" />
<glyph unicode="&#xa0;" horiz-adv-x="1228" />
<glyph unicode="!" horiz-adv-x="282" d="M82 59v52q0 25 17 42t42 17t42.5 -17t17.5 -42v-52q0 -25 -17.5 -42t-42.5 -17t-42 17t-17 42zM82 481v928q0 25 17 42t42 17t42.5 -17t17.5 -42v-928q0 -25 -17.5 -42t-42.5 -17t-42 17t-17 42z" />
<glyph unicode="&#x22;" horiz-adv-x="456" d="M82 1200v234q0 25 17 42t42 17t42.5 -17t17.5 -42v-234q0 -25 -17.5 -42t-42.5 -17t-42 17t-17 42zM256 1200v234q0 25 17 42t42 17t42.5 -17t17.5 -42v-234q0 -25 -17.5 -42t-42.5 -17t-42 17t-17 42z" />
<glyph unicode="#" horiz-adv-x="1548" d="M82 436q0 25 17 42.5t42 17.5h197v467h-197q-25 0 -42 17t-17 42t17 42t42 17h197v318q0 25 16 42t41 17t42.5 -17t17.5 -42v-318h635v318q0 25 17 42t42 17t42 -17t17 -42v-318h199q25 0 42 -17t17 -42t-17 -42t-42 -17h-199v-467h199q25 0 42 -17.5t17 -42.5t-17 -42 t-42 -17h-199v-318q0 -25 -17 -42t-42 -17t-42 17t-17 42v318h-635v-318q0 -25 -17.5 -42t-42.5 -17t-41 17t-16 42v318h-197q-25 0 -42 17t-17 42zM455 496h635v467h-635v-467z" />
<glyph unicode="$" horiz-adv-x="1648" d="M82 268q-1 24 16 43t41 19t43 -17l211 -194h844h2l193 178l-2 205l-191 178h-2h-844q-44 0 -82 33l-190 176q-39 36 -39 88v170q0 52 39 88l190 178q36 31 82 31h371v223q0 25 17 42t42 17t42.5 -17t17.5 -42v-223h372q49 0 80 -31l213 -196q17 -15 18 -40t-16 -42 q-17 -19 -41 -20.5t-43 15.5l-211 195h-862l-192 -178v-170l192 -176v-2h844q46 0 82 -31l192 -178q39 -36 39 -88v-205q0 -52 -39 -88l-192 -176q-33 -33 -82 -33h-354v-229q0 -25 -17.5 -42.5t-42.5 -17.5t-42 17.5t-17 42.5v229h-371q-49 0 -82 33l-211 194 q-17 17 -18 41z" />
<glyph unicode="%" horiz-adv-x="1722" d="M82 1157v84q0 52 39 88v2l106 90q38 33 82 33h80q42 0 82 -31l104 -92q3 0 3 -2q38 -35 38 -88v-82q0 -52 -38 -90l-107 -92q-40 -31 -82 -31h-80q-42 0 -82 31l-104 92h-2q-39 36 -39 88zM201 1157l104 -90l2 -2h2h82v2l107 92v84l-107 90v2h-2h-80h-2v-2l-106 -92v-84z M266.5 51.5q-2.5 24.5 12.5 44.5l1044 1334q15 20 39.5 22.5t44.5 -12.5q19 -14 22 -38.5t-12 -43.5l-1046 -1335q-16 -23 -45 -23q-22 0 -37 12q-20 15 -22.5 39.5zM1106 211v84q0 52 39 88l106 92q36 31 80 31h82q49 0 80 -31l106 -90l3 -2q38 -35 38 -88v-82 q0 -53 -38 -88q-1 -2 -3 -2l-106 -92q-31 -31 -80 -31h-82q-44 0 -80 31l-106 92q-39 36 -39 88zM1225 211l104 -90l2 -2h82h2v2l107 92v82l-107 92h-2h-82h-2l-104 -92v-84z" />
<glyph unicode="&#x26;" horiz-adv-x="1683" d="M82 295v223q0 54 37 86l190 176q18 15 35 23l-104 96q-39 36 -39 86v158q0 55 39 86l188 176q36 31 80 31h297q49 0 80 -31l190 -174q37 -37 37 -86v-158q0 -54 -37 -86l-160 -149l302 -361l276 271q19 17 42.5 16t41.5 -19q17 -17 16 -40.5t-18 -40.5l-283 -277 l154 -184h96q25 0 42.5 -16.5t17.5 -41.5t-17 -42t-41 -17h-98q-49 0 -80 31l-6 6l-152 182l-190 -184v-2q-40 -31 -80 -31h-549q-46 0 -80 31l-188 174q-39 36 -39 88zM199 293l190 -174h549l195 190l-322 385h-6h-2h-414h-2l-188 -176v-225zM317 985l191 -174h297h2 l188 174v2v158l-188 174h-2h-297l-191 -174v-2v-158z" />
<glyph unicode="'" horiz-adv-x="282" d="M82 1200v234q0 25 17 42t42 17t42.5 -17t17.5 -42v-234q0 -25 -17.5 -42t-42.5 -17t-42 17t-17 42z" />
<glyph unicode="(" horiz-adv-x="380" d="M82 -86v1602q0 24 16 40l150 150q17 19 42 19t42 -19q17 -17 17 -41t-17 -43l-131 -131v-1552l141 -142q19 -19 19 -43t-19 -41q-15 -18 -41 -18q-25 0 -43 18l-160 160q-16 16 -16 41z" />
<glyph unicode=")" horiz-adv-x="380" d="M20 1671q0 24 17 41q19 19 43 19t41 -19l160 -160q18 -15 18 -41v-1601q0 -26 -18 -41l-148 -150q-18 -18 -43 -18q-26 0 -41 18q-19 17 -19 41t19 43l131 131v1553l-143 141q-17 19 -17 43z" />
<glyph unicode="*" horiz-adv-x="1228" d="M220.5 878.5q5.5 22.5 27.5 34.5l207 121l-207 119q-22 12 -27.5 35t6.5 45t35 28t45 -6l207 -118v237q0 25 17 42.5t42 17.5t42.5 -17.5t17.5 -42.5v-237l207 118q22 12 45 6t35 -28t5.5 -45t-26.5 -35l-207 -119l207 -121q20 -12 26.5 -34.5t-5.5 -44.5 q-17 -31 -52 -31q-12 0 -28 8l-207 119v-238q0 -25 -17.5 -42t-42.5 -17t-42 17t-17 42v238l-207 -119q-16 -8 -28 -8q-35 0 -52 31q-12 22 -6.5 44.5z" />
<glyph unicode="+" horiz-adv-x="1208" d="M82 522q0 25 17 42.5t42 17.5h404v403q0 25 17 42t42 17t42.5 -17t17.5 -42v-403h403q25 0 42 -17.5t17 -42.5t-17 -42t-42 -17h-403v-404q0 -25 -17.5 -42t-42.5 -17t-42 17t-17 42v404h-404q-25 0 -42 17t-17 42z" />
<glyph unicode="," horiz-adv-x="372" d="M82 -123q-1 24 16 43l74 80v113q0 25 17 42t42 17t42.5 -17t17.5 -42v-136q0 -23 -17 -40l-90 -97q-17 -20 -43 -20q-22 0 -41 16q-17 17 -18 41z" />
<glyph unicode="-" horiz-adv-x="1228" d="M51 854q0 25 17.5 42t42.5 17h639q25 0 42 -17t17 -42t-17 -42t-42 -17h-639q-25 0 -42.5 17t-17.5 42z" />
<glyph unicode="." horiz-adv-x="282" d="M82 59v52q0 25 17 42t42 17t42.5 -17t17.5 -42v-52q0 -25 -17.5 -42t-42.5 -17t-42 17t-17 42z" />
<glyph unicode="/" horiz-adv-x="743" d="M45 82q-9 -23 0.5 -46t32.5 -32q16 -4 22 -4q40 0 56 37l542 1331q9 22 0 44.5t-32 31.5t-46 0t-32 -31z" />
<glyph unicode="0" d="M82 281v14v848v16q-4 31 18 53l211 195q32 28 64 31q6 2 16 2h926h6q46 -3 76 -33l190 -174q1 -2 4 -5t4 -5l11 -11q25 -22 18 -53l2 -14v-848q0 -3 -1 -8t-1 -8q7 -32 -18 -54l-209 -194q-28 -25 -66 -31q-2 0 -7.5 -1t-8.5 -1h-926h-4q-46 3 -76 33l-190 176q-5 3 -8 8 l-13 10q-22 22 -18 54zM201 297l190 -178h926l192 178v848l-190 176h-2h-926l-190 -178v-846z" />
<glyph unicode="1" horiz-adv-x="473" d="M41 1397q0 25 17 42t42 17h234q23 0 40 -17t17 -42v-1338q0 -25 -17 -42t-40 -17q-25 0 -42.5 17t-17.5 42v1278h-174q-25 0 -42 17.5t-17 42.5z" />
<glyph unicode="2" horiz-adv-x="1753" d="M82 1171q1 24 18 41l211 195q36 31 80 31h926q46 0 82 -31l190 -176q39 -36 39 -88v-170q0 -52 -39 -88l-190 -176q-40 -31 -82 -31h-907h-2l-191 -178v-381h1143l211 194q19 17 43 16t41 -20q17 -17 16 -42t-20 -42l-209 -194q-40 -31 -82 -31h-1202q-25 0 -42.5 17 t-17.5 42v441q0 52 39 88l191 176q38 33 82 33h909l190 176v170l-192 178h-926l-211 -195q-17 -17 -41 -17t-41 19t-16 43z" />
<glyph unicode="3" d="M82 267q-1 25 16 42q17 19 41 20t41 -16l211 -194h928l190 176v213l-192 176h-660q-25 0 -42 17t-17 42v2q0 25 17 42.5t42 17.5h662l190 176v170l-192 178h-926l-211 -194q-17 -17 -41 -16t-41 18q-17 19 -16 43t18 41l211 194q36 31 80 31h926q46 0 82 -31l190 -176 q39 -36 39 -88v-170q0 -52 -39 -88l-162 -148l162 -149q39 -36 39 -88v-213q0 -50 -39 -86l-190 -178q-36 -31 -82 -31h-926q-44 0 -80 31l-211 194q-17 17 -18 42z" />
<glyph unicode="4" horiz-adv-x="1619" d="M82 840v579q0 25 17 42.5t42 17.5t42.5 -17.5t17.5 -42.5v-579v-2l176 -191h1042v772q0 25 17.5 42.5t42.5 17.5t42 -17.5t17 -42.5v-1360q0 -25 -17 -42t-42 -17t-42.5 17t-17.5 42v469h-1042q-52 0 -88 39l-176 191q-31 36 -31 82z" />
<glyph unicode="5" d="M82 267q-1 25 16 42q17 19 41 20t41 -16l211 -194h928l190 176v213l-192 176h-907q-44 0 -82 33l-191 178q-39 36 -39 86v408q0 25 17.5 42t42.5 17h1380q25 0 42 -17t17 -42t-17 -42.5t-42 -17.5h-1321v-348l191 -178h2h907q46 0 82 -31l190 -176q39 -36 39 -88v-213 q0 -50 -39 -86l-190 -178q-36 -31 -82 -31h-926q-44 0 -80 31l-211 194q-17 17 -18 42z" />
<glyph unicode="6" horiz-adv-x="1669" d="M82 262v6v2v877q0 52 39 88l190 176q38 33 80 33h926q44 0 82 -33l211 -194q17 -17 18 -41t-16 -43q-18 -18 -41.5 -19t-42.5 16l-211 195h-926l-190 -178v-471l110 102q36 31 80 31h926q46 0 82 -31l190 -176q39 -36 39 -88v-219q0 -50 -39 -86l-190 -178 q-36 -31 -82 -31h-926q-44 0 -80 31l-211 194v2l-2 2l-2 2l-2 2l-2 3q0 2 -2 2v4q-2 0 -2 2t-2 2v2q0 2 -2 6v2q0 2 -2 6zM201 295l190 -176h928l190 176v219l-192 176h-926l-190 -176v-219z" />
<glyph unicode="7" horiz-adv-x="1581" d="M82 1384q0 25 17 42.5t42 17.5h1299q25 0 42 -17.5t17 -42.5v-331q0 -28 -22 -47l-648 -494v-453q0 -25 -17 -42t-42 -17t-42 17t-17 42v482q0 31 22 47l647 495v242h-1239q-25 0 -42 17t-17 42z" />
<glyph unicode="8" horiz-adv-x="1712" d="M82 295v219q0 50 39 86l160 150l-160 149q-39 36 -39 88v166q0 52 39 88l190 176q38 33 80 33h928q44 0 82 -33l190 -176q39 -36 39 -86v-168q0 -52 -39 -88l-161 -149l161 -148q39 -36 39 -88v-219q0 -50 -39 -86l-190 -178q-36 -31 -82 -31h-928q-44 0 -80 31l-190 176 q-39 36 -39 88zM201 295l190 -176h930l190 176v219l-192 176h-928l-190 -176v-219zM201 985l190 -176h930l190 178v168l-192 176h-928l-190 -178v-166v-2z" />
<glyph unicode="9" d="M82 267q-1 25 16 42q17 19 41 20t41 -16l211 -194h928l190 176v473l-110 -102q-38 -33 -82 -33h-926q-42 0 -80 33l-190 176q-39 36 -39 86v219q0 52 39 88l190 176q38 33 80 33h926q44 0 82 -33l211 -194l2 -3l2 -2q0 -2 2 -4l2 -2v-2l2 -2l2 -2v-4q2 0 2 -4q0 -1 1 -2 t1 -2v-2v-2q0 -2 2 -4v-6v-879q0 -50 -39 -86l-190 -178q-36 -31 -82 -31h-926q-44 0 -80 31l-211 194q-17 17 -18 42zM201 928l190 -176h928l190 178v217l-192 178h-926l-190 -178v-219z" />
<glyph unicode=":" horiz-adv-x="282" d="M82 59v52q0 25 17 42t42 17t42.5 -17t17.5 -42v-52q0 -25 -17.5 -42t-42.5 -17t-42 17t-17 42zM82 817v53q0 25 17 42.5t42 17.5t42.5 -17.5t17.5 -42.5v-53q0 -25 -17.5 -42t-42.5 -17t-42 17t-17 42z" />
<glyph unicode=";" horiz-adv-x="370" d="M82 -123q-1 24 16 43l74 80v113q0 25 16 42t41 17t42.5 -17t17.5 -42v-136q0 -25 -15 -40l-90 -97q-17 -20 -43 -20q-22 0 -41 16q-17 17 -18 41zM172 821v51q0 25 16.5 42.5t40.5 17.5q25 0 42.5 -17.5t17.5 -42.5v-51q0 -25 -17.5 -42t-42.5 -17t-41 17t-16 42z" />
<glyph unicode="&#x3c;" horiz-adv-x="487" d="M82 733q0 25 20 45l203 172q18 15 42.5 13.5t39.5 -21.5q17 -19 15 -43t-21 -39l-148 -127l152 -131q18 -15 19.5 -39t-13.5 -43q-19 -22 -45 -22q-22 0 -39 14l-205 176q-20 17 -20 45z" />
<glyph unicode="=" horiz-adv-x="1208" d="M82 307q0 25 17 42.5t42 17.5h926q25 0 42 -17.5t17 -42.5t-17 -42t-42 -17h-926q-25 0 -42 17t-17 42zM82 772q0 25 17 42t42 17h926q25 0 42 -17t17 -42t-17 -42t-42 -17h-926q-25 0 -42 17t-17 42z" />
<glyph unicode="&#x3e;" horiz-adv-x="487" d="M82.5 858q-1.5 24 13.5 43q15 20 40.5 21.5t43.5 -13.5l205 -176q21 -17 21 -45q0 -24 -21 -45l-203 -172q-17 -14 -39 -14q-26 0 -45 22q-15 18 -13.5 42.5t21.5 39.5l148 127l-152 131q-18 15 -19.5 39z" />
<glyph unicode="?" horiz-adv-x="1716" d="M81.5 1205.5q0.5 24.5 18.5 41.5l211 195q38 33 82 33h930q42 0 80 -33l192 -176q39 -36 39 -88v-170q0 -52 -39 -88l-192 -179q-35 -30 -80 -30h-260l-191 -179v-2v-75q0 -25 -17 -42.5t-42 -17.5t-42 17.5t-17 42.5v75q0 54 37 88l192 179q37 32 82 32h258l193 179v170 l-193 178h-930h-2l-211 -197q-17 -15 -42 -14.5t-42 18.5q-15 18 -14.5 42.5zM748 59v66q0 25 17 42t42 17t42 -17t17 -42v-66q0 -25 -17 -42t-42 -17t-42 17t-17 42z" />
<glyph unicode="@" horiz-adv-x="1572" d="M82 293v850q0 50 39 86l186 174q36 31 80 31h799q47 0 78 -31l211 -193q16 -16 16 -43v-755q0 -25 -16.5 -42.5t-40.5 -17.5h-816q-37 0 -77 31l-70 55q-1 0 -2 1t-2 1q-37 34 -37 88v379q0 52 37 86q1 0 2 1t2 1l70 56q30 30 80 30h333q48 0 78 -30l90 -74 q21 -18 21 -45v-174q0 -25 -17.5 -42.5t-40.5 -17.5q-25 0 -42 17.5t-17 42.5v147l-68 58q-2 0 -4 2h-333h-3q0 -1 -1 -2t-1 -2l-69 -54v-379l69 -55l2 -2v-2h756v674l-188 174h-799l-188 -174v-852l188 -174h1047q24 0 40.5 -17t16.5 -41q0 -25 -16 -42t-41 -17h-1047 q-44 0 -80 31l-186 174q-39 36 -39 88z" />
<glyph unicode="A" horiz-adv-x="1527" d="M82 57v1069q0 46 31 82l176 189q34 37 88 37h774q56 0 86 -37l178 -189q31 -40 31 -82v-1069q0 -24 -17.5 -40.5t-42.5 -16.5t-42 16t-17 41v533h-1128v-533q0 -24 -17.5 -40.5t-42.5 -16.5q-24 0 -40.5 16.5t-16.5 40.5zM199 596q2 2 0 6v-6zM199 696v2v-2zM199 709 h1128v417l-174 191l-2 2h-774q-2 0 -2 -2l-174 -191h-2v-417zM1327 596v6q-2 -4 0 -6zM1327 696v2v-2z" />
<glyph unicode="B" horiz-adv-x="1593" d="M82 59v1321q0 25 17 41.5t42 16.5h1045q44 0 80 -31l190 -176q39 -36 39 -88v-127q0 -52 -39 -88l-147 -137l166 -154q36 -33 36 -86v-256q0 -53 -36 -86l-191 -178q-36 -31 -82 -31h-1061q-25 0 -42 17t-17 42zM201 119h1001l193 176v256l-187 170h-1007v-602zM201 846 h993l182 170v127v2l-190 176h-985v-475z" />
<glyph unicode="C" d="M82 295v848q0 54 37 88l192 176q31 31 80 31h926q49 0 80 -31l211 -195q19 -17 20 -41t-16 -43t-41 -19t-43 17l-211 195h-926l-192 -178v-848l192 -176h926l211 194q19 17 43 16t41 -20q17 -17 16 -42t-20 -42l-211 -194q-31 -31 -80 -31h-926q-49 0 -80 31l-192 176 q-37 34 -37 88z" />
<glyph unicode="D" horiz-adv-x="1687" d="M82 59v1321q0 25 17 41.5t42 16.5h1155q44 0 80 -31l191 -176q39 -36 39 -88v-848q0 -50 -39 -86l-191 -178q-36 -31 -82 -31h-1153q-25 0 -42 17t-17 42zM201 119h1093h2l191 176v850l-191 176h-1095v-1202z" />
<glyph unicode="E" horiz-adv-x="1574" d="M82 57v662v659q0 25 17 42.5t42 17.5h1061q49 0 80 -31l193 -178q17 -17 18 -41t-16 -41q-17 -19 -41 -20t-43 16l-191 176h-1001v-541h1007q25 0 41.5 -17t16.5 -42t-16.5 -42.5t-41.5 -17.5h-1007v-542h1001l191 178q19 17 43 16t41 -20q17 -17 16 -42t-18 -42 l-193 -176q-31 -31 -80 -31h-1061q-25 0 -42 17t-17 40z" />
<glyph unicode="F" horiz-adv-x="1574" d="M82 59v676v2v660q0 25 17 42t42 17h1061q44 0 82 -33l191 -176q17 -17 18 -41t-16 -43q-15 -19 -40 -19t-42 17l-193 176h-1001v-542h1007q25 0 42.5 -17.5t17.5 -42.5q0 -23 -17.5 -40t-42.5 -17h-1007v-619q0 -25 -17.5 -42t-42.5 -17t-42 17t-17 42z" />
<glyph unicode="G" d="M82 295v848q0 54 37 88l192 176q31 31 80 31h926q49 0 80 -31l211 -195q19 -17 20 -41t-16 -43t-41 -19t-43 17l-211 195h-926l-192 -178v-848l192 -176h926l192 176v364h-655q-25 0 -42 17.5t-17 42.5t17 42t42 17h715q23 0 40 -17t17 -42v-449q0 -27 -18 -45l-211 -194 q-34 -31 -80 -31h-926q-49 0 -80 31l-192 176q-37 34 -37 88z" />
<glyph unicode="H" horiz-adv-x="1593" d="M82 57v1338q0 25 17 42t42 17t42.5 -17t17.5 -42v-600h1194v600q0 25 16 42t41 17t42 -17t17 -42v-1338q0 -25 -17 -42t-42 -17t-41 17t-16 42v619h-1194v-619q0 -25 -17.5 -42t-42.5 -17t-42 17t-17 42z" />
<glyph unicode="I" horiz-adv-x="1425" d="M82 59q0 25 17 42.5t42 17.5h512v1218h-512q-25 0 -42 17.5t-17 42.5t17 42t42 17h1143q25 0 42 -17t17 -42t-17 -42.5t-42 -17.5h-512v-1218h512q25 0 42 -17.5t17 -42.5t-17 -42t-42 -17h-1143q-25 0 -42 17t-17 42z" />
<glyph unicode="J" horiz-adv-x="1347" d="M41 267q-1 25 16 42q15 19 40 20t42 -16l211 -194h604h2l191 176v1026h-524q-25 0 -42.5 17t-17.5 42t17.5 41.5t42.5 16.5h583q25 0 42.5 -16.5t17.5 -41.5v-1085q0 -50 -39 -86l-191 -178q-36 -31 -82 -31h-604q-44 0 -80 31l-211 194q-17 17 -18 42z" />
<glyph unicode="K" horiz-adv-x="1599" d="M82 59v387v934q0 25 17 41.5t42 16.5t42.5 -16.5t17.5 -41.5v-841l1188 520q2 0 6 4v317q0 25 17 41.5t42 16.5t41 -16.5t16 -41.5v-323q0 -31 -20.5 -61.5t-52.5 -45.5h-2l-533 -233l381 -598h174q25 0 42.5 -17.5t17.5 -42.5t-17.5 -42t-42.5 -17h-174h-2q-44 0 -80 31 l-10 12l-397 627l-594 -260v-351q0 -25 -17.5 -42t-42.5 -17t-42 17t-17 42z" />
<glyph unicode="L" horiz-adv-x="1540" d="M82 295v1110q0 25 17 42t40 17q25 0 42.5 -17t17.5 -42v-1110l192 -176h758l209 194q19 17 43 16t41 -20q17 -17 16 -42t-20 -42l-209 -194q-36 -31 -82 -31h-756q-49 0 -80 31l-192 176q-37 34 -37 88z" />
<glyph unicode="M" horiz-adv-x="2093" d="M82 59v1338q0 25 17 42t42 17h207q28 0 49 -24l650 -904l653 904q18 24 49 24h205q25 0 41 -17t16 -42v-1338q0 -25 -17 -42t-40 -17q-25 0 -42.5 17t-17.5 42v1278h-116l-682 -946q-21 -24 -49 -24q-31 0 -48 24l-680 946h-118v-1278q0 -25 -17.5 -42t-42.5 -17t-42 17 t-17 42z" />
<glyph unicode="N" horiz-adv-x="1738" d="M82 59v1338q0 25 17 42t42 17h195q28 0 47 -22l1040 -1315h115v1278q0 25 17 42t42 17t42.5 -17t17.5 -42v-1338q0 -25 -17.5 -42t-42.5 -17h-202q-31 0 -47 23l-1041 1316l-106 -2v-1278q0 -25 -17.5 -42t-42.5 -17t-42 17t-17 42z" />
<glyph unicode="O" d="M82 281v14v848v16q-4 31 18 53l211 195q32 28 64 31q6 2 16 2h926h6q46 -3 76 -33l190 -174q1 -2 4 -5t4 -5l11 -11q25 -22 18 -53l2 -14v-848q0 -3 -1 -8t-1 -8q7 -32 -18 -54l-209 -194q-28 -25 -66 -31q-2 0 -7.5 -1t-8.5 -1h-926h-4q-46 3 -76 33l-190 176q-5 3 -8 8 l-13 10q-22 22 -18 54zM201 297l190 -178h926l192 178v848l-190 176h-2h-926l-190 -178v-846z" />
<glyph unicode="P" horiz-adv-x="1593" d="M82 57v1321q0 25 17 42.5t42 17.5h1061q46 0 82 -31l191 -178q36 -33 36 -86v-256q0 -53 -36 -86l-193 -176q-33 -33 -80 -33h-1001v-535q0 -24 -17.5 -40.5t-42.5 -16.5t-42 16t-17 41zM201 711h1001l193 176v256l-193 176h-1001v-608z" />
<glyph unicode="Q" d="M82 295v848q0 10 2 16q-7 30 16 53l211 195q28 25 64 31h18h926h4q42 0 76 -31l190 -176l8 -8l13 -11q23 -23 16 -53q2 -6 2 -16v-848q0 -10 -2 -14q7 -33 -16 -56l-211 -194q-29 -26 -64 -29q-6 -2 -16 -2h-166v-158h2l100 -116q17 -19 16 -43t-20 -41q-23 -15 -39 -15 q-28 0 -45 21l-102 116q-31 34 -31 80v156h-641h-6q-45 3 -76 31l-190 176l-8 8l-13 10q-23 23 -16 56q-2 4 -2 14zM201 295l192 -176h641v155v2l-102 117q-15 19 -13.5 43t19.5 39q19 17 43 15t41 -21l100 -115q31 -36 31 -80v-155h166l190 176v848l-190 178h-928 l-190 -178v-848z" />
<glyph unicode="R" horiz-adv-x="1599" d="M82 59v1321q0 25 17 41.5t42 16.5h1061q49 0 80 -31l193 -176q36 -36 36 -88v-254q0 -52 -36 -88l-193 -176q-31 -31 -80 -31h-149l233 -475h172l60 -60q0 -25 -17.5 -42t-42.5 -17h-176q-44 0 -80 31q-9 9 -12 18l-268 545h-721v-535q0 -25 -17.5 -42t-42.5 -17t-42 17 t-17 42zM201 711h1001v2l191 174l2 2l-2 254l-191 178h-1001v-610z" />
<glyph unicode="S" horiz-adv-x="1669" d="M82 267q-1 25 16 42q17 19 41 20t43 -16l209 -194h909l193 176v2v229l-193 176h-909q-42 0 -80 33l-190 176q-39 36 -39 88v168q0 52 39 88l190 177q37 32 82 32h924q45 0 82 -32l211 -195q17 -15 18 -40t-16 -42q-17 -19 -41 -20t-43 16l-209 195h-2h-924h-2l-190 -179 v-168v-2l190 -176h909q48 0 82 -30l191 -179q39 -36 39 -88v-227q0 -52 -39 -88l-191 -178q-36 -31 -82 -31h-909q-40 0 -80 31l-211 194q-17 17 -18 42z" />
<glyph unicode="T" horiz-adv-x="1830" d="M82 1405q0 25 17 42t42 17h1549q25 0 42 -17t17 -42t-17 -42t-42 -17h-715v-1287q0 -25 -17.5 -42t-42.5 -17t-42 17t-17 42v1287h-715q-25 0 -42 17t-17 42z" />
<glyph unicode="U" horiz-adv-x="1652" d="M82 309v1096q0 25 17 42t42 17t42.5 -17t17.5 -42v-1096l178 -190h897h2l176 190v1096q0 25 17 42t42 17t41.5 -17t16.5 -42v-1096q0 -44 -31 -80l-176 -190q-36 -39 -88 -39h-897q-52 0 -88 39l-176 190q-33 38 -33 80z" />
<glyph unicode="V" horiz-adv-x="1755" d="M82 1073v332q0 25 17 42t42 17t42.5 -17t17.5 -42v-311l678 -934l675 934v311q0 25 17.5 42t42.5 17t42 -17t17 -42v-330q0 -23 -12 -35l-735 -1015q-19 -25 -47 -25q-31 0 -50 25l-735 1015q-12 12 -12 33z" />
<glyph unicode="W" horiz-adv-x="2490" d="M82 862v547q0 25 17 42t42 17t42.5 -17t17.5 -42v-549q1 -1 2 -3t2 -3l479 -692l498 710q0 3 4 7v530q0 25 17 42t42 17t42.5 -17t17.5 -42v-549l6 -6l477 -692l498 710l4 7v530q0 25 17 42t42 17t42 -17t17 -42v-530q0 -45 -28 -76l-543 -778q-18 -25 -49 -25 q-29 0 -47 25l-502 725l-506 -725q-21 -25 -49 -25t-49 25l-524 759q-29 37 -29 78z" />
<glyph unicode="X" horiz-adv-x="1599" d="M82 59v232q0 29 19.5 58t50.5 46l536 334l-536 334q-31 15 -50.5 44t-19.5 60v232q0 25 17 42t40 17q25 0 42.5 -17t17.5 -42v-225l6 -7q2 0 6 -4l588 -364l587 364q4 4 9 4l6 7v225q0 25 17 42t40 17q25 0 42.5 -17t17.5 -42v-232q0 -31 -20 -60t-52 -44l-535 -334 l535 -334q32 -17 52 -46t20 -58v-232q0 -25 -17.5 -42t-42.5 -17q-23 0 -40 17t-17 42v226l-6 6q-2 0 -5 1t-4 1l-587 366l-588 -366q-1 0 -3 -1t-3 -1l-6 -6v-226q0 -25 -17.5 -42t-42.5 -17q-23 0 -40 17t-17 42z" />
<glyph unicode="Y" horiz-adv-x="1533" d="M82 272q1 24 18 41q19 17 43 16t41 -20l176 -190h797l178 190v2v293h-958q-52 0 -88 39l-174 191q-33 38 -33 79v498q0 25 17 42t42 17t42.5 -17t17.5 -42v-498l176 -190h958v688q0 25 17.5 42t42.5 17t41 -17t16 -42v-1100q0 -46 -31 -82l-176 -190q-36 -39 -88 -39 h-797q-50 0 -86 39l-176 190q-17 19 -16 43z" />
<glyph unicode="Z" horiz-adv-x="1585" d="M82 59v222q0 30 27 47l1277 880v133h-1245q-25 0 -42 17.5t-17 42.5q0 23 17 40t42 17h1305q23 0 40 -17t17 -40v-223q0 -35 -24 -50l-1278 -878v-131h1245q23 0 40 -17.5t17 -42.5t-17 -42t-40 -17h-1305q-25 0 -42 17t-17 42z" />
<glyph unicode="[" horiz-adv-x="411" d="M82 -215v1911q0 25 17 42t42 17h191q25 0 42 -17t17 -42t-17 -42.5t-42 -17.5h-131v-1792h131q25 0 42 -17t17 -42t-17 -42t-42 -17h-191q-25 0 -42 17t-17 42z" />
<glyph unicode="\" horiz-adv-x="743" d="M45 1368q-9 22 0.5 44.5t32.5 31.5t46 0t32 -31l542 -1331q9 -23 0 -46t-32 -32q-12 -4 -23 -4q-39 0 -55 37z" />
<glyph unicode="]" horiz-adv-x="411" d="M20 -215q0 25 17.5 42t42.5 17h131v1792h-131q-25 0 -42.5 17.5t-17.5 42.5t17.5 42t42.5 17h190q25 0 42.5 -17t17.5 -42v-1911q0 -25 -17.5 -42t-42.5 -17h-190q-25 0 -42.5 17t-17.5 42z" />
<glyph unicode="^" horiz-adv-x="776" d="M81 1145q0 24 19 43l246 246q17 17 42 17t42 -17l246 -246q19 -19 19 -43t-19 -41q-17 -19 -41 -19t-43 19l-203 205l-205 -205q-19 -19 -43 -19q-25 0 -41 19q-19 17 -19 41z" />
<glyph unicode="_" horiz-adv-x="1146" d="M82 59q0 25 17 42.5t42 17.5h865q25 0 42 -17.5t17 -42.5t-17 -42t-42 -17h-865q-25 0 -42 17t-17 42z" />
<glyph unicode="`" horiz-adv-x="1228" d="M441.5 1553q-3.5 24 11.5 44q14 20 38 24t44 -11l196 -144q20 -15 24 -39.5t-10 -44.5q-13 -17 -33.5 -22t-39.5 4l-10 6l-197 146q-20 13 -23.5 37z" />
<glyph unicode="a" horiz-adv-x="1527" d="M82 57v1069q0 46 31 82l176 189q34 37 88 37h774q56 0 86 -37l178 -189q31 -40 31 -82v-1069q0 -24 -17.5 -40.5t-42.5 -16.5t-42 16t-17 41v533h-1128v-533q0 -24 -17.5 -40.5t-42.5 -16.5q-24 0 -40.5 16.5t-16.5 40.5zM199 596q2 2 0 6v-6zM199 696v2v-2zM199 709 h1128v417l-174 191l-2 2h-774q-2 0 -2 -2l-174 -191h-2v-417zM1327 596v6q-2 -4 0 -6zM1327 696v2v-2z" />
<glyph unicode="b" horiz-adv-x="1593" d="M82 59v1321q0 25 17 41.5t42 16.5h1045q44 0 80 -31l190 -176q39 -36 39 -88v-127q0 -52 -39 -88l-147 -137l166 -154q36 -33 36 -86v-256q0 -53 -36 -86l-191 -178q-36 -31 -82 -31h-1061q-25 0 -42 17t-17 42zM201 119h1001l193 176v256l-187 170h-1007v-602zM201 846 h993l182 170v127v2l-190 176h-985v-475z" />
<glyph unicode="c" d="M82 295v848q0 54 37 88l192 176q31 31 80 31h926q49 0 80 -31l211 -195q19 -17 20 -41t-16 -43t-41 -19t-43 17l-211 195h-926l-192 -178v-848l192 -176h926l211 194q19 17 43 16t41 -20q17 -17 16 -42t-20 -42l-211 -194q-31 -31 -80 -31h-926q-49 0 -80 31l-192 176 q-37 34 -37 88z" />
<glyph unicode="d" horiz-adv-x="1687" d="M82 59v1321q0 25 17 41.5t42 16.5h1155q44 0 80 -31l191 -176q39 -36 39 -88v-848q0 -50 -39 -86l-191 -178q-36 -31 -82 -31h-1153q-25 0 -42 17t-17 42zM201 119h1093h2l191 176v850l-191 176h-1095v-1202z" />
<glyph unicode="e" horiz-adv-x="1574" d="M82 57v662v659q0 25 17 42.5t42 17.5h1061q49 0 80 -31l193 -178q17 -17 18 -41t-16 -41q-17 -19 -41 -20t-43 16l-191 176h-1001v-541h1007q25 0 41.5 -17t16.5 -42t-16.5 -42.5t-41.5 -17.5h-1007v-542h1001l191 178q19 17 43 16t41 -20q17 -17 16 -42t-18 -42 l-193 -176q-31 -31 -80 -31h-1061q-25 0 -42 17t-17 40z" />
<glyph unicode="f" horiz-adv-x="1574" d="M82 59v676v2v660q0 25 17 42t42 17h1061q44 0 82 -33l191 -176q17 -17 18 -41t-16 -43q-15 -19 -40 -19t-42 17l-193 176h-1001v-542h1007q25 0 42.5 -17.5t17.5 -42.5q0 -23 -17.5 -40t-42.5 -17h-1007v-619q0 -25 -17.5 -42t-42.5 -17t-42 17t-17 42z" />
<glyph unicode="g" d="M82 295v848q0 54 37 88l192 176q31 31 80 31h926q49 0 80 -31l211 -195q19 -17 20 -41t-16 -43t-41 -19t-43 17l-211 195h-926l-192 -178v-848l192 -176h926l192 176v364h-655q-25 0 -42 17.5t-17 42.5t17 42t42 17h715q23 0 40 -17t17 -42v-449q0 -27 -18 -45l-211 -194 q-34 -31 -80 -31h-926q-49 0 -80 31l-192 176q-37 34 -37 88z" />
<glyph unicode="h" horiz-adv-x="1593" d="M82 57v1338q0 25 17 42t42 17t42.5 -17t17.5 -42v-600h1194v600q0 25 16 42t41 17t42 -17t17 -42v-1338q0 -25 -17 -42t-42 -17t-41 17t-16 42v619h-1194v-619q0 -25 -17.5 -42t-42.5 -17t-42 17t-17 42z" />
<glyph unicode="i" horiz-adv-x="1425" d="M82 59q0 25 17 42.5t42 17.5h512v1218h-512q-25 0 -42 17.5t-17 42.5t17 42t42 17h1143q25 0 42 -17t17 -42t-17 -42.5t-42 -17.5h-512v-1218h512q25 0 42 -17.5t17 -42.5t-17 -42t-42 -17h-1143q-25 0 -42 17t-17 42z" />
<glyph unicode="j" horiz-adv-x="1347" d="M41 267q-1 25 16 42q15 19 40 20t42 -16l211 -194h604h2l191 176v1026h-524q-25 0 -42.5 17t-17.5 42t17.5 41.5t42.5 16.5h583q25 0 42.5 -16.5t17.5 -41.5v-1085q0 -50 -39 -86l-191 -178q-36 -31 -82 -31h-604q-44 0 -80 31l-211 194q-17 17 -18 42z" />
<glyph unicode="k" horiz-adv-x="1599" d="M82 59v387v934q0 25 17 41.5t42 16.5t42.5 -16.5t17.5 -41.5v-841l1188 520q2 0 6 4v317q0 25 17 41.5t42 16.5t41 -16.5t16 -41.5v-323q0 -31 -20.5 -61.5t-52.5 -45.5h-2l-533 -233l381 -598h174q25 0 42.5 -17.5t17.5 -42.5t-17.5 -42t-42.5 -17h-174h-2q-44 0 -80 31 l-10 12l-397 627l-594 -260v-351q0 -25 -17.5 -42t-42.5 -17t-42 17t-17 42z" />
<glyph unicode="l" horiz-adv-x="1540" d="M82 295v1110q0 25 17 42t40 17q25 0 42.5 -17t17.5 -42v-1110l192 -176h758l209 194q19 17 43 16t41 -20q17 -17 16 -42t-20 -42l-209 -194q-36 -31 -82 -31h-756q-49 0 -80 31l-192 176q-37 34 -37 88z" />
<glyph unicode="m" horiz-adv-x="2093" d="M82 59v1338q0 25 17 42t42 17h207q28 0 49 -24l650 -904l653 904q18 24 49 24h205q25 0 41 -17t16 -42v-1338q0 -25 -17 -42t-40 -17q-25 0 -42.5 17t-17.5 42v1278h-116l-682 -946q-21 -24 -49 -24q-31 0 -48 24l-680 946h-118v-1278q0 -25 -17.5 -42t-42.5 -17t-42 17 t-17 42z" />
<glyph unicode="n" horiz-adv-x="1738" d="M82 59v1338q0 25 17 42t42 17h195q28 0 47 -22l1040 -1315h115v1278q0 25 17 42t42 17t42.5 -17t17.5 -42v-1338q0 -25 -17.5 -42t-42.5 -17h-202q-31 0 -47 23l-1041 1316l-106 -2v-1278q0 -25 -17.5 -42t-42.5 -17t-42 17t-17 42z" />
<glyph unicode="o" d="M82 281v14v848v16q-4 31 18 53l211 195q32 28 64 31q6 2 16 2h926h6q46 -3 76 -33l190 -174q1 -2 4 -5t4 -5l11 -11q25 -22 18 -53l2 -14v-848q0 -3 -1 -8t-1 -8q7 -32 -18 -54l-209 -194q-28 -25 -66 -31q-2 0 -7.5 -1t-8.5 -1h-926h-4q-46 3 -76 33l-190 176q-5 3 -8 8 l-13 10q-22 22 -18 54zM201 297l190 -178h926l192 178v848l-190 176h-2h-926l-190 -178v-846z" />
<glyph unicode="p" horiz-adv-x="1593" d="M82 57v1321q0 25 17 42.5t42 17.5h1061q46 0 82 -31l191 -178q36 -33 36 -86v-256q0 -53 -36 -86l-193 -176q-33 -33 -80 -33h-1001v-535q0 -24 -17.5 -40.5t-42.5 -16.5t-42 16t-17 41zM201 711h1001l193 176v256l-193 176h-1001v-608z" />
<glyph unicode="q" d="M82 295v848q0 10 2 16q-7 30 16 53l211 195q28 25 64 31h18h926h4q42 0 76 -31l190 -176l8 -8l13 -11q23 -23 16 -53q2 -6 2 -16v-848q0 -10 -2 -14q7 -33 -16 -56l-211 -194q-29 -26 -64 -29q-6 -2 -16 -2h-166v-158h2l100 -116q17 -19 16 -43t-20 -41q-23 -15 -39 -15 q-28 0 -45 21l-102 116q-31 34 -31 80v156h-641h-6q-45 3 -76 31l-190 176l-8 8l-13 10q-23 23 -16 56q-2 4 -2 14zM201 295l192 -176h641v155v2l-102 117q-15 19 -13.5 43t19.5 39q19 17 43 15t41 -21l100 -115q31 -36 31 -80v-155h166l190 176v848l-190 178h-928 l-190 -178v-848z" />
<glyph unicode="r" horiz-adv-x="1599" d="M82 59v1321q0 25 17 41.5t42 16.5h1061q49 0 80 -31l193 -176q36 -36 36 -88v-254q0 -52 -36 -88l-193 -176q-31 -31 -80 -31h-149l233 -475h172l60 -60q0 -25 -17.5 -42t-42.5 -17h-176q-44 0 -80 31q-9 9 -12 18l-268 545h-721v-535q0 -25 -17.5 -42t-42.5 -17t-42 17 t-17 42zM201 711h1001v2l191 174l2 2l-2 254l-191 178h-1001v-610z" />
<glyph unicode="s" horiz-adv-x="1669" d="M82 267q-1 25 16 42q17 19 41 20t43 -16l209 -194h909l193 176v2v229l-193 176h-909q-42 0 -80 33l-190 176q-39 36 -39 88v168q0 52 39 88l190 177q37 32 82 32h924q45 0 82 -32l211 -195q17 -15 18 -40t-16 -42q-17 -19 -41 -20t-43 16l-209 195h-2h-924h-2l-190 -179 v-168v-2l190 -176h909q48 0 82 -30l191 -179q39 -36 39 -88v-227q0 -52 -39 -88l-191 -178q-36 -31 -82 -31h-909q-40 0 -80 31l-211 194q-17 17 -18 42z" />
<glyph unicode="t" horiz-adv-x="1830" d="M82 1405q0 25 17 42t42 17h1549q25 0 42 -17t17 -42t-17 -42t-42 -17h-715v-1287q0 -25 -17.5 -42t-42.5 -17t-42 17t-17 42v1287h-715q-25 0 -42 17t-17 42z" />
<glyph unicode="u" horiz-adv-x="1652" d="M82 309v1096q0 25 17 42t42 17t42.5 -17t17.5 -42v-1096l178 -190h897h2l176 190v1096q0 25 17 42t42 17t41.5 -17t16.5 -42v-1096q0 -44 -31 -80l-176 -190q-36 -39 -88 -39h-897q-52 0 -88 39l-176 190q-33 38 -33 80z" />
<glyph unicode="v" horiz-adv-x="1755" d="M82 1073v332q0 25 17 42t42 17t42.5 -17t17.5 -42v-311l678 -934l675 934v311q0 25 17.5 42t42.5 17t42 -17t17 -42v-330q0 -23 -12 -35l-735 -1015q-19 -25 -47 -25q-31 0 -50 25l-735 1015q-12 12 -12 33z" />
<glyph unicode="w" horiz-adv-x="2490" d="M82 862v547q0 25 17 42t42 17t42.5 -17t17.5 -42v-549q1 -1 2 -3t2 -3l479 -692l498 710q0 3 4 7v530q0 25 17 42t42 17t42.5 -17t17.5 -42v-549l6 -6l477 -692l498 710l4 7v530q0 25 17 42t42 17t42 -17t17 -42v-530q0 -45 -28 -76l-543 -778q-18 -25 -49 -25 q-29 0 -47 25l-502 725l-506 -725q-21 -25 -49 -25t-49 25l-524 759q-29 37 -29 78z" />
<glyph unicode="x" horiz-adv-x="1599" d="M82 59v232q0 29 19.5 58t50.5 46l536 334l-536 334q-31 15 -50.5 44t-19.5 60v232q0 25 17 42t40 17q25 0 42.5 -17t17.5 -42v-225l6 -7q2 0 6 -4l588 -364l587 364q4 4 9 4l6 7v225q0 25 17 42t40 17q25 0 42.5 -17t17.5 -42v-232q0 -31 -20 -60t-52 -44l-535 -334 l535 -334q32 -17 52 -46t20 -58v-232q0 -25 -17.5 -42t-42.5 -17q-23 0 -40 17t-17 42v226l-6 6q-2 0 -5 1t-4 1l-587 366l-588 -366q-1 0 -3 -1t-3 -1l-6 -6v-226q0 -25 -17.5 -42t-42.5 -17q-23 0 -40 17t-17 42z" />
<glyph unicode="y" horiz-adv-x="1533" d="M82 272q1 24 18 41q19 17 43 16t41 -20l176 -190h797l178 190v2v293h-958q-52 0 -88 39l-174 191q-33 38 -33 79v498q0 25 17 42t42 17t42.5 -17t17.5 -42v-498l176 -190h958v688q0 25 17.5 42t42.5 17t41 -17t16 -42v-1100q0 -46 -31 -82l-176 -190q-36 -39 -88 -39 h-797q-50 0 -86 39l-176 190q-17 19 -16 43z" />
<glyph unicode="z" horiz-adv-x="1585" d="M82 59v222q0 30 27 47l1277 880v133h-1245q-25 0 -42 17.5t-17 42.5q0 23 17 40t42 17h1305q23 0 40 -17t17 -40v-223q0 -35 -24 -50l-1278 -878v-131h1245q23 0 40 -17.5t17 -42.5t-17 -42t-40 -17h-1305q-25 0 -42 17t-17 42z" />
<glyph unicode="{" horiz-adv-x="532" d="M90 717q-17 30 0 57l111 199v723q0 25 17 42t42 17h193q25 0 42 -17t17 -42t-17 -42.5t-42 -17.5h-134v-678q0 -16 -6 -28l-104 -185l104 -196q6 -12 6 -27v-676h134q25 0 42 -17t17 -42t-17 -42t-42 -17h-193q-25 0 -42 17t-17 42v719z" />
<glyph unicode="|" horiz-adv-x="282" d="M82 -104v1650q0 25 17 42.5t42 17.5t42.5 -17.5t17.5 -42.5v-1650q0 -25 -17.5 -42.5t-42.5 -17.5t-42 17.5t-17 42.5z" />
<glyph unicode="}" horiz-adv-x="532" d="M20 -213q0 25 17.5 42t42.5 17h133v678q0 16 6 31l105 184l-105 195q-6 12 -6 29v675h-133q-25 0 -42.5 17.5t-17.5 42.5t17.5 42t42.5 17h192q25 0 42.5 -17t17.5 -42v-721l110 -211q16 -28 0 -57l-110 -199v-723q0 -25 -17.5 -42t-42.5 -17h-192q-25 0 -42.5 17 t-17.5 42z" />
<glyph unicode="~" horiz-adv-x="794" d="M86 770q-9 23 1.5 45t33.5 31l139 51q22 10 45 0l211 -96l117 43q23 9 45 -1.5t31 -33.5t-1.5 -45t-33.5 -31l-139 -53q-27 -7 -48 2l-208 96l-117 -43q-22 -10 -45 0q-21 9 -31 35z" />
<glyph unicode="&#xa1;" horiz-adv-x="282" d="M82 59v926q0 25 17 42t42 17t42.5 -17t17.5 -42v-926q0 -25 -17.5 -42t-42.5 -17t-42 17t-17 42zM82 1356v53q0 25 17 42t42 17t42.5 -17t17.5 -42v-53q0 -25 -17.5 -42.5t-42.5 -17.5t-42 17.5t-17 42.5z" />
<glyph unicode="&#xa8;" horiz-adv-x="1228" d="M401 1462v51q0 25 17.5 42.5t42.5 17.5t42 -17.5t17 -42.5v-51q0 -25 -17 -42t-42 -17t-42.5 17t-17.5 42zM629 1462v51q0 25 17 42.5t42 17.5t42.5 -17.5t17.5 -42.5v-51q0 -25 -17.5 -42t-42.5 -17t-42 17t-17 42z" />
<glyph unicode="&#xa9;" d="M82 281v14v848q0 10 2 16q-7 30 16 53l211 195q28 25 64 31h16h926h6q42 0 76 -31l190 -176l8 -8l13 -11q23 -23 16 -53q2 -6 2 -16v-848q0 -10 -2 -14q7 -33 -16 -56l-211 -194q-29 -26 -64 -29q-6 -2 -18 -2h-926h-4q-45 3 -76 31l-190 176l-8 8l-13 10q-21 21 -18 56z M201 295l190 -176h928l190 176v848l-192 178h-926l-190 -178v-848zM334 541v358q0 49 37 86l192 178q31 31 80 31h424q44 0 80 -31l211 -194q17 -17 18 -42t-16 -42q-15 -19 -40 -20t-42 16l-211 194h-424l-190 -176h-2v-358q0 -2 2 -2l190 -177h424l211 195q17 17 42 16 t40 -18q17 -19 16 -43t-18 -41l-211 -195q-37 -32 -80 -32h-424q-48 0 -80 32l-192 177q-37 37 -37 88z" />
<glyph unicode="&#xab;" horiz-adv-x="825" d="M82 733q0 25 20 45l203 172q18 15 42.5 13.5t39.5 -21.5q17 -19 15 -43t-21 -39l-148 -127l152 -131q18 -15 19.5 -39t-13.5 -43q-19 -22 -45 -22q-22 0 -39 14l-205 176q-20 17 -20 45zM420 733q0 25 20 45l203 172q18 15 42.5 13.5t39.5 -21.5q17 -19 15 -43t-21 -39 l-148 -127l152 -131q18 -15 19.5 -39t-13.5 -43q-19 -22 -45 -22q-22 0 -39 14l-205 176q-20 17 -20 45z" />
<glyph unicode="&#xad;" horiz-adv-x="1228" d="M51 854q0 25 17.5 42t42.5 17h639q25 0 42 -17t17 -42t-17 -42t-42 -17h-639q-25 0 -42.5 17t-17.5 42z" />
<glyph unicode="&#xae;" d="M82 281v14v848q0 10 2 16q-7 30 16 53l211 195q28 25 64 31h16h926h6q42 0 76 -31l190 -176l8 -8l13 -11q23 -23 16 -53q2 -6 2 -16v-848q0 -10 -2 -14q7 -33 -16 -56l-211 -194q-29 -26 -64 -29q-6 -2 -18 -2h-926h-4q-45 3 -76 31l-190 176l-8 8l-13 10q-21 21 -18 56z M201 295l190 -176h928l190 176v848l-192 178h-926l-190 -178v-848zM410 297v844q0 25 17 42t42 17h616q42 0 80 -33l129 -114q39 -36 39 -88v-131q0 -53 -39 -89l-129 -114q-36 -31 -80 -31h-88l97 -244l172 2l59 -59q0 -25 -17 -42t-42 -17h-176q-46 0 -80 30q-7 4 -15 17 l-131 313h-336v-303q0 -25 -17 -41t-42 -16t-42 16t-17 41zM528 717h557l129 117v131v2l-129 114h-557v-364z" />
<glyph unicode="&#xaf;" horiz-adv-x="1228" d="M367 1456q0 25 17 42.5t42 17.5h367q25 0 42 -17.5t17 -42.5t-17 -42t-42 -17h-367q-25 0 -42 17t-17 42z" />
<glyph unicode="&#xb0;" horiz-adv-x="698" d="M82 1139v82q0 54 37 88l2 2l106 92q36 31 80 31h82q44 0 80 -31l106 -92h3q38 -35 38 -88v-84q0 -53 -41 -88l-106 -93q-35 -30 -80 -30h-82q-45 0 -80 30l-106 91q0 2 -2 2q-37 34 -37 88zM201 1139l106 -92h82h2l105 92h2v84h-2l-105 90q0 2 -2 2h-82l-2 -2l-104 -92 v-82z" />
<glyph unicode="&#xb1;" horiz-adv-x="1208" d="M82 59q0 25 17 42.5t42 17.5h926q25 0 42 -17.5t17 -42.5t-17 -42t-42 -17h-926q-25 0 -42 17t-17 42zM82 729q0 25 17 42t42 17h404v404q0 25 17 42t42 17t42.5 -17t17.5 -42v-404h403q25 0 42 -17t17 -42t-17 -42t-42 -17h-403v-404q0 -25 -17.5 -42t-42.5 -17t-42 17 t-17 42v404h-404q-25 0 -42 17t-17 42z" />
<glyph unicode="&#xb4;" horiz-adv-x="1228" d="M459.5 1453.5q-3.5 -24.5 11.5 -44.5q12 -17 32.5 -22t39.5 4q8 4 10 6l199 145q20 13 23 37.5t-11 44.5q-15 20 -39.5 23.5t-44.5 -11.5l-197 -143q-20 -15 -23.5 -39.5z" />
<glyph unicode="&#xb6;" horiz-adv-x="1169" d="M82 889v254q0 52 39 88l190 176q36 31 80 31h346q25 0 42.5 -16.5t17.5 -41.5v-1321q0 -25 -17.5 -42t-42.5 -17t-42 17t-17 42v535h-287q-44 0 -80 31l-190 176q-39 36 -39 88zM969 59v1323q0 25 17 42.5t42 17.5t42 -17.5t17 -42.5v-1323q0 -25 -17 -42t-42 -17t-42 17 t-17 42z" />
<glyph unicode="&#xb7;" horiz-adv-x="282" d="M82 827v52q0 25 17 42t42 17t42.5 -17t17.5 -42v-52q0 -25 -17.5 -42t-42.5 -17t-42 17t-17 42z" />
<glyph unicode="&#xb8;" horiz-adv-x="1228" d="M487 12q0 25 17.5 42.5t42.5 17.5t42 -17.5t17 -42.5v-96q37 -3 70 -33l88 -73q39 -36 39 -86v-50q0 -52 -39 -88l-88 -73q-36 -31 -82 -31h-47q-25 0 -42.5 16.5t-17.5 40.5q0 25 17.5 42.5t42.5 17.5h47h2l88 75v50l-88 73h-49q-25 0 -42.5 17.5t-17.5 42.5v2v153z" />
<glyph unicode="&#xbb;" horiz-adv-x="811" d="M82.5 899q-1.5 24 13.5 43q15 20 40.5 21.5t43.5 -13.5l205 -176q21 -18 21 -45q0 -24 -21 -45l-203 -172q-17 -14 -39 -14q-26 0 -45 22q-15 19 -13.5 43t19.5 39l150 127l-152 131q-18 15 -19.5 39zM406.5 899q-1.5 24 13.5 43q15 20 40.5 21.5t43.5 -13.5l205 -176 q20 -17 20 -45q0 -25 -20 -45l-203 -172q-18 -14 -39 -14q-26 0 -45 22q-15 19 -13.5 43t19.5 39l150 127l-152 131q-18 15 -19.5 39z" />
<glyph unicode="&#xbf;" horiz-adv-x="1716" d="M82 256v170q0 52 39 88l190 178q36 31 82 31h258l193 178v2v76q0 25 17 42t42 17t42.5 -17t17.5 -42v-76q0 -52 -39 -88l-191 -178q-38 -33 -82 -33h-258l-192 -178v-170l192 -178h930l211 194q19 17 43 17t41 -19t16 -43t-18 -41l-211 -194q-38 -33 -82 -33h-930 q-44 0 -82 33l-190 176q-39 36 -39 88zM850 1309v65q0 25 17 42.5t42 17.5t42.5 -17.5t17.5 -42.5v-65q0 -25 -17.5 -42.5t-42.5 -17.5t-42 17.5t-17 42.5z" />
<glyph unicode="&#xc0;" horiz-adv-x="1527" d="M82 57v1069q0 46 31 82l176 189q34 37 88 37h774q56 0 86 -37l178 -189q31 -40 31 -82v-1069q0 -24 -17.5 -40.5t-42.5 -16.5t-42 16t-17 41v533h-1128v-533q0 -24 -17.5 -40.5t-42.5 -16.5q-24 0 -40.5 16.5t-16.5 40.5zM199 596q2 2 0 6v-6zM199 696v2v-2zM199 709 h1128v417l-174 191l-2 2h-774q-2 0 -2 -2l-174 -191h-2v-417zM578.5 1702.5q-3.5 24.5 11.5 44.5q13 20 37.5 23.5t44.5 -11.5l196 -143q20 -15 24.5 -39.5t-9.5 -44.5q-14 -17 -34.5 -22.5t-39.5 3.5l-10 7l-197 145q-20 13 -23.5 37.5zM1327 596v6q-2 -4 0 -6zM1327 696v2 v-2z" />
<glyph unicode="&#xc1;" horiz-adv-x="1527" d="M82 57v1069q0 46 31 82l176 189q34 37 88 37h774q56 0 86 -37l178 -189q31 -40 31 -82v-1069q0 -24 -17.5 -40.5t-42.5 -16.5t-42 16t-17 41v533h-1128v-533q0 -24 -17.5 -40.5t-42.5 -16.5q-24 0 -40.5 16.5t-16.5 40.5zM199 596q2 2 0 6v-6zM199 696v2v-2zM199 709 h1128v417l-174 191l-2 2h-774q-2 0 -2 -2l-174 -191h-2v-417zM590.5 1621.5q-3.5 -24.5 11.5 -44.5q12 -17 32.5 -22t39.5 4q8 4 10 6l199 145q20 13 23 37.5t-11 44.5q-15 20 -39.5 23.5t-44.5 -11.5l-197 -143q-20 -15 -23.5 -39.5zM1327 596v6q-2 -4 0 -6zM1327 696v2v-2 z" />
<glyph unicode="&#xc2;" horiz-adv-x="1527" d="M82 57v1069q0 46 31 82l176 189q34 37 88 37h774q56 0 86 -37l178 -189q31 -40 31 -82v-1069q0 -24 -17.5 -40.5t-42.5 -16.5t-42 16t-17 41v533h-1128v-533q0 -24 -17.5 -40.5t-42.5 -16.5q-24 0 -40.5 16.5t-16.5 40.5zM199 596q2 2 0 6v-6zM199 696v2v-2zM199 709 h1128v417l-174 191l-2 2h-774q-2 0 -2 -2l-174 -191h-2v-417zM425 1594q0 25 19 42l246 246q17 19 42 19t42 -19l246 -246q17 -17 17 -42t-17 -42t-42 -17t-42 17l-205 205l-203 -205q-19 -16 -43 -16q-25 0 -41 16q-19 17 -19 42zM1327 596v6q-2 -4 0 -6zM1327 696v2v-2z " />
<glyph unicode="&#xc3;" horiz-adv-x="1527" d="M82 57v1069q0 46 31 82l176 189q34 37 88 37h774q56 0 86 -37l178 -189q31 -40 31 -82v-1069q0 -24 -17.5 -40.5t-42.5 -16.5t-42 16t-17 41v533h-1128v-533q0 -24 -17.5 -40.5t-42.5 -16.5q-24 0 -40.5 16.5t-16.5 40.5zM199 596q2 2 0 6v-6zM199 696v2v-2zM199 709 h1128v417l-174 191l-2 2h-774q-2 0 -2 -2l-174 -191h-2v-417zM483 1634q-9 23 0 46t31 32l137 60q21 9 45 2l154 -62l115 49q22 11 44.5 2t32.5 -32q9 -22 0.5 -45t-30.5 -33l-138 -60q-23 -10 -45 0l-153 60l-113 -49q-25 -9 -47 0q-19 5 -33 30zM1327 596v6q-2 -4 0 -6z M1327 696v2v-2z" />
<glyph unicode="&#xc4;" horiz-adv-x="1527" d="M82 57v1069q0 46 31 82l176 189q34 37 88 37h774q56 0 86 -37l178 -189q31 -40 31 -82v-1069q0 -24 -17.5 -40.5t-42.5 -16.5t-42 16t-17 41v533h-1128v-533q0 -24 -17.5 -40.5t-42.5 -16.5q-24 0 -40.5 16.5t-16.5 40.5zM199 596q2 2 0 6v-6zM199 696v2v-2zM199 709 h1128v417l-174 191l-2 2h-774q-2 0 -2 -2l-174 -191h-2v-417zM575 1606v51q0 25 17.5 42t42.5 17t42 -17t17 -42v-51q0 -25 -17 -42.5t-42 -17.5t-42.5 17.5t-17.5 42.5zM803 1606v51q0 25 17 42t42 17t42.5 -17t17.5 -42v-51q0 -25 -17.5 -42.5t-42.5 -17.5t-42 17.5 t-17 42.5zM1327 596v6q-2 -4 0 -6zM1327 696v2v-2z" />
<glyph unicode="&#xc5;" horiz-adv-x="1527" d="M82 57v1069q0 46 31 82l176 189q34 37 88 37h774q56 0 86 -37l178 -189q31 -40 31 -82v-1069q0 -24 -17.5 -40.5t-42.5 -16.5t-42 16t-17 41v533h-1128v-533q0 -24 -17.5 -40.5t-42.5 -16.5q-24 0 -40.5 16.5t-16.5 40.5zM199 596q2 2 0 6v-6zM199 696v2v-2zM199 709 h1128v417l-174 191l-2 2h-774q-2 0 -2 -2l-174 -191h-2v-417zM520 1718v64q0 52 39 88l86 72q35 30 80 30h53q50 0 80 -30l86 -70l2 -2q39 -36 39 -88v-62q0 -52 -39 -88q0 -2 -2 -2l-84 -71q-36 -31 -82 -31h-53q-44 0 -80 31l-86 71q-39 36 -39 88zM639 1718l84 -69l2 -2 h53h2v2l86 71v62l-86 71h-2h-53h-2l-84 -71v-64zM1327 596v6q-2 -4 0 -6zM1327 696v2v-2z" />
<glyph unicode="&#xc6;" horiz-adv-x="3102" d="M82 57v1069q0 46 31 82l176 189q34 37 88 37h774q56 0 86 -37l178 -189q31 -40 31 -82v-1069q0 -24 -17.5 -40.5t-42.5 -16.5t-42 16t-17 41v533h-1128v-533q0 -24 -17.5 -40.5t-42.5 -16.5q-24 0 -40.5 16.5t-16.5 40.5zM199 596q2 2 0 6v-6zM199 696v2v-2zM199 709 h1128v417l-174 191l-2 2h-774q-2 0 -2 -2l-174 -191h-2v-417zM1327 596v6q-2 -4 0 -6zM1327 696v2v-2zM1610 57v662v659q0 25 17 42.5t42 17.5h1061q49 0 80 -31l192 -178q17 -17 18 -41t-16 -41q-17 -19 -41 -20t-43 16l-190 176h-1001v-541h1007q25 0 41 -17t16 -42 t-16.5 -42.5t-40.5 -17.5h-1007v-542h1001l190 178q19 17 43 16t41 -20q17 -17 16 -42t-18 -42l-192 -176q-31 -31 -80 -31h-1061q-25 0 -42 17t-17 40z" />
<glyph unicode="&#xc7;" d="M82 295v848q0 54 37 88l192 176q31 31 80 31h926q49 0 80 -31l211 -195q19 -17 20 -41t-16 -43t-41 -19t-43 17l-211 195h-926l-192 -178v-848l192 -176h926l211 194q19 17 43 16t41 -20q17 -17 16 -42t-20 -42l-211 -194q-31 -31 -80 -31h-426v-70q38 -3 70 -32l88 -74 q38 -35 38 -86v-49q0 -53 -38 -88l-88 -74q-36 -31 -82 -31h-48q-25 0 -42 16.5t-17 41.5t17 42t42 17h48h2l88 76v49l-88 74h-50q-25 0 -42 17t-17 42v2v127h-381q-49 0 -80 31l-192 176q-37 34 -37 88z" />
<glyph unicode="&#xc8;" horiz-adv-x="1574" d="M82 57v662v659q0 25 17 42.5t42 17.5h1061q49 0 80 -31l193 -178q17 -17 18 -41t-16 -41q-17 -19 -41 -20t-43 16l-191 176h-1001v-541h1007q25 0 41.5 -17t16.5 -42t-16.5 -42.5t-41.5 -17.5h-1007v-542h1001l191 178q19 17 43 16t41 -20q17 -17 16 -42t-18 -42 l-193 -176q-31 -31 -80 -31h-1061q-25 0 -42 17t-17 40zM597 1740q-4 24 11 44q13 20 37.5 23.5t44.5 -11.5l197 -143q20 -15 24 -39.5t-10 -44.5q-14 -17 -34.5 -22.5t-39.5 3.5l-10 6l-196 146q-20 14 -24 38z" />
<glyph unicode="&#xc9;" horiz-adv-x="1574" d="M82 57v662v659q0 25 17 42.5t42 17.5h1061q49 0 80 -31l193 -178q17 -17 18 -41t-16 -41q-17 -19 -41 -20t-43 16l-191 176h-1001v-541h1007q25 0 41.5 -17t16.5 -42t-16.5 -42.5t-41.5 -17.5h-1007v-542h1001l191 178q19 17 43 16t41 -20q17 -17 16 -42t-18 -42 l-193 -176q-31 -31 -80 -31h-1061q-25 0 -42 17t-17 40zM615.5 1603q-3.5 -24 11.5 -44q12 -17 32 -22.5t39 3.5q10 5 11 6l198 146q20 13 23.5 37.5t-10.5 44.5q-15 20 -39.5 23.5t-44.5 -11.5l-197 -144q-20 -15 -23.5 -39z" />
<glyph unicode="&#xca;" horiz-adv-x="1574" d="M82 57v662v659q0 25 17 42.5t42 17.5h1061q49 0 80 -31l193 -178q17 -17 18 -41t-16 -41q-17 -19 -41 -20t-43 16l-191 176h-1001v-541h1007q25 0 41.5 -17t16.5 -42t-16.5 -42.5t-41.5 -17.5h-1007v-542h1001l191 178q19 17 43 16t41 -20q17 -17 16 -42t-18 -42 l-193 -176q-31 -31 -80 -31h-1061q-25 0 -42 17t-17 40zM475 1594q0 25 19 42l245 246q17 19 42 19t42 -19l246 -246q17 -17 17 -42t-17 -42t-42 -17t-42 17l-205 205l-202 -205q-19 -16 -43 -16q-25 0 -41 16q-19 17 -19 42z" />
<glyph unicode="&#xcb;" horiz-adv-x="1574" d="M82 57v662v659q0 25 17 42.5t42 17.5h1061q49 0 80 -31l193 -178q17 -17 18 -41t-16 -41q-17 -19 -41 -20t-43 16l-191 176h-1001v-541h1007q25 0 41.5 -17t16.5 -42t-16.5 -42.5t-41.5 -17.5h-1007v-542h1001l191 178q19 17 43 16t41 -20q17 -17 16 -42t-18 -42 l-193 -176q-31 -31 -80 -31h-1061q-25 0 -42 17t-17 40zM563 1612v51q0 25 17.5 42t42.5 17t42 -17t17 -42v-51q0 -25 -17 -42.5t-42 -17.5t-42.5 17.5t-17.5 42.5zM791 1612v51q0 25 17 42t42 17t42 -17t17 -42v-51q0 -25 -17 -42.5t-42 -17.5t-42 17.5t-17 42.5z" />
<glyph unicode="&#xcc;" horiz-adv-x="1425" d="M82 59q0 25 17 42.5t42 17.5h512v1218h-512q-25 0 -42 17.5t-17 42.5t17 42t42 17h1143q25 0 42 -17t17 -42t-17 -42.5t-42 -17.5h-512v-1218h512q25 0 42 -17.5t17 -42.5t-17 -42t-42 -17h-1143q-25 0 -42 17t-17 42zM554 1740q-4 24 11 44q13 20 37.5 23.5t44.5 -11.5 l197 -143q20 -15 24 -39.5t-10 -44.5q-14 -17 -34.5 -22.5t-39.5 3.5l-10 6l-196 146q-20 14 -24 38z" />
<glyph unicode="&#xcd;" horiz-adv-x="1425" d="M82 59q0 25 17 42.5t42 17.5h512v1218h-512q-25 0 -42 17.5t-17 42.5t17 42t42 17h1143q25 0 42 -17t17 -42t-17 -42.5t-42 -17.5h-512v-1218h512q25 0 42 -17.5t17 -42.5t-17 -42t-42 -17h-1143q-25 0 -42 17t-17 42zM545.5 1621.5q-3.5 -24.5 11.5 -44.5 q12 -17 32.5 -22t39.5 4q8 4 10 6l199 145q20 13 23 37.5t-11 44.5q-15 20 -39.5 23.5t-44.5 -11.5l-197 -143q-20 -15 -23.5 -39.5z" />
<glyph unicode="&#xce;" horiz-adv-x="1425" d="M82 59q0 25 17 42.5t42 17.5h512v1218h-512q-25 0 -42 17.5t-17 42.5t17 42t42 17h1143q25 0 42 -17t17 -42t-17 -42.5t-42 -17.5h-512v-1218h512q25 0 42 -17.5t17 -42.5t-17 -42t-42 -17h-1143q-25 0 -42 17t-17 42zM401 1607q0 25 19 42l246 245q17 19 42 19t42 -19 l245 -245q17 -17 17 -42t-17 -42t-42 -17t-42 17l-204 204l-203 -204q-20 -17 -43 -17q-24 0 -41 17q-19 17 -19 42z" />
<glyph unicode="&#xcf;" horiz-adv-x="1425" d="M82 59q0 25 17 42.5t42 17.5h512v1218h-512q-25 0 -42 17.5t-17 42.5t17 42t42 17h1143q25 0 42 -17t17 -42t-17 -42.5t-42 -17.5h-512v-1218h512q25 0 42 -17.5t17 -42.5t-17 -42t-42 -17h-1143q-25 0 -42 17t-17 42zM532 1624v51q0 25 17.5 42.5t42.5 17.5t42 -17.5 t17 -42.5v-51q0 -25 -17 -42t-42 -17t-42.5 17t-17.5 42zM760 1624v51q0 25 17 42.5t42 17.5t42.5 -17.5t17.5 -42.5v-51q0 -25 -17.5 -42t-42.5 -17t-42 17t-17 42z" />
<glyph unicode="&#xd0;" horiz-adv-x="1687" d="M51 854q0 34 31 51v475q0 25 17 41.5t42 16.5h1155q44 0 80 -31l191 -176q39 -36 39 -88v-848q0 -50 -39 -86l-191 -178q-36 -31 -82 -31h-1153q-25 0 -42 17t-17 42v744q-31 17 -31 51zM201 119h1093h2l191 176v850l-191 176h-1095v-408h549q25 0 42 -17t17 -42t-17 -42 t-42 -17h-549v-676z" />
<glyph unicode="&#xd1;" horiz-adv-x="1738" d="M82 59v1338q0 25 17 42t42 17h195q28 0 47 -22l1040 -1315h115v1278q0 25 17 42t42 17t42.5 -17t17.5 -42v-1338q0 -25 -17.5 -42t-42.5 -17h-202q-31 0 -47 23l-1041 1316l-106 -2v-1278q0 -25 -17.5 -42t-42.5 -17t-42 17t-17 42zM526 1616q-9 23 0 46t31 32l137 59 q21 9 45 2l154 -61l115 49q22 10 44 1t33 -32q9 -22 0.5 -45t-30.5 -33l-137 -59q-23 -10 -46 0l-153 59l-113 -49q-25 -9 -47 0q-18 5 -33 31z" />
<glyph unicode="&#xd2;" d="M82 281v14v848v16q-4 31 18 53l211 195q32 28 64 31q6 2 16 2h926h6q46 -3 76 -33l190 -174q1 -2 4 -5t4 -5l11 -11q25 -22 18 -53l2 -14v-848q0 -3 -1 -8t-1 -8q7 -32 -18 -54l-209 -194q-28 -25 -66 -31q-2 0 -7.5 -1t-8.5 -1h-926h-4q-46 3 -76 33l-190 176q-5 3 -8 8 l-13 10q-22 22 -18 54zM201 297l190 -178h926l192 178v848l-190 176h-2h-926l-190 -178v-846zM676.5 1729.5q-3.5 24.5 11.5 44.5q13 20 37.5 23.5t44.5 -11.5l197 -144q20 -15 24 -39t-10 -44q-14 -17 -34.5 -22.5t-39.5 3.5l-10 6l-197 146q-20 13 -23.5 37.5z" />
<glyph unicode="&#xd3;" d="M82 281v14v848v16q-4 31 18 53l211 195q32 28 64 31q6 2 16 2h926h6q46 -3 76 -33l190 -174q1 -2 4 -5t4 -5l11 -11q25 -22 18 -53l2 -14v-848q0 -3 -1 -8t-1 -8q7 -32 -18 -54l-209 -194q-28 -25 -66 -31q-2 0 -7.5 -1t-8.5 -1h-926h-4q-46 3 -76 33l-190 176q-5 3 -8 8 l-13 10q-22 22 -18 54zM201 297l190 -178h926l192 178v848l-190 176h-2h-926l-190 -178v-846zM652.5 1609.5q-3.5 -24.5 11.5 -44.5q12 -17 32 -22.5t39 3.5q8 4 10 6l199 146q20 13 23 37.5t-11 44.5q-15 20 -39.5 23.5t-44.5 -11.5l-196 -143q-20 -15 -23.5 -39.5z" />
<glyph unicode="&#xd4;" d="M82 281v14v848v16q-4 31 18 53l211 195q32 28 64 31q6 2 16 2h926h6q46 -3 76 -33l190 -174q1 -2 4 -5t4 -5l11 -11q25 -22 18 -53l2 -14v-848q0 -3 -1 -8t-1 -8q7 -32 -18 -54l-209 -194q-28 -25 -66 -31q-2 0 -7.5 -1t-8.5 -1h-926h-4q-46 3 -76 33l-190 176q-5 3 -8 8 l-13 10q-22 22 -18 54zM201 297l190 -178h926l192 178v848l-190 176h-2h-926l-190 -178v-846zM567 1570q0 25 19 42l245 246q17 19 42 19t42 -19l246 -246q17 -17 17 -42t-17 -42t-42 -17t-42 17l-205 205l-202 -205q-20 -17 -43 -17q-24 0 -41 17q-19 17 -19 42z" />
<glyph unicode="&#xd5;" d="M82 281v14v848v16q-4 31 18 53l211 195q32 28 64 31q6 2 16 2h926h6q46 -3 76 -33l190 -174q1 -2 4 -5t4 -5l11 -11q25 -22 18 -53l2 -14v-848q0 -3 -1 -8t-1 -8q7 -32 -18 -54l-209 -194q-28 -25 -66 -31q-2 0 -7.5 -1t-8.5 -1h-926h-4q-46 3 -76 33l-190 176q-5 3 -8 8 l-13 10q-22 22 -18 54zM201 297l190 -178h926l192 178v848l-190 176h-2h-926l-190 -178v-846zM538.5 1643q8.5 23 30.5 32l138 60q21 9 45 2l153 -62l115 49q22 11 45 2t33 -32q9 -22 0 -44.5t-31 -33.5l-137 -60q-23 -10 -45 0l-154 60l-113 -49q-25 -9 -47 0q-18 5 -32 30 q-9 23 -0.5 46z" />
<glyph unicode="&#xd6;" d="M82 281v14v848v16q-4 31 18 53l211 195q32 28 64 31q6 2 16 2h926h6q46 -3 76 -33l190 -174q1 -2 4 -5t4 -5l11 -11q25 -22 18 -53l2 -14v-848q0 -3 -1 -8t-1 -8q7 -32 -18 -54l-209 -194q-28 -25 -66 -31q-2 0 -7.5 -1t-8.5 -1h-926h-4q-46 3 -76 33l-190 176q-5 3 -8 8 l-13 10q-22 22 -18 54zM201 297l190 -178h926l192 178v848l-190 176h-2h-926l-190 -178v-846zM686 1593v52q0 25 17 42t42 17t42.5 -17t17.5 -42v-52q0 -25 -17.5 -42t-42.5 -17t-42 17t-17 42zM913 1593v52q0 25 17.5 42t42.5 17t42 -17t17 -42v-52q0 -25 -17 -42t-42 -17 t-42.5 17t-17.5 42z" />
<glyph unicode="&#xd7;" horiz-adv-x="937" d="M81 287q0 24 19 43l285 284l-285 285q-19 19 -19 43t19 41q17 19 41 19t43 -19l285 -285l287 285q17 19 41 19t43 -19q17 -17 17 -41t-17 -43l-287 -285l287 -284q17 -19 17 -43t-17 -41q-19 -19 -43 -19t-41 19l-287 284l-285 -284q-19 -19 -43 -19t-41 19 q-19 17 -19 41z" />
<glyph unicode="&#xd8;" d="M82 281v14v848v16q-4 31 18 53l211 195q32 28 64 31q6 2 16 2h666l26 67q9 23 31.5 32.5t44.5 0.5q23 -9 32.5 -32t0.5 -46l-8 -22h133h6q46 -3 76 -33l190 -174q1 -2 4 -5t4 -5l11 -11q25 -22 18 -53l2 -14v-848q0 -3 -1 -8t-1 -8q7 -32 -18 -54l-209 -194 q-28 -25 -66 -31q-2 0 -7.5 -1t-8.5 -1h-717l-29 -72q-12 -39 -55 -39q-8 0 -22 7q-22 9 -32 31t-1 44l12 29h-82h-4q-46 3 -76 33l-190 176q-5 3 -8 8l-13 10q-22 22 -18 54zM201 297l190 -178h129l488 1202h-617l-190 -178v-846zM649 119h668l192 178v848l-190 176h-2 h-182z" />
<glyph unicode="&#xd9;" horiz-adv-x="1652" d="M82 309v1096q0 25 17 42t42 17t42.5 -17t17.5 -42v-1096l178 -190h897h2l176 190v1096q0 25 17 42t42 17t41.5 -17t16.5 -42v-1096q0 -44 -31 -80l-176 -190q-36 -39 -88 -39h-897q-52 0 -88 39l-176 190q-33 38 -33 80zM621.5 1727.5q-3.5 24.5 11.5 44.5 q13 20 37.5 23.5t44.5 -11.5l196 -144q20 -15 24.5 -39.5t-9.5 -44.5q-13 -17 -34 -22t-40 4l-10 6l-197 146q-20 13 -23.5 37.5z" />
<glyph unicode="&#xda;" horiz-adv-x="1652" d="M82 309v1096q0 25 17 42t42 17t42.5 -17t17.5 -42v-1096l178 -190h897h2l176 190v1096q0 25 17 42t42 17t41.5 -17t16.5 -42v-1096q0 -44 -31 -80l-176 -190q-36 -39 -88 -39h-897q-52 0 -88 39l-176 190q-33 38 -33 80zM646 1596.5q-4 -24.5 11 -44.5q12 -17 32.5 -22 t39.5 4q8 4 10 6l199 146q20 13 23 37t-11 44q-15 20 -39.5 24t-44.5 -11l-196 -144q-20 -15 -24 -39.5z" />
<glyph unicode="&#xdb;" horiz-adv-x="1652" d="M82 309v1096q0 25 17 42t42 17t42.5 -17t17.5 -42v-1096l178 -190h897h2l176 190v1096q0 25 17 42t42 17t41.5 -17t16.5 -42v-1096q0 -44 -31 -80l-176 -190q-36 -39 -88 -39h-897q-52 0 -88 39l-176 190q-33 38 -33 80zM511 1607q0 25 19 42l246 245q17 19 42 19t42 -19 l246 -245q17 -17 17 -42t-17 -42t-42 -17t-42 17l-205 204l-203 -204q-20 -17 -43 -17q-24 0 -41 17q-19 17 -19 42z" />
<glyph unicode="&#xdc;" horiz-adv-x="1652" d="M82 309v1096q0 25 17 42t42 17t42.5 -17t17.5 -42v-1096l178 -190h897h2l176 190v1096q0 25 17 42t42 17t41.5 -17t16.5 -42v-1096q0 -44 -31 -80l-176 -190q-36 -39 -88 -39h-897q-52 0 -88 39l-176 190q-33 38 -33 80zM625 1606v51q0 25 17 42t42 17t42 -17t17 -42v-51 q0 -25 -17 -42.5t-42 -17.5t-42 17.5t-17 42.5zM852 1606v51q0 25 17 42t42 17t42.5 -17t17.5 -42v-51q0 -25 -17.5 -42.5t-42.5 -17.5t-42 17.5t-17 42.5z" />
<glyph unicode="&#xdd;" horiz-adv-x="1533" d="M82 272q1 24 18 41q19 17 43 16t41 -20l176 -190h797l178 190v2v293h-958q-52 0 -88 39l-174 191q-33 38 -33 79v498q0 25 17 42t42 17t42.5 -17t17.5 -42v-498l176 -190h958v688q0 25 17.5 42t42.5 17t41 -17t16 -42v-1100q0 -46 -31 -82l-176 -190q-36 -39 -88 -39 h-797q-50 0 -86 39l-176 190q-17 19 -16 43zM578.5 1621.5q-3.5 -24.5 11.5 -44.5q12 -17 32.5 -22t39.5 4q8 4 10 6l198 145q20 13 23.5 37.5t-10.5 44.5q-15 20 -39.5 23.5t-44.5 -11.5l-197 -143q-20 -15 -23.5 -39.5z" />
<glyph unicode="&#xdf;" horiz-adv-x="1593" d="M82 59v1321q0 25 17 41.5t42 16.5h1045q44 0 80 -31l190 -176q39 -36 39 -88v-127q0 -52 -39 -88l-147 -137l166 -154q36 -36 36 -86v-256q0 -53 -36 -86l-193 -178q-31 -31 -80 -31h-805q-25 0 -42 17t-17 42t17 42.5t42 17.5h805l191 176h2v256h-2l-185 172 q-8 -2 -22 -2h-985v-662q0 -25 -17.5 -42t-42.5 -17t-42 17t-17 42zM201 846h991l184 170v127v2l-190 176h-985v-475z" />
<glyph unicode="&#xe0;" horiz-adv-x="1527" d="M82 57v1069q0 46 31 82l176 189q34 37 88 37h774q56 0 86 -37l178 -189q31 -40 31 -82v-1069q0 -24 -17.5 -40.5t-42.5 -16.5t-42 16t-17 41v533h-1128v-533q0 -24 -17.5 -40.5t-42.5 -16.5q-24 0 -40.5 16.5t-16.5 40.5zM199 596q2 2 0 6v-6zM199 696v2v-2zM199 709 h1128v417l-174 191l-2 2h-774q-2 0 -2 -2l-174 -191h-2v-417zM572.5 1725q-3.5 24 11.5 44q14 20 38 24t44 -11l196 -144q20 -15 24.5 -39.5t-9.5 -44.5q-13 -17 -34 -22t-40 4l-10 6l-197 146q-20 13 -23.5 37zM1327 596v6q-2 -4 0 -6zM1327 696v2v-2z" />
<glyph unicode="&#xe1;" horiz-adv-x="1527" d="M82 57v1069q0 46 31 82l176 189q34 37 88 37h774q56 0 86 -37l178 -189q31 -40 31 -82v-1069q0 -24 -17.5 -40.5t-42.5 -16.5t-42 16t-17 41v533h-1128v-533q0 -24 -17.5 -40.5t-42.5 -16.5q-24 0 -40.5 16.5t-16.5 40.5zM199 596q2 2 0 6v-6zM199 696v2v-2zM199 709 h1128v417l-174 191l-2 2h-774q-2 0 -2 -2l-174 -191h-2v-417zM566.5 1627.5q-3.5 -24.5 11.5 -44.5q12 -17 32 -22t39 4q8 4 10 6l199 145q20 13 23 37.5t-11 44.5q-15 20 -39.5 23.5t-44.5 -11.5l-196 -143q-20 -15 -23.5 -39.5zM1327 596v6q-2 -4 0 -6zM1327 696v2v-2z " />
<glyph unicode="&#xe2;" horiz-adv-x="1527" d="M82 57v1069q0 46 31 82l176 189q34 37 88 37h774q56 0 86 -37l178 -189q31 -40 31 -82v-1069q0 -24 -17.5 -40.5t-42.5 -16.5t-42 16t-17 41v533h-1128v-533q0 -24 -17.5 -40.5t-42.5 -16.5q-24 0 -40.5 16.5t-16.5 40.5zM199 596q2 2 0 6v-6zM199 696v2v-2zM199 709 h1128v417l-174 191l-2 2h-774q-2 0 -2 -2l-174 -191h-2v-417zM475 1607q0 25 19 42l245 245q17 19 42 19t42 -19l246 -245q17 -17 17 -42t-17 -42t-42 -17t-42 17l-205 204l-202 -204q-20 -17 -43 -17q-24 0 -41 17q-19 17 -19 42zM1327 596v6q-2 -4 0 -6zM1327 696v2v-2z " />
<glyph unicode="&#xe3;" horiz-adv-x="1527" d="M82 57v1069q0 46 31 82l176 189q34 37 88 37h774q56 0 86 -37l178 -189q31 -40 31 -82v-1069q0 -24 -17.5 -40.5t-42.5 -16.5t-42 16t-17 41v533h-1128v-533q0 -24 -17.5 -40.5t-42.5 -16.5q-24 0 -40.5 16.5t-16.5 40.5zM199 596q2 2 0 6v-6zM199 696v2v-2zM199 709 h1128v417l-174 191l-2 2h-774q-2 0 -2 -2l-174 -191h-2v-417zM475 1604q-9 23 0 45.5t31 31.5l137 60q21 9 45 2l154 -62l114 50q22 10 44.5 1t33.5 -32q9 -22 0.5 -45t-30.5 -33l-138 -59q-22 -10 -45 0l-153 59l-113 -49q-25 -9 -47 0q-18 5 -33 31zM1327 596v6 q-2 -4 0 -6zM1327 696v2v-2z" />
<glyph unicode="&#xe4;" horiz-adv-x="1527" d="M82 57v1069q0 46 31 82l176 189q34 37 88 37h774q56 0 86 -37l178 -189q31 -40 31 -82v-1069q0 -24 -17.5 -40.5t-42.5 -16.5t-42 16t-17 41v533h-1128v-533q0 -24 -17.5 -40.5t-42.5 -16.5q-24 0 -40.5 16.5t-16.5 40.5zM199 596q2 2 0 6v-6zM199 696v2v-2zM199 709 h1128v417l-174 191l-2 2h-774q-2 0 -2 -2l-174 -191h-2v-417zM582 1593v52q0 25 17 42t42 17t42 -17t17 -42v-52q0 -25 -17 -42t-42 -17t-42 17t-17 42zM809 1593v52q0 25 17 42t42 17t42.5 -17t17.5 -42v-52q0 -25 -17.5 -42t-42.5 -17t-42 17t-17 42zM1327 596v6 q-2 -4 0 -6zM1327 696v2v-2z" />
<glyph unicode="&#xe5;" horiz-adv-x="1527" d="M82 57v1069q0 46 31 82l176 189q34 37 88 37h774q56 0 86 -37l178 -189q31 -40 31 -82v-1069q0 -24 -17.5 -40.5t-42.5 -16.5t-42 16t-17 41v533h-1128v-533q0 -24 -17.5 -40.5t-42.5 -16.5q-24 0 -40.5 16.5t-16.5 40.5zM199 596q2 2 0 6v-6zM199 696v2v-2zM199 709 h1128v417l-174 191l-2 2h-774q-2 0 -2 -2l-174 -191h-2v-417zM506 1722v64q0 52 39 88l86 72q35 30 80 30h53q50 0 80 -30l86 -70l2 -2q39 -36 39 -88v-62q0 -52 -39 -88q0 -2 -2 -2l-84 -71q-36 -31 -82 -31h-53q-44 0 -80 31l-86 71q-39 36 -39 88zM625 1722l84 -69l2 -2 h53h2v2l86 71v62l-86 72h-2h-53h-2l-84 -72v-64zM1327 596v6q-2 -4 0 -6zM1327 696v2v-2z" />
<glyph unicode="&#xe6;" horiz-adv-x="3102" d="M82 57v1069q0 46 31 82l176 189q34 37 88 37h774q56 0 86 -37l178 -189q31 -40 31 -82v-1069q0 -24 -17.5 -40.5t-42.5 -16.5t-42 16t-17 41v533h-1128v-533q0 -24 -17.5 -40.5t-42.5 -16.5q-24 0 -40.5 16.5t-16.5 40.5zM199 596q2 2 0 6v-6zM199 696v2v-2zM199 709 h1128v417l-174 191l-2 2h-774q-2 0 -2 -2l-174 -191h-2v-417zM1327 596v6q-2 -4 0 -6zM1327 696v2v-2zM1610 57v662v659q0 25 17 42.5t42 17.5h1061q49 0 80 -31l192 -178q17 -17 18 -41t-16 -41q-17 -19 -41 -20t-43 16l-190 176h-1001v-541h1007q25 0 41 -17t16 -42 t-16.5 -42.5t-40.5 -17.5h-1007v-542h1001l190 178q19 17 43 16t41 -20q17 -17 16 -42t-18 -42l-192 -176q-31 -31 -80 -31h-1061q-25 0 -42 17t-17 40z" />
<glyph unicode="&#xe7;" d="M82 295v848q0 54 37 88l192 176q31 31 80 31h926q49 0 80 -31l211 -195q19 -17 20 -41t-16 -43t-41 -19t-43 17l-211 195h-926l-192 -178v-848l192 -176h926l211 194q19 17 43 16t41 -20q17 -17 16 -42t-20 -42l-211 -194q-31 -31 -80 -31h-414v-63q37 -3 70 -33l88 -74 q39 -36 39 -86v-49q0 -52 -39 -88l-88 -74q-36 -31 -82 -31h-47q-25 0 -42.5 16.5t-17.5 41.5t17.5 42t42.5 17h47h2l88 76v49l-88 74h-49q-25 0 -42.5 17t-17.5 42v2v121h-393q-49 0 -80 31l-192 176q-37 34 -37 88z" />
<glyph unicode="&#xe8;" horiz-adv-x="1574" d="M82 57v662v659q0 25 17 42.5t42 17.5h1061q49 0 80 -31l193 -178q17 -17 18 -41t-16 -41q-17 -19 -41 -20t-43 16l-191 176h-1001v-541h1007q25 0 41.5 -17t16.5 -42t-16.5 -42.5t-41.5 -17.5h-1007v-542h1001l191 178q19 17 43 16t41 -20q17 -17 16 -42t-18 -42 l-193 -176q-31 -31 -80 -31h-1061q-25 0 -42 17t-17 40zM590.5 1720.5q-3.5 24.5 11.5 44.5q14 20 38 24t44 -11l197 -144q20 -15 24 -39.5t-10 -44.5q-13 -17 -34 -22t-40 4l-10 6l-197 145q-20 13 -23.5 37.5z" />
<glyph unicode="&#xe9;" horiz-adv-x="1574" d="M82 57v662v659q0 25 17 42.5t42 17.5h1061q49 0 80 -31l193 -178q17 -17 18 -41t-16 -41q-17 -19 -41 -20t-43 16l-191 176h-1001v-541h1007q25 0 41.5 -17t16.5 -42t-16.5 -42.5t-41.5 -17.5h-1007v-542h1001l191 178q19 17 43 16t41 -20q17 -17 16 -42t-18 -42 l-193 -176q-31 -31 -80 -31h-1061q-25 0 -42 17t-17 40zM572.5 1603q-3.5 -24 11.5 -44q12 -17 32 -22.5t39 3.5q10 5 11 6l198 146q20 13 23.5 37.5t-10.5 44.5q-15 20 -39.5 23.5t-44.5 -11.5l-197 -144q-20 -15 -23.5 -39z" />
<glyph unicode="&#xea;" horiz-adv-x="1574" d="M82 57v662v659q0 25 17 42.5t42 17.5h1061q49 0 80 -31l193 -178q17 -17 18 -41t-16 -41q-17 -19 -41 -20t-43 16l-191 176h-1001v-541h1007q25 0 41.5 -17t16.5 -42t-16.5 -42.5t-41.5 -17.5h-1007v-542h1001l191 178q19 17 43 16t41 -20q17 -17 16 -42t-18 -42 l-193 -176q-31 -31 -80 -31h-1061q-25 0 -42 17t-17 40zM462 1576q0 25 19 42l246 246q17 19 42 19t42 -19l246 -246q17 -17 17 -42t-17 -42t-42 -17t-42 17l-205 205l-203 -205q-19 -16 -43 -16q-25 0 -41 16q-19 17 -19 42z" />
<glyph unicode="&#xeb;" horiz-adv-x="1574" d="M82 57v662v659q0 25 17 42.5t42 17.5h1061q49 0 80 -31l193 -178q17 -17 18 -41t-16 -41q-17 -19 -41 -20t-43 16l-191 176h-1001v-541h1007q25 0 41.5 -17t16.5 -42t-16.5 -42.5t-41.5 -17.5h-1007v-542h1001l191 178q19 17 43 16t41 -20q17 -17 16 -42t-18 -42 l-193 -176q-31 -31 -80 -31h-1061q-25 0 -42 17t-17 40zM588 1587v51q0 25 17 42.5t42 17.5t42.5 -17.5t17.5 -42.5v-51q0 -25 -17.5 -42t-42.5 -17t-42 17t-17 42zM815 1587v51q0 25 17 42.5t42 17.5t42.5 -17.5t17.5 -42.5v-51q0 -25 -17.5 -42t-42.5 -17t-42 17t-17 42z " />
<glyph unicode="&#xec;" horiz-adv-x="1425" d="M82 59q0 25 17 42.5t42 17.5h512v1218h-512q-25 0 -42 17.5t-17 42.5t17 42t42 17h1143q25 0 42 -17t17 -42t-17 -42.5t-42 -17.5h-512v-1218h512q25 0 42 -17.5t17 -42.5t-17 -42t-42 -17h-1143q-25 0 -42 17t-17 42zM554 1740q-4 24 11 44q13 20 37.5 23.5t44.5 -11.5 l197 -143q20 -15 24 -39.5t-10 -44.5q-14 -17 -34.5 -22.5t-39.5 3.5l-10 6l-196 146q-20 14 -24 38z" />
<glyph unicode="&#xed;" horiz-adv-x="1425" d="M82 59q0 25 17 42.5t42 17.5h512v1218h-512q-25 0 -42 17.5t-17 42.5t17 42t42 17h1143q25 0 42 -17t17 -42t-17 -42.5t-42 -17.5h-512v-1218h512q25 0 42 -17.5t17 -42.5t-17 -42t-42 -17h-1143q-25 0 -42 17t-17 42zM545.5 1621.5q-3.5 -24.5 11.5 -44.5 q12 -17 32.5 -22t39.5 4q8 4 10 6l199 145q20 13 23 37.5t-11 44.5q-15 20 -39.5 23.5t-44.5 -11.5l-197 -143q-20 -15 -23.5 -39.5z" />
<glyph unicode="&#xee;" horiz-adv-x="1425" d="M82 59q0 25 17 42.5t42 17.5h512v1218h-512q-25 0 -42 17.5t-17 42.5t17 42t42 17h1143q25 0 42 -17t17 -42t-17 -42.5t-42 -17.5h-512v-1218h512q25 0 42 -17.5t17 -42.5t-17 -42t-42 -17h-1143q-25 0 -42 17t-17 42zM401 1607q0 25 19 42l246 245q17 19 42 19t42 -19 l245 -245q17 -17 17 -42t-17 -42t-42 -17t-42 17l-204 204l-203 -204q-20 -17 -43 -17q-24 0 -41 17q-19 17 -19 42z" />
<glyph unicode="&#xef;" horiz-adv-x="1425" d="M82 59q0 25 17 42.5t42 17.5h512v1218h-512q-25 0 -42 17.5t-17 42.5t17 42t42 17h1143q25 0 42 -17t17 -42t-17 -42.5t-42 -17.5h-512v-1218h512q25 0 42 -17.5t17 -42.5t-17 -42t-42 -17h-1143q-25 0 -42 17t-17 42zM532 1624v51q0 25 17.5 42.5t42.5 17.5t42 -17.5 t17 -42.5v-51q0 -25 -17 -42t-42 -17t-42.5 17t-17.5 42zM760 1624v51q0 25 17 42.5t42 17.5t42.5 -17.5t17.5 -42.5v-51q0 -25 -17.5 -42t-42.5 -17t-42 17t-17 42z" />
<glyph unicode="&#xf0;" horiz-adv-x="1837" d="M82 295v219q0 52 39 88l190 176q36 31 80 31h926q46 0 82 -31l110 -102v381l-69 -51l-10 -7q-19 -9 -39.5 -3.5t-34.5 22.5q-14 20 -10.5 44.5t22.5 39.5l107 78l-158 145h-522l-211 -195q-19 -17 -42.5 -16t-41.5 19q-17 19 -16 43t20 41l211 194q33 33 80 33h522 q44 0 82 -33l174 -162l88 66q20 14 44.5 9.5t39.5 -24.5q14 -19 10 -43.5t-24 -37.5l-103 -76v-873v-2v-2v-4l-2 -2v-4v-2l-2 -2v-4l-2 -2v-2l-2 -2q0 -2 -2 -4v-2l-2 -3l-2 -2l-2 -2l-2 -2v-2l-211 -194q-36 -31 -82 -31h-926q-44 0 -80 31l-190 178q-39 36 -39 86z M201 295l190 -176h928l190 176v219l-192 176h-926l-190 -176v-219z" />
<glyph unicode="&#xf1;" horiz-adv-x="1738" d="M82 59v1338q0 25 17 42t42 17h195q28 0 47 -22l1040 -1315h115v1278q0 25 17 42t42 17t42.5 -17t17.5 -42v-1338q0 -25 -17.5 -42t-42.5 -17h-202q-31 0 -47 23l-1041 1316l-106 -2v-1278q0 -25 -17.5 -42t-42.5 -17t-42 17t-17 42zM538.5 1649.5q8.5 22.5 30.5 31.5 l138 60q21 9 45 2l153 -62l115 50q22 10 44.5 1t33.5 -32q9 -22 0 -44.5t-31 -33.5l-137 -59q-23 -10 -45 0l-154 59l-113 -49q-25 -9 -47 0q-17 5 -32 31q-9 23 -0.5 45.5z" />
<glyph unicode="&#xf2;" d="M82 281v14v848v16q-4 31 18 53l211 195q32 28 64 31q6 2 16 2h926h6q46 -3 76 -33l190 -174q1 -2 4 -5t4 -5l11 -11q25 -22 18 -53l2 -14v-848q0 -3 -1 -8t-1 -8q7 -32 -18 -54l-209 -194q-28 -25 -66 -31q-2 0 -7.5 -1t-8.5 -1h-926h-4q-46 3 -76 33l-190 176q-5 3 -8 8 l-13 10q-22 22 -18 54zM201 297l190 -178h926l192 178v848l-190 176h-2h-926l-190 -178v-846zM658.5 1751.5q-3.5 24.5 11.5 44.5q13 20 37.5 23.5t44.5 -11.5l196 -143q20 -15 24.5 -39.5t-9.5 -44.5q-13 -17 -34 -22t-40 4l-10 6l-197 145q-20 13 -23.5 37.5z" />
<glyph unicode="&#xf3;" d="M82 281v14v848v16q-4 31 18 53l211 195q32 28 64 31q6 2 16 2h926h6q46 -3 76 -33l190 -174q1 -2 4 -5t4 -5l11 -11q25 -22 18 -53l2 -14v-848q0 -3 -1 -8t-1 -8q7 -32 -18 -54l-209 -194q-28 -25 -66 -31q-2 0 -7.5 -1t-8.5 -1h-926h-4q-46 3 -76 33l-190 176q-5 3 -8 8 l-13 10q-22 22 -18 54zM201 297l190 -178h926l192 178v848l-190 176h-2h-926l-190 -178v-846zM689 1596.5q-4 -24.5 11 -44.5q12 -17 32.5 -22t39.5 4q8 4 10 6l199 146q20 13 23 37t-11 44q-15 20 -39.5 24t-44.5 -11l-196 -144q-20 -15 -24 -39.5z" />
<glyph unicode="&#xf4;" d="M82 281v14v848v16q-4 31 18 53l211 195q32 28 64 31q6 2 16 2h926h6q46 -3 76 -33l190 -174q1 -2 4 -5t4 -5l11 -11q25 -22 18 -53l2 -14v-848q0 -3 -1 -8t-1 -8q7 -32 -18 -54l-209 -194q-28 -25 -66 -31q-2 0 -7.5 -1t-8.5 -1h-926h-4q-46 3 -76 33l-190 176q-5 3 -8 8 l-13 10q-22 22 -18 54zM201 297l190 -178h926l192 178v848l-190 176h-2h-926l-190 -178v-846zM530 1613q0 25 19 42l246 246q17 19 42 19t42 -19l245 -246q17 -17 17 -42t-17 -42t-42 -17t-42 17l-204 205l-203 -205q-20 -17 -43 -17q-24 0 -41 17q-19 17 -19 42z" />
<glyph unicode="&#xf5;" d="M82 281v14v848v16q-4 31 18 53l211 195q32 28 64 31q6 2 16 2h926h6q46 -3 76 -33l190 -174q1 -2 4 -5t4 -5l11 -11q25 -22 18 -53l2 -14v-848q0 -3 -1 -8t-1 -8q7 -32 -18 -54l-209 -194q-28 -25 -66 -31q-2 0 -7.5 -1t-8.5 -1h-926h-4q-46 3 -76 33l-190 176q-5 3 -8 8 l-13 10q-22 22 -18 54zM201 297l190 -178h926l192 178v848l-190 176h-2h-926l-190 -178v-846zM557 1591q-9 23 0 46t31 32l137 60q21 9 45 2l154 -62l114 49q22 11 45 2t33 -32q9 -22 0 -44.5t-31 -33.5l-137 -60q-22 -10 -45 0l-153 60l-113 -49q-25 -9 -47 0q-19 5 -33 30 z" />
<glyph unicode="&#xf6;" d="M82 281v14v848v16q-4 31 18 53l211 195q32 28 64 31q6 2 16 2h926h6q46 -3 76 -33l190 -174q1 -2 4 -5t4 -5l11 -11q25 -22 18 -53l2 -14v-848q0 -3 -1 -8t-1 -8q7 -32 -18 -54l-209 -194q-28 -25 -66 -31q-2 0 -7.5 -1t-8.5 -1h-926h-4q-46 3 -76 33l-190 176q-5 3 -8 8 l-13 10q-22 22 -18 54zM201 297l190 -178h926l192 178v848l-190 176h-2h-926l-190 -178v-846zM649 1624v51q0 25 17.5 42.5t42.5 17.5t42 -17.5t17 -42.5v-51q0 -25 -17 -42t-42 -17t-42.5 17t-17.5 42zM877 1624v51q0 25 17 42.5t42 17.5t42 -17.5t17 -42.5v-51 q0 -25 -17 -42t-42 -17t-42 17t-17 42z" />
<glyph unicode="&#xf7;" horiz-adv-x="1208" d="M82 541q0 25 17 42t42 17h926q25 0 42 -17t17 -42t-17 -42.5t-42 -17.5h-926q-25 0 -42 17.5t-17 42.5zM545 59v52q0 25 17 42t42 17t42.5 -17t17.5 -42v-52q0 -25 -17.5 -42t-42.5 -17t-42 17t-17 42zM545 952v52q0 25 17 42t42 17t42.5 -17t17.5 -42v-52 q0 -25 -17.5 -42t-42.5 -17t-42 17t-17 42z" />
<glyph unicode="&#xf8;" d="M82 281v14v848v16q-4 31 18 53l211 195q32 28 64 31q6 2 16 2h666l26 67q9 23 31.5 32.5t44.5 0.5q23 -9 32.5 -32t0.5 -46l-8 -22h133h6q46 -3 76 -33l190 -174q1 -2 4 -5t4 -5l11 -11q25 -22 18 -53l2 -14v-848q0 -3 -1 -8t-1 -8q7 -32 -18 -54l-209 -194 q-28 -25 -66 -31q-2 0 -7.5 -1t-8.5 -1h-717l-29 -72q-12 -39 -55 -39q-8 0 -22 7q-22 9 -32 31t-1 44l12 29h-82h-4q-46 3 -76 33l-190 176q-5 3 -8 8l-13 10q-22 22 -18 54zM201 297l190 -178h129l488 1202h-617l-190 -178v-846zM649 119h668l192 178v848l-190 176h-2 h-182z" />
<glyph unicode="&#xf9;" horiz-adv-x="1652" d="M82 309v1096q0 25 17 42t42 17t42.5 -17t17.5 -42v-1096l178 -190h897h2l176 190v1096q0 25 17 42t42 17t41.5 -17t16.5 -42v-1096q0 -44 -31 -80l-176 -190q-36 -39 -88 -39h-897q-52 0 -88 39l-176 190q-33 38 -33 80zM633.5 1714.5q-3.5 24.5 11.5 44.5q14 20 38 24 t44 -11l197 -144q20 -15 24 -39.5t-10 -44.5q-13 -17 -34 -22t-40 4l-10 6l-197 145q-20 13 -23.5 37.5z" />
<glyph unicode="&#xfa;" horiz-adv-x="1652" d="M82 309v1096q0 25 17 42t42 17t42.5 -17t17.5 -42v-1096l178 -190h897h2l176 190v1096q0 25 17 42t42 17t41.5 -17t16.5 -42v-1096q0 -44 -31 -80l-176 -190q-36 -39 -88 -39h-897q-52 0 -88 39l-176 190q-33 38 -33 80zM658.5 1609.5q-3.5 -24.5 11.5 -44.5 q12 -17 32 -22.5t39 3.5q10 5 11 6l198 146q20 13 23.5 37.5t-10.5 44.5q-15 20 -39.5 23.5t-44.5 -11.5l-197 -143q-20 -15 -23.5 -39.5z" />
<glyph unicode="&#xfb;" horiz-adv-x="1652" d="M82 309v1096q0 25 17 42t42 17t42.5 -17t17.5 -42v-1096l178 -190h897h2l176 190v1096q0 25 17 42t42 17t41.5 -17t16.5 -42v-1096q0 -44 -31 -80l-176 -190q-36 -39 -88 -39h-897q-52 0 -88 39l-176 190q-33 38 -33 80zM511 1619q0 25 19 42l246 246q17 19 42 19t42 -19 l246 -246q17 -17 17 -42t-17 -42t-42 -17t-42 17l-205 205l-203 -205q-19 -16 -43 -16q-25 0 -41 16q-19 17 -19 42z" />
<glyph unicode="&#xfc;" horiz-adv-x="1652" d="M82 309v1096q0 25 17 42t42 17t42.5 -17t17.5 -42v-1096l178 -190h897h2l176 190v1096q0 25 17 42t42 17t41.5 -17t16.5 -42v-1096q0 -44 -31 -80l-176 -190q-36 -39 -88 -39h-897q-52 0 -88 39l-176 190q-33 38 -33 80zM606 1606v51q0 25 17.5 42t42.5 17t42 -17t17 -42 v-51q0 -25 -17 -42.5t-42 -17.5t-42.5 17.5t-17.5 42.5zM834 1606v51q0 25 17 42t42 17t42 -17t17 -42v-51q0 -25 -17 -42.5t-42 -17.5t-42 17.5t-17 42.5z" />
<glyph unicode="&#xfd;" horiz-adv-x="1533" d="M82 272q1 24 18 41q19 17 43 16t41 -20l176 -190h797l178 190v2v293h-958q-52 0 -88 39l-174 191q-33 38 -33 79v498q0 25 17 42t42 17t42.5 -17t17.5 -42v-498l176 -190h958v688q0 25 17.5 42t42.5 17t41 -17t16 -42v-1100q0 -46 -31 -82l-176 -190q-36 -39 -88 -39 h-797q-50 0 -86 39l-176 190q-17 19 -16 43zM551.5 1646.5q-3.5 -24.5 11.5 -44.5q12 -17 32.5 -22.5t39.5 3.5q8 4 10 6l199 146q20 13 23 37.5t-11 44.5q-15 20 -39.5 23.5t-44.5 -11.5l-197 -143q-20 -15 -23.5 -39.5z" />
<glyph unicode="&#xff;" horiz-adv-x="1533" d="M82 272q1 24 18 41q19 17 43 16t41 -20l176 -190h797l178 190v2v293h-958q-52 0 -88 39l-174 191q-33 38 -33 79v498q0 25 17 42t42 17t42.5 -17t17.5 -42v-498l176 -190h958v688q0 25 17.5 42t42.5 17t41 -17t16 -42v-1100q0 -46 -31 -82l-176 -190q-36 -39 -88 -39 h-797q-50 0 -86 39l-176 190q-17 19 -16 43zM539 1602v51q0 25 17 42t42 17t42 -17t17 -42v-51q0 -25 -17 -42.5t-42 -17.5t-42 17.5t-17 42.5zM766 1602v51q0 25 17 42t42 17t42.5 -17t17.5 -42v-51q0 -25 -17.5 -42.5t-42.5 -17.5t-42 17.5t-17 42.5z" />
<glyph unicode="&#x152;" horiz-adv-x="3284" d="M82 281v14v848v16q-4 31 18 53l211 195q32 28 64 31q6 2 16 2h926h6q46 -3 76 -33l190 -174q1 -2 4 -5t4 -5l11 -11q25 -22 18 -53l2 -14v-848q0 -3 -1 -8t-1 -8q7 -32 -18 -54l-209 -194q-28 -25 -66 -31q-2 0 -7.5 -1t-8.5 -1h-926h-4q-46 3 -76 33l-190 176q-5 3 -8 8 l-13 10q-22 22 -18 54zM201 297l190 -178h926l192 178v848l-190 176h-2h-926l-190 -178v-846zM1792 57v662v659q0 25 17 42.5t42 17.5h1061q49 0 80 -31l193 -178q17 -17 18 -41t-16 -41q-17 -19 -41 -20t-43 16l-191 176h-1001v-541h1007q25 0 41.5 -17t16.5 -42 t-16.5 -42.5t-41.5 -17.5h-1007v-542h1001l191 178q19 17 43 16t41 -20q17 -17 16 -42t-18 -42l-193 -176q-31 -31 -80 -31h-1061q-25 0 -42 17t-17 40z" />
<glyph unicode="&#x153;" horiz-adv-x="3284" d="M82 281v14v848v16q-4 31 18 53l211 195q32 28 64 31q6 2 16 2h926h6q46 -3 76 -33l190 -174q1 -2 4 -5t4 -5l11 -11q25 -22 18 -53l2 -14v-848q0 -3 -1 -8t-1 -8q7 -32 -18 -54l-209 -194q-28 -25 -66 -31q-2 0 -7.5 -1t-8.5 -1h-926h-4q-46 3 -76 33l-190 176q-5 3 -8 8 l-13 10q-22 22 -18 54zM201 297l190 -178h926l192 178v848l-190 176h-2h-926l-190 -178v-846zM1792 57v662v659q0 25 17 42.5t42 17.5h1061q49 0 80 -31l193 -178q17 -17 18 -41t-16 -41q-17 -19 -41 -20t-43 16l-191 176h-1001v-541h1007q25 0 41.5 -17t16.5 -42 t-16.5 -42.5t-41.5 -17.5h-1007v-542h1001l191 178q19 17 43 16t41 -20q17 -17 16 -42t-18 -42l-193 -176q-31 -31 -80 -31h-1061q-25 0 -42 17t-17 40z" />
<glyph unicode="&#x178;" horiz-adv-x="1533" d="M82 272q1 24 18 41q19 17 43 16t41 -20l176 -190h797l178 190v2v293h-958q-52 0 -88 39l-174 191q-33 38 -33 79v498q0 25 17 42t42 17t42.5 -17t17.5 -42v-498l176 -190h958v688q0 25 17.5 42t42.5 17t41 -17t16 -42v-1100q0 -46 -31 -82l-176 -190q-36 -39 -88 -39 h-797q-50 0 -86 39l-176 190q-17 19 -16 43zM586 1602v51q0 25 17 42t42 17t42.5 -17t17.5 -42v-51q0 -25 -17.5 -42.5t-42.5 -17.5t-42 17.5t-17 42.5zM813 1602v51q0 25 17 42t42 17t42.5 -17t17.5 -42v-51q0 -25 -17.5 -42.5t-42.5 -17.5t-42 17.5t-17 42.5z" />
<glyph unicode="&#x2c6;" horiz-adv-x="1228" d="M294 1353q0 25 19 42l246 245q17 19 42 19t42 -19l246 -245q17 -17 17 -42t-17 -42t-42 -17t-42 17l-205 205l-203 -205q-20 -17 -43 -17q-24 0 -41 17q-19 17 -19 42z" />
<glyph unicode="&#x2dc;" horiz-adv-x="1228" d="M327.5 1445q8.5 23 30.5 32l138 59q21 9 45 2l153 -61l115 49q22 10 44.5 1t33.5 -32q9 -22 0 -44.5t-31 -33.5l-137 -59q-23 -10 -45 0l-154 59l-112 -49q-26 -10 -48 0q-17 5 -32 31q-9 23 -0.5 46z" />
<glyph unicode="&#x2000;" horiz-adv-x="988" />
<glyph unicode="&#x2001;" horiz-adv-x="1976" />
<glyph unicode="&#x2002;" horiz-adv-x="988" />
<glyph unicode="&#x2003;" horiz-adv-x="1976" />
<glyph unicode="&#x2004;" horiz-adv-x="658" />
<glyph unicode="&#x2005;" horiz-adv-x="494" />
<glyph unicode="&#x2006;" horiz-adv-x="329" />
<glyph unicode="&#x2007;" horiz-adv-x="329" />
<glyph unicode="&#x2008;" horiz-adv-x="247" />
<glyph unicode="&#x2009;" horiz-adv-x="395" />
<glyph unicode="&#x200a;" horiz-adv-x="109" />
<glyph unicode="&#x2010;" horiz-adv-x="1228" d="M51 854q0 25 17.5 42t42.5 17h639q25 0 42 -17t17 -42t-17 -42t-42 -17h-639q-25 0 -42.5 17t-17.5 42z" />
<glyph unicode="&#x2011;" horiz-adv-x="1228" d="M51 854q0 25 17.5 42t42.5 17h639q25 0 42 -17t17 -42t-17 -42t-42 -17h-639q-25 0 -42.5 17t-17.5 42z" />
<glyph unicode="&#x2012;" horiz-adv-x="1228" d="M51 854q0 25 17.5 42t42.5 17h639q25 0 42 -17t17 -42t-17 -42t-42 -17h-639q-25 0 -42.5 17t-17.5 42z" />
<glyph unicode="&#x2013;" horiz-adv-x="1228" d="M51 854q0 25 17.5 42t42.5 17h864q25 0 42 -17t17 -42t-17 -42t-42 -17h-864q-25 0 -42.5 17t-17.5 42z" />
<glyph unicode="&#x2014;" horiz-adv-x="1228" d="M51 854q0 25 17.5 42t42.5 17h1007q25 0 42.5 -17t17.5 -42t-17.5 -42t-42.5 -17h-1007q-25 0 -42.5 17t-17.5 42z" />
<glyph unicode="&#x2018;" horiz-adv-x="282" d="M82 1200v234q0 25 17 42t42 17t42.5 -17t17.5 -42v-234q0 -25 -17.5 -42t-42.5 -17t-42 17t-17 42z" />
<glyph unicode="&#x2019;" horiz-adv-x="282" d="M82 1200v234q0 25 17 42t42 17t42.5 -17t17.5 -42v-234q0 -25 -17.5 -42t-42.5 -17t-42 17t-17 42z" />
<glyph unicode="&#x201a;" horiz-adv-x="1228" d="M82 -123q-1 24 16 43l74 80v113q0 25 17 42t42 17t42.5 -17t17.5 -42v-136q0 -23 -17 -40l-90 -97q-17 -20 -43 -20q-22 0 -41 16q-17 17 -18 41z" />
<glyph unicode="&#x201c;" horiz-adv-x="456" d="M82 1200v234q0 25 17 42t42 17t42.5 -17t17.5 -42v-234q0 -25 -17.5 -42t-42.5 -17t-42 17t-17 42zM256 1200v234q0 25 17 42t42 17t42.5 -17t17.5 -42v-234q0 -25 -17.5 -42t-42.5 -17t-42 17t-17 42z" />
<glyph unicode="&#x201d;" horiz-adv-x="456" d="M82 1200v234q0 25 17 42t42 17t42.5 -17t17.5 -42v-234q0 -25 -17.5 -42t-42.5 -17t-42 17t-17 42zM256 1200v234q0 25 17 42t42 17t42.5 -17t17.5 -42v-234q0 -25 -17.5 -42t-42.5 -17t-42 17t-17 42z" />
<glyph unicode="&#x201e;" horiz-adv-x="1228" d="M82 -123q-1 24 16 43l74 80v113q0 25 17 42t42 17t42.5 -17t17.5 -42v-136q0 -23 -17 -40l-90 -97q-17 -20 -43 -20q-22 0 -41 16q-17 17 -18 41z" />
<glyph unicode="&#x2022;" horiz-adv-x="380" d="M82 739v97q0 44 32 76t76 32t76.5 -32t32.5 -76v-97q0 -44 -32.5 -76t-76.5 -32t-76 32t-32 76z" />
<glyph unicode="&#x2026;" horiz-adv-x="856" d="M82 59v52q0 25 17 42t42 17t42.5 -17t17.5 -42v-52q0 -25 -17.5 -42t-42.5 -17t-42 17t-17 42zM369 59v52q0 25 17 42t42 17t42 -17t17 -42v-52q0 -25 -17 -42t-42 -17t-42 17t-17 42zM655 59v52q0 25 17.5 42t42.5 17t42 -17t17 -42v-52q0 -25 -17 -42t-42 -17t-42.5 17 t-17.5 42z" />
<glyph unicode="&#x202f;" horiz-adv-x="395" />
<glyph unicode="&#x2039;" horiz-adv-x="487" d="M82 733q0 25 20 45l203 172q18 15 42.5 13.5t39.5 -21.5q17 -19 15 -43t-21 -39l-148 -127l152 -131q18 -15 19.5 -39t-13.5 -43q-19 -22 -45 -22q-22 0 -39 14l-205 176q-20 17 -20 45z" />
<glyph unicode="&#x203a;" horiz-adv-x="487" d="M82.5 899q-1.5 24 13.5 43q15 20 40.5 21.5t43.5 -13.5l205 -176q21 -18 21 -45q0 -24 -21 -45l-203 -172q-17 -14 -39 -14q-26 0 -45 22q-15 19 -13.5 43t19.5 39l150 127l-152 131q-18 15 -19.5 39z" />
<glyph unicode="&#x205f;" horiz-adv-x="494" />
<glyph unicode="&#x2122;" horiz-adv-x="3923" d="M82 1405q0 25 17 42t42 17h1549q25 0 42 -17t17 -42t-17 -42t-42 -17h-715v-1287q0 -25 -17.5 -42t-42.5 -17t-42 17t-17 42v1287h-715q-25 0 -42 17t-17 42zM1913 59v1338q0 25 17 42t42 17h207q28 0 49 -24l649 -904l654 904q18 24 49 24h205q25 0 41 -17t16 -42v-1338 q0 -25 -17 -42t-40 -17q-25 0 -42.5 17t-17.5 42v1278h-116l-682 -946q-21 -24 -50 -24q-30 0 -47 24l-680 946h-118v-1278q0 -25 -17.5 -42t-42.5 -17t-42 17t-17 42z" />
<glyph unicode="&#x25fc;" horiz-adv-x="1454" d="M0 0v1454h1454v-1454h-1454z" />
</font>
</defs>
</svg>
